SplineFontDB: 3.0
FontName: Corben
FullName: Corben
FamilyName: Corben
Weight: Bold
Copyright: Copyright (c) 2010 by vernon adams. All rights reserved.
Version: 1.000
ItalicAngle: 0
UnderlinePosition: -103
UnderlineWidth: 102
Ascent: 1638
Descent: 410
sfntRevision: 0x00010000
LayerCount: 2
Layer: 0 1 "Back"  1
Layer: 1 1 "Fore"  0
XUID: [1021 332 469972825 14114032]
FSType: 4
OS2Version: 2
OS2_WeightWidthSlopeOnly: 0
OS2_UseTypoMetrics: 1
CreationTime: 1292222996
ModificationTime: 1292423796
PfmFamily: 17
TTFWeight: 700
TTFWidth: 5
LineGap: 141
VLineGap: 0
Panose: 2 0 5 5 2 0 0 2 0 4
OS2TypoAscent: 248
OS2TypoAOffset: 1
OS2TypoDescent: -151
OS2TypoDOffset: 1
OS2TypoLinegap: 141
OS2WinAscent: -251
OS2WinAOffset: 1
OS2WinDescent: -343
OS2WinDOffset: 1
HheadAscent: -913
HheadAOffset: 1
HheadDescent: 444
HheadDOffset: 1
OS2SubXSize: 1434
OS2SubYSize: 1331
OS2SubXOff: 0
OS2SubYOff: 287
OS2SupXSize: 1434
OS2SupYSize: 1331
OS2SupXOff: 0
OS2SupYOff: 977
OS2StrikeYSize: 102
OS2StrikeYPos: 512
OS2Vendor: '    '
OS2CodePages: 00000093.00000000
OS2UnicodeRanges: a00002af.4000004a.00000000.00000000
Lookup: 1 0 0 "'smcp' Lowercase to Small Capitals in Latin lookup 0"  {"'smcp' Lowercase to Small Capitals in Latin lookup 0 subtable"  } ['smcp' ('latn' <'dflt' > ) ]
Lookup: 1 0 0 "'onum' Oldstyle Figures in Latin lookup 1"  {"'onum' Oldstyle Figures in Latin lookup 1 subtable" ("oldstyle" ) } ['onum' ('latn' <'dflt' > ) ]
Lookup: 4 0 1 "'liga' Standard Ligatures in Latin lookup 2"  {"'liga' Standard Ligatures in Latin lookup 2 subtable"  } ['liga' ('latn' <'dflt' > ) ]
Lookup: 258 0 0 "'kern' Horizontal Kerning in Latin lookup 0"  {"'kern' Horizontal Kerning in Latin lookup 0 subtable"  } ['kern' ('latn' <'dflt' > ) ]
MarkAttachClasses: 1
DEI: 91125
TtTable: prep
PUSHW_1
 511
SCANCTRL
PUSHB_1
 1
SCANTYPE
SVTCA[y-axis]
MPPEM
PUSHB_1
 8
LT
IF
PUSHB_2
 1
 1
INSTCTRL
EIF
PUSHB_2
 70
 6
CALL
IF
POP
PUSHB_1
 16
EIF
MPPEM
PUSHB_1
 20
GT
IF
POP
PUSHB_1
 128
EIF
SCVTCI
PUSHB_1
 6
CALL
NOT

StartChar: D
Encoding: 68 68 4
Width: 1928
Flags: W
HStem: 0 231<924.281 1115.18> 1397 196<924.281 1116.15>
VStem: 203 693<312.355 1283.12> 1227 664<491.846 1130.71>
LayerCount: 2
Fore
SplineSet
1227 854 m 0,0,1
 1227 962 1227 962 1216 1060 c 128,-1,2
 1205 1158 1205 1158 1181 1233 c 128,-1,3
 1157 1308 1157 1308 1118 1352.5 c 128,-1,4
 1079 1397 1079 1397 1023 1397 c 0,5,6
 981 1397 981 1397 955.5 1381.5 c 128,-1,7
 930 1366 930 1366 917 1340.5 c 128,-1,8
 904 1315 904 1315 900 1281 c 128,-1,9
 896 1247 896 1247 896 1210 c 2,10,-1
 896 418 l 2,11,12
 896 381 896 381 900 347 c 128,-1,13
 904 313 904 313 917 287.5 c 128,-1,14
 930 262 930 262 955.5 246.5 c 128,-1,15
 981 231 981 231 1023 231 c 0,16,17
 1079 231 1079 231 1118 276 c 128,-1,18
 1157 321 1157 321 1181 402.5 c 128,-1,19
 1205 484 1205 484 1216 599 c 128,-1,20
 1227 714 1227 714 1227 854 c 0,0,1
1023 1593 m 2,21,22
 1185 1593 1185 1593 1312.5 1565 c 128,-1,23
 1440 1537 1440 1537 1536.5 1487 c 128,-1,24
 1633 1437 1633 1437 1700.5 1367.5 c 128,-1,25
 1768 1298 1768 1298 1810.5 1214.5 c 128,-1,26
 1853 1131 1853 1131 1872 1037 c 128,-1,27
 1891 943 1891 943 1891 844 c 0,28,29
 1891 732 1891 732 1876 625.5 c 128,-1,30
 1861 519 1861 519 1822 425.5 c 128,-1,31
 1783 332 1783 332 1715 253.5 c 128,-1,32
 1647 175 1647 175 1541.5 119 c 128,-1,33
 1436 63 1436 63 1287.5 31.5 c 128,-1,34
 1139 0 1139 0 939 0 c 2,35,-1
 535 0 l 2,36,37
 417 0 417 0 325.5 13.5 c 128,-1,38
 234 27 234 27 171.5 55.5 c 128,-1,39
 109 84 109 84 76.5 129 c 128,-1,40
 44 174 44 174 44 236 c 0,41,42
 44 260 44 260 56 270.5 c 128,-1,43
 68 281 68 281 85.5 286.5 c 128,-1,44
 103 292 103 292 123.5 297 c 128,-1,45
 144 302 144 302 161.5 314.5 c 128,-1,46
 179 327 179 327 191 351 c 128,-1,47
 203 375 203 375 203 420 c 2,48,-1
 203 1176 l 2,49,50
 203 1220 203 1220 191 1244.5 c 128,-1,51
 179 1269 179 1269 161.5 1281.5 c 128,-1,52
 144 1294 144 1294 123.5 1299 c 128,-1,53
 103 1304 103 1304 85.5 1309.5 c 128,-1,54
 68 1315 68 1315 56 1325.5 c 128,-1,55
 44 1336 44 1336 44 1360 c 0,56,57
 44 1422 44 1422 76.5 1466.5 c 128,-1,58
 109 1511 109 1511 171.5 1539 c 128,-1,59
 234 1567 234 1567 325.5 1580 c 128,-1,60
 417 1593 417 1593 535 1593 c 2,61,-1
 1023 1593 l 2,21,22
EndSplineSet
EndChar

StartChar: H
Encoding: 72 72 5
Width: 2207
Flags: W
HStem: 0 21G<475 656 1606 1727> 729 193<876 1325> 1573 20G<475 595 1544.5 1787.5>
VStem: 202 672<314.893 729 922 1280.27> 1325 671<315.195 729 922 1280.27>
LayerCount: 2
Fore
SplineSet
1325 729 m 1,0,-1
 874 729 l 1,1,-1
 874 424 l 2,2,3
 874 379 874 379 886.5 354 c 128,-1,4
 899 329 899 329 917 316 c 128,-1,5
 935 303 935 303 956 298 c 128,-1,6
 977 293 977 293 994.5 287 c 128,-1,7
 1012 281 1012 281 1024 270.5 c 128,-1,8
 1036 260 1036 260 1036 236 c 0,9,10
 1036 111 1036 111 907 55.5 c 128,-1,11
 778 0 778 0 534 0 c 0,12,13
 416 0 416 0 324.5 13.5 c 128,-1,14
 233 27 233 27 170.5 55.5 c 128,-1,15
 108 84 108 84 75.5 129 c 128,-1,16
 43 174 43 174 43 236 c 0,17,18
 43 260 43 260 55 270.5 c 128,-1,19
 67 281 67 281 84.5 286.5 c 128,-1,20
 102 292 102 292 122.5 297 c 128,-1,21
 143 302 143 302 160.5 314.5 c 128,-1,22
 178 327 178 327 190 351 c 128,-1,23
 202 375 202 375 202 420 c 2,24,-1
 202 1174 l 2,25,26
 202 1218 202 1218 190 1242.5 c 128,-1,27
 178 1267 178 1267 160.5 1279.5 c 128,-1,28
 143 1292 143 1292 122.5 1297 c 128,-1,29
 102 1302 102 1302 84.5 1307.5 c 128,-1,30
 67 1313 67 1313 55 1323.5 c 128,-1,31
 43 1334 43 1334 43 1358 c 0,32,33
 43 1420 43 1420 75.5 1464.5 c 128,-1,34
 108 1509 108 1509 170.5 1537.5 c 128,-1,35
 233 1566 233 1566 324.5 1579.5 c 128,-1,36
 416 1593 416 1593 534 1593 c 0,37,38
 656 1593 656 1593 750 1579.5 c 128,-1,39
 844 1566 844 1566 907.5 1537.5 c 128,-1,40
 971 1509 971 1509 1003.5 1464.5 c 128,-1,41
 1036 1420 1036 1420 1036 1358 c 0,42,43
 1036 1334 1036 1334 1024 1323.5 c 128,-1,44
 1012 1313 1012 1313 994.5 1307.5 c 128,-1,45
 977 1302 977 1302 956 1297 c 128,-1,46
 935 1292 935 1292 917.5 1279.5 c 128,-1,47
 900 1267 900 1267 888 1242.5 c 128,-1,48
 876 1218 876 1218 876 1174 c 2,49,-1
 876 922 l 1,50,-1
 1325 922 l 1,51,-1
 1325 1174 l 2,52,53
 1325 1218 1325 1218 1313 1242.5 c 128,-1,54
 1301 1267 1301 1267 1283.5 1279.5 c 128,-1,55
 1266 1292 1266 1292 1245 1297 c 128,-1,56
 1224 1302 1224 1302 1206.5 1307.5 c 128,-1,57
 1189 1313 1189 1313 1177 1323.5 c 128,-1,58
 1165 1334 1165 1334 1165 1358 c 0,59,60
 1165 1482 1165 1482 1293.5 1537.5 c 128,-1,61
 1422 1593 1422 1593 1667 1593 c 0,62,63
 1908 1593 1908 1593 2036 1537.5 c 128,-1,64
 2164 1482 2164 1482 2164 1358 c 0,65,66
 2164 1334 2164 1334 2151.5 1323.5 c 128,-1,67
 2139 1313 2139 1313 2120.5 1307.5 c 128,-1,68
 2102 1302 2102 1302 2080 1297 c 128,-1,69
 2058 1292 2058 1292 2039.5 1279.5 c 128,-1,70
 2021 1267 2021 1267 2008.5 1242.5 c 128,-1,71
 1996 1218 1996 1218 1996 1174 c 2,72,-1
 1996 424 l 2,73,74
 1996 379 1996 379 2008.5 354 c 128,-1,75
 2021 329 2021 329 2039.5 316 c 128,-1,76
 2058 303 2058 303 2080 298 c 128,-1,77
 2102 293 2102 293 2120.5 287 c 128,-1,78
 2139 281 2139 281 2151.5 270.5 c 128,-1,79
 2164 260 2164 260 2164 236 c 0,80,81
 2164 174 2164 174 2131.5 129 c 128,-1,82
 2099 84 2099 84 2036 55.5 c 128,-1,83
 1973 27 1973 27 1880 13.5 c 128,-1,84
 1787 0 1787 0 1667 0 c 0,85,86
 1545 0 1545 0 1451 13.5 c 128,-1,87
 1357 27 1357 27 1293.5 55.5 c 128,-1,88
 1230 84 1230 84 1197.5 129 c 128,-1,89
 1165 174 1165 174 1165 236 c 0,90,91
 1165 260 1165 260 1177 270.5 c 128,-1,92
 1189 281 1189 281 1206.5 287 c 128,-1,93
 1224 293 1224 293 1245 298 c 128,-1,94
 1266 303 1266 303 1283.5 316 c 128,-1,95
 1301 329 1301 329 1313 353.5 c 128,-1,96
 1325 378 1325 378 1325 424 c 2,97,-1
 1325 729 l 1,0,-1
EndSplineSet
EndChar

StartChar: C
Encoding: 67 67 6
Width: 1554
Flags: W
HStem: -25 392<772.5 1142.76> 1376 244<858.226 1053.19>
VStem: 33 721<627.599 1088.02>
LayerCount: 2
Fore
SplineSet
838 -25 m 0,0,1
 707 -25 707 -25 597 4.5 c 128,-1,2
 487 34 487 34 397.5 87 c 128,-1,3
 308 140 308 140 240 213 c 128,-1,4
 172 286 172 286 126 373 c 128,-1,5
 80 460 80 460 56.5 557.5 c 128,-1,6
 33 655 33 655 33 758 c 0,7,8
 33 876 33 876 53 985.5 c 128,-1,9
 73 1095 73 1095 117 1191 c 128,-1,10
 161 1287 161 1287 231 1366 c 128,-1,11
 301 1445 301 1445 401 1501.5 c 128,-1,12
 501 1558 501 1558 632.5 1589 c 128,-1,13
 764 1620 764 1620 932 1620 c 0,14,15
 1043 1620 1043 1620 1143 1590 c 128,-1,16
 1243 1560 1243 1560 1318.5 1504.5 c 128,-1,17
 1394 1449 1394 1449 1438.5 1369.5 c 128,-1,18
 1483 1290 1483 1290 1483 1192 c 0,19,20
 1483 1152 1483 1152 1470.5 1120 c 128,-1,21
 1458 1088 1458 1088 1435.5 1066 c 128,-1,22
 1413 1044 1413 1044 1382.5 1032 c 128,-1,23
 1352 1020 1352 1020 1317 1020 c 0,24,25
 1286 1020 1286 1020 1255 1030 c 128,-1,26
 1224 1040 1224 1040 1196 1063.5 c 128,-1,27
 1168 1087 1168 1087 1145.5 1124.5 c 128,-1,28
 1123 1162 1123 1162 1110 1217 c 0,29,30
 1092 1295 1092 1295 1049 1335.5 c 128,-1,31
 1006 1376 1006 1376 957 1376 c 0,32,33
 920 1376 920 1376 883.5 1353 c 128,-1,34
 847 1330 847 1330 818.5 1282.5 c 128,-1,35
 790 1235 790 1235 772 1162 c 128,-1,36
 754 1089 754 1089 754 989 c 0,37,38
 754 857 754 857 769 759.5 c 128,-1,39
 784 662 784 662 810.5 593 c 128,-1,40
 837 524 837 524 872.5 480 c 128,-1,41
 908 436 908 436 949 411 c 128,-1,42
 990 386 990 386 1034 376.5 c 128,-1,43
 1078 367 1078 367 1122 367 c 0,44,45
 1167 367 1167 367 1210 377.5 c 128,-1,46
 1253 388 1253 388 1288.5 403.5 c 128,-1,47
 1324 419 1324 419 1349.5 436.5 c 128,-1,48
 1375 454 1375 454 1387 469 c 0,49,50
 1402 489 1402 489 1419.5 498.5 c 128,-1,51
 1437 508 1437 508 1452 508 c 0,52,53
 1480 508 1480 508 1500 479 c 128,-1,54
 1520 450 1520 450 1520 399 c 0,55,56
 1520 319 1520 319 1470.5 243 c 128,-1,57
 1421 167 1421 167 1331 107.5 c 128,-1,58
 1241 48 1241 48 1115.5 11.5 c 128,-1,59
 990 -25 990 -25 838 -25 c 0,0,1
EndSplineSet
EndChar

StartChar: P
Encoding: 80 80 7
Width: 1878
Flags: W
HStem: 0 21G<475 656> 571 183<878.097 1118.5> 1399 194<894.509 1096.41>
VStem: 202 676<312.222 575 756.538 1281.37> 1161 698<905.383 1271.67>
LayerCount: 2
Fore
SplineSet
1022 754 m 0,0,1
 1068 754 1068 754 1096 776 c 128,-1,2
 1124 798 1124 798 1138 832 c 128,-1,3
 1152 866 1152 866 1156.5 908 c 128,-1,4
 1161 950 1161 950 1161 989 c 0,5,6
 1161 1015 1161 1015 1160 1037 c 128,-1,7
 1159 1059 1159 1059 1159 1077 c 0,8,9
 1159 1134 1159 1134 1154.5 1191.5 c 128,-1,10
 1150 1249 1150 1249 1132.5 1295 c 128,-1,11
 1115 1341 1115 1341 1080 1370 c 128,-1,12
 1045 1399 1045 1399 985 1399 c 0,13,14
 947 1399 947 1399 925.5 1386.5 c 128,-1,15
 904 1374 904 1374 893.5 1352 c 128,-1,16
 883 1330 883 1330 880.5 1301.5 c 128,-1,17
 878 1273 878 1273 878 1240 c 2,18,-1
 878 764 l 1,19,20
 881 761 881 761 897 759 c 0,21,22
 911 757 911 757 939.5 755.5 c 128,-1,23
 968 754 968 754 1022 754 c 0,0,1
1116 1593 m 2,24,25
 1304 1593 1304 1593 1443.5 1549.5 c 128,-1,26
 1583 1506 1583 1506 1675.5 1435.5 c 128,-1,27
 1768 1365 1768 1365 1813.5 1274.5 c 128,-1,28
 1859 1184 1859 1184 1859 1090 c 0,29,30
 1859 993 1859 993 1811.5 899.5 c 128,-1,31
 1764 806 1764 806 1670.5 733 c 128,-1,32
 1577 660 1577 660 1438 615.5 c 128,-1,33
 1299 571 1299 571 1116 571 c 0,34,35
 1100 571 1100 571 1066 571.5 c 128,-1,36
 1032 572 1032 572 994.5 572.5 c 128,-1,37
 957 573 957 573 923 573.5 c 128,-1,38
 889 574 889 574 874 575 c 1,39,-1
 874 424 l 2,40,41
 874 379 874 379 886 354 c 128,-1,42
 898 329 898 329 916 316 c 128,-1,43
 934 303 934 303 955 298 c 128,-1,44
 976 293 976 293 994 287 c 128,-1,45
 1012 281 1012 281 1024 270.5 c 128,-1,46
 1036 260 1036 260 1036 236 c 0,47,48
 1036 111 1036 111 907 55.5 c 128,-1,49
 778 0 778 0 534 0 c 0,50,51
 416 0 416 0 324.5 13.5 c 128,-1,52
 233 27 233 27 170.5 55.5 c 128,-1,53
 108 84 108 84 75.5 129 c 128,-1,54
 43 174 43 174 43 236 c 0,55,56
 43 260 43 260 55 270.5 c 128,-1,57
 67 281 67 281 84.5 286.5 c 128,-1,58
 102 292 102 292 122.5 297 c 128,-1,59
 143 302 143 302 160.5 314.5 c 128,-1,60
 178 327 178 327 190 351 c 128,-1,61
 202 375 202 375 202 420 c 2,62,-1
 202 1174 l 2,63,64
 202 1218 202 1218 190 1242.5 c 128,-1,65
 178 1267 178 1267 160.5 1279.5 c 128,-1,66
 143 1292 143 1292 122.5 1297 c 128,-1,67
 102 1302 102 1302 84.5 1307.5 c 128,-1,68
 67 1313 67 1313 55 1323.5 c 128,-1,69
 43 1334 43 1334 43 1358 c 0,70,71
 43 1419 43 1419 74.5 1463.5 c 128,-1,72
 106 1508 106 1508 167 1537 c 128,-1,73
 228 1566 228 1566 317 1579.5 c 128,-1,74
 406 1593 406 1593 521 1593 c 2,75,-1
 534 1593 l 1,76,-1
 1116 1593 l 2,24,25
EndSplineSet
EndChar

StartChar: G
Encoding: 71 71 8
Width: 1720
Flags: W
HStem: -25 353<921.563 1096.87> 1372 248<885.976 1116.13>
VStem: 33 721<593.034 1058.21> 916 772<566.892 775.506> 1098 496<331.394 512.256>
LayerCount: 2
Fore
SplineSet
1594 420 m 0,0,1
 1594 347 1594 347 1569 286 c 128,-1,2
 1544 225 1544 225 1499.5 175.5 c 128,-1,3
 1455 126 1455 126 1393 88.5 c 128,-1,4
 1331 51 1331 51 1257.5 26 c 128,-1,5
 1184 1 1184 1 1101 -12 c 128,-1,6
 1018 -25 1018 -25 932 -25 c 0,7,8
 826 -25 826 -25 717.5 -5 c 128,-1,9
 609 15 609 15 509.5 56.5 c 128,-1,10
 410 98 410 98 323 161.5 c 128,-1,11
 236 225 236 225 171.5 312 c 128,-1,12
 107 399 107 399 70 510 c 128,-1,13
 33 621 33 621 33 758 c 0,14,15
 33 911 33 911 70 1034.5 c 128,-1,16
 107 1158 107 1158 171 1253.5 c 128,-1,17
 235 1349 235 1349 322 1418.5 c 128,-1,18
 409 1488 409 1488 508 1532.5 c 128,-1,19
 607 1577 607 1577 714 1598.5 c 128,-1,20
 821 1620 821 1620 926 1620 c 0,21,22
 1052 1620 1052 1620 1167.5 1590.5 c 128,-1,23
 1283 1561 1283 1561 1371.5 1505.5 c 128,-1,24
 1460 1450 1460 1450 1512.5 1369.5 c 128,-1,25
 1565 1289 1565 1289 1565 1188 c 0,26,27
 1565 1148 1565 1148 1552.5 1116 c 128,-1,28
 1540 1084 1540 1084 1517.5 1062 c 128,-1,29
 1495 1040 1495 1040 1464.5 1028 c 128,-1,30
 1434 1016 1434 1016 1399 1016 c 0,31,32
 1368 1016 1368 1016 1337 1026 c 128,-1,33
 1306 1036 1306 1036 1278 1059.5 c 128,-1,34
 1250 1083 1250 1083 1228 1120.5 c 128,-1,35
 1206 1158 1206 1158 1193 1212 c 0,36,37
 1184 1251 1184 1251 1161.5 1281 c 128,-1,38
 1139 1311 1139 1311 1110.5 1331.5 c 128,-1,39
 1082 1352 1082 1352 1052 1362 c 128,-1,40
 1022 1372 1022 1372 998 1372 c 0,41,42
 961 1372 961 1372 918 1349 c 128,-1,43
 875 1326 875 1326 838.5 1278.5 c 128,-1,44
 802 1231 802 1231 778 1158 c 128,-1,45
 754 1085 754 1085 754 985 c 0,46,47
 754 853 754 853 767.5 752.5 c 128,-1,48
 781 652 781 652 803 579 c 128,-1,49
 825 506 825 506 853.5 457.5 c 128,-1,50
 882 409 882 409 912.5 380.5 c 128,-1,51
 943 352 943 352 973 340 c 128,-1,52
 1003 328 1003 328 1028 328 c 0,53,54
 1059 328 1059 328 1078.5 342 c 128,-1,55
 1098 356 1098 356 1098 375 c 0,56,57
 1098 433 1098 433 1084.5 465 c 128,-1,58
 1071 497 1071 497 1051 514.5 c 128,-1,59
 1031 532 1031 532 1007 539.5 c 128,-1,60
 983 547 983 547 963 556.5 c 128,-1,61
 943 566 943 566 929.5 583 c 128,-1,62
 916 600 916 600 916 635 c 0,63,64
 916 713 916 713 948.5 760 c 128,-1,65
 981 807 981 807 1034 832 c 128,-1,66
 1087 857 1087 857 1155 864.5 c 128,-1,67
 1223 872 1223 872 1295 872 c 0,68,69
 1412 872 1412 872 1488 860.5 c 128,-1,70
 1564 849 1564 849 1608.5 828.5 c 128,-1,71
 1653 808 1653 808 1670.5 780 c 128,-1,72
 1688 752 1688 752 1688 719 c 0,73,74
 1688 670 1688 670 1681 641.5 c 128,-1,75
 1674 613 1674 613 1663.5 595 c 128,-1,76
 1653 577 1653 577 1641 564.5 c 128,-1,77
 1629 552 1629 552 1618.5 535.5 c 128,-1,78
 1608 519 1608 519 1601 492.5 c 128,-1,79
 1594 466 1594 466 1594 420 c 0,0,1
EndSplineSet
EndChar

StartChar: L
Encoding: 76 76 9
Width: 1540
Flags: W
HStem: 0 216<896.955 1087> 1573 20G<473 593>
VStem: 200 672<312.829 1280.27>
LayerCount: 2
Fore
SplineSet
872 360 m 2,0,1
 872 314 872 314 883.5 286 c 128,-1,2
 895 258 895 258 912.5 242.5 c 128,-1,3
 930 227 930 227 951 221.5 c 128,-1,4
 972 216 972 216 990 216 c 0,5,6
 992 216 992 216 995 216.5 c 128,-1,7
 998 217 998 217 1007.5 217.5 c 128,-1,8
 1017 218 1017 218 1035.5 220 c 128,-1,9
 1054 222 1054 222 1087 225 c 1,10,-1
 1128 399 l 1,11,12
 1145 456 1145 456 1169 495.5 c 128,-1,13
 1193 535 1193 535 1221.5 559.5 c 128,-1,14
 1250 584 1250 584 1281.5 595 c 128,-1,15
 1313 606 1313 606 1345 606 c 0,16,17
 1383 606 1383 606 1415 593.5 c 128,-1,18
 1447 581 1447 581 1470 557.5 c 128,-1,19
 1493 534 1493 534 1506 500 c 128,-1,20
 1519 466 1519 466 1519 424 c 0,21,22
 1519 383 1519 383 1511 335 c 128,-1,23
 1503 287 1503 287 1486 240 c 128,-1,24
 1469 193 1469 193 1444 149.5 c 128,-1,25
 1419 106 1419 106 1385.5 73 c 128,-1,26
 1352 40 1352 40 1309.5 20 c 128,-1,27
 1267 0 1267 0 1216 0 c 2,28,-1
 532 0 l 2,29,30
 414 0 414 0 322.5 13.5 c 128,-1,31
 231 27 231 27 168.5 55.5 c 128,-1,32
 106 84 106 84 73.5 129 c 128,-1,33
 41 174 41 174 41 236 c 0,34,35
 41 260 41 260 53 270.5 c 128,-1,36
 65 281 65 281 82.5 286.5 c 128,-1,37
 100 292 100 292 120.5 297 c 128,-1,38
 141 302 141 302 158.5 314.5 c 128,-1,39
 176 327 176 327 188 351 c 128,-1,40
 200 375 200 375 200 420 c 2,41,-1
 200 1174 l 2,42,43
 200 1218 200 1218 188 1242.5 c 128,-1,44
 176 1267 176 1267 158.5 1279.5 c 128,-1,45
 141 1292 141 1292 120.5 1297 c 128,-1,46
 100 1302 100 1302 82.5 1307.5 c 128,-1,47
 65 1313 65 1313 53 1323.5 c 128,-1,48
 41 1334 41 1334 41 1358 c 0,49,50
 41 1420 41 1420 73.5 1464.5 c 128,-1,51
 106 1509 106 1509 168.5 1537.5 c 128,-1,52
 231 1566 231 1566 322.5 1579.5 c 128,-1,53
 414 1593 414 1593 532 1593 c 0,54,55
 654 1593 654 1593 748 1579.5 c 128,-1,56
 842 1566 842 1566 905.5 1537.5 c 128,-1,57
 969 1509 969 1509 1001.5 1464.5 c 128,-1,58
 1034 1420 1034 1420 1034 1358 c 0,59,60
 1034 1334 1034 1334 1022 1323.5 c 128,-1,61
 1010 1313 1010 1313 992.5 1307.5 c 128,-1,62
 975 1302 975 1302 954 1297 c 128,-1,63
 933 1292 933 1292 915.5 1279.5 c 128,-1,64
 898 1267 898 1267 886 1242.5 c 128,-1,65
 874 1218 874 1218 874 1174 c 2,66,-1
 872 360 l 2,0,1
EndSplineSet
EndChar

StartChar: F
Encoding: 70 70 10
Width: 1660
Flags: W
HStem: 0 21G<474 592> 557 551<1040.88 1251.15> 1384 209<863 1270>
VStem: 201 662<312.593 752 913 1281.78> 1270 371<1114.12 1383.49>
LayerCount: 2
Fore
SplineSet
967 924 m 1,0,1
 987 964 987 964 1003 998 c 128,-1,2
 1019 1032 1019 1032 1036 1056.5 c 128,-1,3
 1053 1081 1053 1081 1075 1094.5 c 128,-1,4
 1097 1108 1097 1108 1129 1108 c 0,5,6
 1183 1108 1183 1108 1222.5 1084.5 c 128,-1,7
 1262 1061 1262 1061 1287 1023 c 128,-1,8
 1312 985 1312 985 1324 935.5 c 128,-1,9
 1336 886 1336 886 1336 834 c 0,10,11
 1336 781 1336 781 1324 731 c 128,-1,12
 1312 681 1312 681 1287 642.5 c 128,-1,13
 1262 604 1262 604 1222.5 580.5 c 128,-1,14
 1183 557 1183 557 1129 557 c 0,15,16
 1097 557 1097 557 1075 570.5 c 128,-1,17
 1053 584 1053 584 1036 608.5 c 128,-1,18
 1019 633 1019 633 1003 666.5 c 128,-1,19
 987 700 987 700 967 741 c 1,20,-1
 863 752 l 1,21,-1
 863 420 l 2,22,23
 863 376 863 376 875 351.5 c 128,-1,24
 887 327 887 327 905 314.5 c 128,-1,25
 923 302 923 302 944 297 c 128,-1,26
 965 292 965 292 983 286.5 c 128,-1,27
 1001 281 1001 281 1013 270.5 c 128,-1,28
 1025 260 1025 260 1025 236 c 0,29,30
 1025 174 1025 174 992.5 129 c 128,-1,31
 960 84 960 84 897 55.5 c 128,-1,32
 834 27 834 27 742.5 13.5 c 128,-1,33
 651 0 651 0 533 0 c 256,34,35
 415 0 415 0 323.5 13.5 c 128,-1,36
 232 27 232 27 169.5 55.5 c 128,-1,37
 107 84 107 84 74.5 129 c 128,-1,38
 42 174 42 174 42 236 c 0,39,40
 42 260 42 260 54 270.5 c 128,-1,41
 66 281 66 281 83.5 286.5 c 128,-1,42
 101 292 101 292 121.5 297 c 128,-1,43
 142 302 142 302 159.5 314.5 c 128,-1,44
 177 327 177 327 189 351 c 128,-1,45
 201 375 201 375 201 420 c 2,46,-1
 201 1174 l 2,47,48
 201 1218 201 1218 189 1242.5 c 128,-1,49
 177 1267 177 1267 159.5 1279.5 c 128,-1,50
 142 1292 142 1292 121.5 1297 c 128,-1,51
 101 1302 101 1302 83.5 1307.5 c 128,-1,52
 66 1313 66 1313 54 1323.5 c 128,-1,53
 42 1334 42 1334 42 1358 c 0,54,55
 42 1420 42 1420 74.5 1464.5 c 128,-1,56
 107 1509 107 1509 169.5 1537.5 c 128,-1,57
 232 1566 232 1566 323.5 1579.5 c 128,-1,58
 415 1593 415 1593 533 1593 c 2,59,-1
 1354 1593 l 2,60,61
 1427 1593 1427 1593 1481 1553 c 128,-1,62
 1535 1513 1535 1513 1570.5 1452.5 c 128,-1,63
 1606 1392 1606 1392 1623.5 1322 c 128,-1,64
 1641 1252 1641 1252 1641 1192 c 0,65,66
 1641 1152 1641 1152 1628.5 1120 c 128,-1,67
 1616 1088 1616 1088 1593.5 1066 c 128,-1,68
 1571 1044 1571 1044 1540.5 1032 c 128,-1,69
 1510 1020 1510 1020 1475 1020 c 0,70,71
 1444 1020 1444 1020 1414 1030.5 c 128,-1,72
 1384 1041 1384 1041 1357 1064.5 c 128,-1,73
 1330 1088 1330 1088 1307.5 1125.5 c 128,-1,74
 1285 1163 1285 1163 1270 1217 c 1,75,-1
 1270 1384 l 1,76,-1
 863 1384 l 1,77,-1
 863 913 l 1,78,-1
 967 924 l 1,0,1
EndSplineSet
EndChar

StartChar: T
Encoding: 84 84 11
Width: 1776
Flags: W
HStem: 0 21G<825 1006> 1378 215<440 552 1224 1337>
VStem: 552 672<314.111 1378>
LayerCount: 2
Fore
SplineSet
1224 424 m 2,0,1
 1224 379 1224 379 1236 354 c 128,-1,2
 1248 329 1248 329 1266 316 c 128,-1,3
 1284 303 1284 303 1305 298 c 128,-1,4
 1326 293 1326 293 1344 287 c 128,-1,5
 1362 281 1362 281 1374 270.5 c 128,-1,6
 1386 260 1386 260 1386 236 c 0,7,8
 1386 111 1386 111 1257 55.5 c 128,-1,9
 1128 0 1128 0 884 0 c 0,10,11
 766 0 766 0 674.5 13.5 c 128,-1,12
 583 27 583 27 520.5 55.5 c 128,-1,13
 458 84 458 84 425.5 129 c 128,-1,14
 393 174 393 174 393 236 c 0,15,16
 393 260 393 260 405 270.5 c 128,-1,17
 417 281 417 281 434.5 286.5 c 128,-1,18
 452 292 452 292 472.5 297 c 128,-1,19
 493 302 493 302 510.5 314.5 c 128,-1,20
 528 327 528 327 540 351 c 128,-1,21
 552 375 552 375 552 420 c 2,22,-1
 552 1378 l 1,23,-1
 440 1374 l 1,24,-1
 401 1214 l 1,25,26
 385 1160 385 1160 362 1123 c 128,-1,27
 339 1086 339 1086 312 1062.5 c 128,-1,28
 285 1039 285 1039 255 1028.5 c 128,-1,29
 225 1018 225 1018 194 1018 c 0,30,31
 159 1018 159 1018 128.5 1030 c 128,-1,32
 98 1042 98 1042 75.5 1064 c 128,-1,33
 53 1086 53 1086 40.5 1118 c 128,-1,34
 28 1150 28 1150 28 1190 c 0,35,36
 28 1250 28 1250 45.5 1320.5 c 128,-1,37
 63 1391 63 1391 98.5 1451.5 c 128,-1,38
 134 1512 134 1512 188 1552.5 c 128,-1,39
 242 1593 242 1593 315 1593 c 2,40,-1
 1462 1593 l 2,41,42
 1535 1593 1535 1593 1588.5 1553 c 128,-1,43
 1642 1513 1642 1513 1677.5 1452.5 c 128,-1,44
 1713 1392 1713 1392 1730.5 1322 c 128,-1,45
 1748 1252 1748 1252 1748 1192 c 0,46,47
 1748 1152 1748 1152 1735.5 1120 c 128,-1,48
 1723 1088 1723 1088 1701 1066 c 128,-1,49
 1679 1044 1679 1044 1648.5 1032 c 128,-1,50
 1618 1020 1618 1020 1583 1020 c 0,51,52
 1552 1020 1552 1020 1521 1030 c 128,-1,53
 1490 1040 1490 1040 1462 1063.5 c 128,-1,54
 1434 1087 1434 1087 1411.5 1124.5 c 128,-1,55
 1389 1162 1389 1162 1376 1217 c 2,56,-1
 1337 1376 l 1,57,-1
 1224 1380 l 1,58,-1
 1224 424 l 2,0,1
EndSplineSet
EndChar

StartChar: U
Encoding: 85 85 12
Width: 1882
Flags: W
HStem: -25 287<961.835 1301.71> 1573 20G<465 585 1524.5 1572.5>
VStem: 192 674<355.885 1281.74> 1237 612<1323.83 1484.48> 1397 292<358.29 1281.12>
LayerCount: 2
Fore
SplineSet
1689 516 m 2,0,1
 1689 419 1689 419 1663 341 c 128,-1,2
 1637 263 1637 263 1590 202.5 c 128,-1,3
 1543 142 1543 142 1477.5 99 c 128,-1,4
 1412 56 1412 56 1334 28.5 c 128,-1,5
 1256 1 1256 1 1168 -12 c 128,-1,6
 1080 -25 1080 -25 987 -25 c 0,7,8
 876 -25 876 -25 774 -12 c 128,-1,9
 672 1 672 1 583.5 29 c 128,-1,10
 495 57 495 57 423 100 c 128,-1,11
 351 143 351 143 299.5 204 c 128,-1,12
 248 265 248 265 220 343.5 c 128,-1,13
 192 422 192 422 192 520 c 2,14,-1
 192 1174 l 2,15,16
 192 1218 192 1218 180 1242.5 c 128,-1,17
 168 1267 168 1267 150.5 1279.5 c 128,-1,18
 133 1292 133 1292 112.5 1297 c 128,-1,19
 92 1302 92 1302 74.5 1307.5 c 128,-1,20
 57 1313 57 1313 45 1323.5 c 128,-1,21
 33 1334 33 1334 33 1358 c 0,22,23
 33 1420 33 1420 65.5 1464.5 c 128,-1,24
 98 1509 98 1509 160.5 1537.5 c 128,-1,25
 223 1566 223 1566 314.5 1579.5 c 128,-1,26
 406 1593 406 1593 524 1593 c 0,27,28
 646 1593 646 1593 740 1579.5 c 128,-1,29
 834 1566 834 1566 897.5 1537.5 c 128,-1,30
 961 1509 961 1509 993.5 1464.5 c 128,-1,31
 1026 1420 1026 1420 1026 1358 c 0,32,33
 1026 1334 1026 1334 1014 1323.5 c 128,-1,34
 1002 1313 1002 1313 984.5 1307.5 c 128,-1,35
 967 1302 967 1302 946 1297.5 c 128,-1,36
 925 1293 925 1293 907.5 1281 c 128,-1,37
 890 1269 890 1269 878 1244.5 c 128,-1,38
 866 1220 866 1220 866 1176 c 2,39,-1
 866 520 l 2,40,41
 866 450 866 450 886 401 c 128,-1,42
 906 352 906 352 942 321 c 128,-1,43
 978 290 978 290 1027.5 276 c 128,-1,44
 1077 262 1077 262 1136 262 c 0,45,46
 1191 262 1191 262 1238.5 276.5 c 128,-1,47
 1286 291 1286 291 1321 322 c 128,-1,48
 1356 353 1356 353 1376.5 402 c 128,-1,49
 1397 451 1397 451 1397 520 c 2,50,-1
 1397 1174 l 2,51,52
 1397 1218 1397 1218 1385 1242.5 c 128,-1,53
 1373 1267 1373 1267 1355.5 1279.5 c 128,-1,54
 1338 1292 1338 1292 1317 1297 c 128,-1,55
 1296 1302 1296 1302 1278.5 1307.5 c 128,-1,56
 1261 1313 1261 1313 1249 1323.5 c 128,-1,57
 1237 1334 1237 1334 1237 1358 c 0,58,59
 1237 1420 1237 1420 1267 1464.5 c 128,-1,60
 1297 1509 1297 1509 1343 1537.5 c 128,-1,61
 1389 1566 1389 1566 1444 1579.5 c 128,-1,62
 1499 1593 1499 1593 1550 1593 c 0,63,64
 1595 1593 1595 1593 1647.5 1579.5 c 128,-1,65
 1700 1566 1700 1566 1745 1537.5 c 128,-1,66
 1790 1509 1790 1509 1819.5 1464.5 c 128,-1,67
 1849 1420 1849 1420 1849 1358 c 0,68,69
 1849 1334 1849 1334 1837 1323.5 c 128,-1,70
 1825 1313 1825 1313 1807 1307 c 128,-1,71
 1789 1301 1789 1301 1768 1296 c 128,-1,72
 1747 1291 1747 1291 1729 1278 c 128,-1,73
 1711 1265 1711 1265 1699 1240 c 128,-1,74
 1687 1215 1687 1215 1687 1169 c 2,75,-1
 1689 516 l 2,0,1
EndSplineSet
EndChar

StartChar: Q
Encoding: 81 81 13
Width: 1841
Flags: W
HStem: 1354 266<793.613 980.458>
VStem: 23 721<470.233 1135.93> 1075 727<478.838 1147.68>
LayerCount: 2
Fore
SplineSet
1802 848 m 0,0,1
 1802 725 1802 725 1785.5 607 c 128,-1,2
 1769 489 1769 489 1723.5 385.5 c 128,-1,3
 1678 282 1678 282 1596 198 c 128,-1,4
 1514 114 1514 114 1383 59 c 1,5,-1
 1569 -66 l 2,6,7
 1607 -91 1607 -91 1647 -96.5 c 128,-1,8
 1687 -102 1687 -102 1718 -102 c 0,9,10
 1744 -102 1744 -102 1761 -99 c 0,11,12
 1771 -98 1771 -98 1778 -96 c 1,13,14
 1786 -113 1786 -113 1790 -130 c 128,-1,15
 1794 -147 1794 -147 1794 -164 c 0,16,17
 1794 -196 1794 -196 1776 -227.5 c 128,-1,18
 1758 -259 1758 -259 1720 -292 c 128,-1,19
 1682 -325 1682 -325 1624 -359.5 c 128,-1,20
 1566 -394 1566 -394 1485 -432 c 1,21,22
 1447 -451 1447 -451 1413 -459 c 128,-1,23
 1379 -467 1379 -467 1348 -467 c 0,24,25
 1308 -467 1308 -467 1273 -454 c 128,-1,26
 1238 -441 1238 -441 1206 -421.5 c 128,-1,27
 1174 -402 1174 -402 1144.5 -378 c 128,-1,28
 1115 -354 1115 -354 1085 -331 c 1,29,-1
 727 -16 l 1,30,31
 602 -3 602 -3 501 33.5 c 128,-1,32
 400 70 400 70 321.5 124.5 c 128,-1,33
 243 179 243 179 186.5 249.5 c 128,-1,34
 130 320 130 320 94 401.5 c 128,-1,35
 58 483 58 483 40.5 573.5 c 128,-1,36
 23 664 23 664 23 758 c 0,37,38
 23 876 23 876 36.5 985.5 c 128,-1,39
 50 1095 50 1095 86.5 1191 c 128,-1,40
 123 1287 123 1287 188 1366 c 128,-1,41
 253 1445 253 1445 356.5 1501.5 c 128,-1,42
 460 1558 460 1558 607 1589 c 128,-1,43
 754 1620 754 1620 955 1620 c 0,44,45
 1117 1620 1117 1620 1243 1590.5 c 128,-1,46
 1369 1561 1369 1561 1463 1508 c 128,-1,47
 1557 1455 1557 1455 1622 1382.5 c 128,-1,48
 1687 1310 1687 1310 1727 1224.5 c 128,-1,49
 1767 1139 1767 1139 1784.5 1043 c 128,-1,50
 1802 947 1802 947 1802 848 c 0,0,1
928 238 m 0,51,52
 973 238 973 238 1001.5 263 c 128,-1,53
 1030 288 1030 288 1046.5 335 c 128,-1,54
 1063 382 1063 382 1069 450 c 128,-1,55
 1075 518 1075 518 1075 604 c 2,56,-1
 1075 653 l 2,57,58
 1075 729 1075 729 1074 810.5 c 128,-1,59
 1073 892 1073 892 1068 969.5 c 128,-1,60
 1063 1047 1063 1047 1051.5 1117 c 128,-1,61
 1040 1187 1040 1187 1020 1239.5 c 128,-1,62
 1000 1292 1000 1292 968.5 1323 c 128,-1,63
 937 1354 937 1354 891 1354 c 0,64,65
 844 1354 844 1354 815 1332.5 c 128,-1,66
 786 1311 786 1311 770.5 1269.5 c 128,-1,67
 755 1228 755 1228 749.5 1167 c 128,-1,68
 744 1106 744 1106 744 1026 c 0,69,70
 744 953 744 953 745 866 c 128,-1,71
 746 779 746 779 751 691.5 c 128,-1,72
 756 604 756 604 767 522 c 128,-1,73
 778 440 778 440 798.5 377 c 128,-1,74
 819 314 819 314 850.5 276 c 128,-1,75
 882 238 882 238 928 238 c 0,51,52
EndSplineSet
EndChar

StartChar: R
Encoding: 82 82 14
Width: 2102
Flags: W
HStem: 0 21G<475 656 1488 1601.5> 629 155<876.979 995> 1399 194<901.368 1119.35>
VStem: 202 674<312.222 633 786.08 1281.78> 1187 727<919.397 1318.45>
LayerCount: 2
Fore
SplineSet
1810 414 m 2,0,1
 1838 372 1838 372 1868 348.5 c 128,-1,2
 1898 325 1898 325 1926.5 313 c 128,-1,3
 1955 301 1955 301 1980.5 295.5 c 128,-1,4
 2006 290 2006 290 2025.5 285 c 128,-1,5
 2045 280 2045 280 2056.5 270.5 c 128,-1,6
 2068 261 2068 261 2068 240 c 0,7,8
 2068 169 2068 169 2042 122.5 c 128,-1,9
 2016 76 2016 76 1953 49 c 128,-1,10
 1890 22 1890 22 1785 11 c 128,-1,11
 1680 0 1680 0 1523 0 c 0,12,13
 1453 0 1453 0 1399.5 14 c 128,-1,14
 1346 28 1346 28 1305 53 c 128,-1,15
 1264 78 1264 78 1232.5 111.5 c 128,-1,16
 1201 145 1201 145 1177 184 c 128,-1,17
 1153 223 1153 223 1133 265.5 c 128,-1,18
 1113 308 1113 308 1095 351 c 1,19,-1
 995 629 l 1,20,-1
 983 629 l 2,21,22
 951 629 951 629 928.5 630 c 128,-1,23
 906 631 906 631 874 633 c 1,24,-1
 874 418 l 2,25,26
 874 375 874 375 886 351 c 128,-1,27
 898 327 898 327 916 315 c 128,-1,28
 934 303 934 303 955 298 c 128,-1,29
 976 293 976 293 994 287 c 128,-1,30
 1012 281 1012 281 1024 270.5 c 128,-1,31
 1036 260 1036 260 1036 236 c 0,32,33
 1036 111 1036 111 907 55.5 c 128,-1,34
 778 0 778 0 534 0 c 0,35,36
 416 0 416 0 324.5 13.5 c 128,-1,37
 233 27 233 27 170.5 55.5 c 128,-1,38
 108 84 108 84 75.5 129 c 128,-1,39
 43 174 43 174 43 236 c 0,40,41
 43 260 43 260 55 270.5 c 128,-1,42
 67 281 67 281 84.5 286.5 c 128,-1,43
 102 292 102 292 122.5 297 c 128,-1,44
 143 302 143 302 160.5 314.5 c 128,-1,45
 178 327 178 327 190 351 c 128,-1,46
 202 375 202 375 202 420 c 2,47,-1
 202 1174 l 2,48,49
 202 1218 202 1218 190 1242.5 c 128,-1,50
 178 1267 178 1267 160.5 1279.5 c 128,-1,51
 143 1292 143 1292 122.5 1297 c 128,-1,52
 102 1302 102 1302 84.5 1307.5 c 128,-1,53
 67 1313 67 1313 55 1323.5 c 128,-1,54
 43 1334 43 1334 43 1358 c 0,55,56
 43 1420 43 1420 77 1464.5 c 128,-1,57
 111 1509 111 1509 175.5 1537.5 c 128,-1,58
 240 1566 240 1566 333 1579.5 c 128,-1,59
 426 1593 426 1593 544 1593 c 2,60,-1
 1085 1593 l 2,61,62
 1244 1593 1244 1593 1367 1576 c 128,-1,63
 1490 1559 1490 1559 1582 1528.5 c 128,-1,64
 1674 1498 1674 1498 1737.5 1455.5 c 128,-1,65
 1801 1413 1801 1413 1840 1362.5 c 128,-1,66
 1879 1312 1879 1312 1896.5 1255.5 c 128,-1,67
 1914 1199 1914 1199 1914 1139 c 0,68,69
 1914 1074 1914 1074 1901.5 1012 c 128,-1,70
 1889 950 1889 950 1855.5 895 c 128,-1,71
 1822 840 1822 840 1763.5 793.5 c 128,-1,72
 1705 747 1705 747 1613 713 c 1,73,-1
 1810 414 l 2,0,1
1011 784 m 0,74,75
 1101 784 1101 784 1144 842 c 128,-1,76
 1187 900 1187 900 1187 1004 c 2,77,-1
 1187 1034 l 2,78,79
 1187 1100 1187 1100 1184 1165.5 c 128,-1,80
 1181 1231 1181 1231 1163.5 1282.5 c 128,-1,81
 1146 1334 1146 1334 1109 1366.5 c 128,-1,82
 1072 1399 1072 1399 1003 1399 c 0,83,84
 961 1399 961 1399 935.5 1385 c 128,-1,85
 910 1371 910 1371 897 1347.5 c 128,-1,86
 884 1324 884 1324 880 1293.5 c 128,-1,87
 876 1263 876 1263 876 1229 c 2,88,-1
 876 795 l 1,89,90
 877 792 877 792 891 789 c 0,91,92
 903 787 903 787 930 785.5 c 128,-1,93
 957 784 957 784 1011 784 c 0,74,75
EndSplineSet
EndChar

StartChar: I
Encoding: 73 73 15
Width: 1069
Flags: W
HStem: 0 21G<470 651> 1573 20G<470 590>
VStem: 197 672<314.111 1280.27>
LayerCount: 2
Fore
SplineSet
869 424 m 2,0,1
 869 379 869 379 881 354 c 128,-1,2
 893 329 893 329 911 316 c 128,-1,3
 929 303 929 303 950 298 c 128,-1,4
 971 293 971 293 989 287 c 128,-1,5
 1007 281 1007 281 1019 270.5 c 128,-1,6
 1031 260 1031 260 1031 236 c 0,7,8
 1031 111 1031 111 902 55.5 c 128,-1,9
 773 0 773 0 529 0 c 0,10,11
 411 0 411 0 319.5 13.5 c 128,-1,12
 228 27 228 27 165.5 55.5 c 128,-1,13
 103 84 103 84 70.5 129 c 128,-1,14
 38 174 38 174 38 236 c 0,15,16
 38 260 38 260 50 270.5 c 128,-1,17
 62 281 62 281 79.5 286.5 c 128,-1,18
 97 292 97 292 117.5 297 c 128,-1,19
 138 302 138 302 155.5 314.5 c 128,-1,20
 173 327 173 327 185 351 c 128,-1,21
 197 375 197 375 197 420 c 2,22,-1
 197 1174 l 2,23,24
 197 1218 197 1218 185 1242.5 c 128,-1,25
 173 1267 173 1267 155.5 1279.5 c 128,-1,26
 138 1292 138 1292 117.5 1297 c 128,-1,27
 97 1302 97 1302 79.5 1307.5 c 128,-1,28
 62 1313 62 1313 50 1323.5 c 128,-1,29
 38 1334 38 1334 38 1358 c 0,30,31
 38 1420 38 1420 70.5 1464.5 c 128,-1,32
 103 1509 103 1509 165.5 1537.5 c 128,-1,33
 228 1566 228 1566 319.5 1579.5 c 128,-1,34
 411 1593 411 1593 529 1593 c 0,35,36
 651 1593 651 1593 745 1579.5 c 128,-1,37
 839 1566 839 1566 902.5 1537.5 c 128,-1,38
 966 1509 966 1509 998.5 1464.5 c 128,-1,39
 1031 1420 1031 1420 1031 1358 c 0,40,41
 1031 1334 1031 1334 1019 1323.5 c 128,-1,42
 1007 1313 1007 1313 989.5 1307.5 c 128,-1,43
 972 1302 972 1302 951 1297 c 128,-1,44
 930 1292 930 1292 912.5 1279.5 c 128,-1,45
 895 1267 895 1267 883 1242.5 c 128,-1,46
 871 1218 871 1218 871 1174 c 2,47,-1
 869 424 l 2,0,1
EndSplineSet
EndChar

StartChar: M
Encoding: 77 77 16
Width: 2189
Flags: W
HStem: 0 21G<326 381.5 1585 1766> 1573 20G<376 452 1644.5 1742>
VStem: 43 612<104.993 270.169> 202 291<314.111 838> 1312 672<314.111 836>
LayerCount: 2
Fore
SplineSet
493 838 m 1,0,-1
 493 424 l 2,1,2
 493 379 493 379 505 354 c 128,-1,3
 517 329 517 329 535 316 c 128,-1,4
 553 303 553 303 574 298 c 128,-1,5
 595 293 595 293 613 287 c 128,-1,6
 631 281 631 281 643 270.5 c 128,-1,7
 655 260 655 260 655 236 c 0,8,9
 655 174 655 174 627.5 129 c 128,-1,10
 600 84 600 84 557 55.5 c 128,-1,11
 514 27 514 27 460.5 13.5 c 128,-1,12
 407 0 407 0 356 0 c 0,13,14
 296 0 296 0 239.5 13.5 c 128,-1,15
 183 27 183 27 139.5 55.5 c 128,-1,16
 96 84 96 84 69.5 129 c 128,-1,17
 43 174 43 174 43 236 c 0,18,19
 43 260 43 260 55 270.5 c 128,-1,20
 67 281 67 281 84.5 286.5 c 128,-1,21
 102 292 102 292 122.5 297 c 128,-1,22
 143 302 143 302 160.5 314.5 c 128,-1,23
 178 327 178 327 190 351 c 128,-1,24
 202 375 202 375 202 420 c 2,25,-1
 202 1174 l 2,26,27
 202 1218 202 1218 190 1242.5 c 128,-1,28
 178 1267 178 1267 160.5 1279.5 c 128,-1,29
 143 1292 143 1292 122.5 1297 c 128,-1,30
 102 1302 102 1302 84.5 1307.5 c 128,-1,31
 67 1313 67 1313 55 1323.5 c 128,-1,32
 43 1334 43 1334 43 1358 c 0,33,34
 43 1420 43 1420 72 1464.5 c 128,-1,35
 101 1509 101 1509 151.5 1537.5 c 128,-1,36
 202 1566 202 1566 269.5 1579.5 c 128,-1,37
 337 1593 337 1593 415 1593 c 0,38,39
 489 1593 489 1593 539.5 1579 c 128,-1,40
 590 1565 590 1565 630 1534.5 c 128,-1,41
 670 1504 670 1504 705.5 1455 c 128,-1,42
 741 1406 741 1406 784 1337 c 2,43,-1
 1052 903 l 1,44,-1
 1294 1315 l 2,45,46
 1327 1372 1327 1372 1364.5 1422.5 c 128,-1,47
 1402 1473 1402 1473 1448 1511 c 128,-1,48
 1494 1549 1494 1549 1551 1571 c 128,-1,49
 1608 1593 1608 1593 1681 1593 c 0,50,51
 1803 1593 1803 1593 1891 1579.5 c 128,-1,52
 1979 1566 1979 1566 2035.5 1537.5 c 128,-1,53
 2092 1509 2092 1509 2119 1464.5 c 128,-1,54
 2146 1420 2146 1420 2146 1358 c 0,55,56
 2146 1334 2146 1334 2134 1323.5 c 128,-1,57
 2122 1313 2122 1313 2104 1307.5 c 128,-1,58
 2086 1302 2086 1302 2065 1297 c 128,-1,59
 2044 1292 2044 1292 2026 1279.5 c 128,-1,60
 2008 1267 2008 1267 1996 1242.5 c 128,-1,61
 1984 1218 1984 1218 1984 1174 c 2,62,-1
 1984 424 l 2,63,64
 1984 379 1984 379 1996 354 c 128,-1,65
 2008 329 2008 329 2026 316 c 128,-1,66
 2044 303 2044 303 2065 298 c 128,-1,67
 2086 293 2086 293 2104 287 c 128,-1,68
 2122 281 2122 281 2134 270.5 c 128,-1,69
 2146 260 2146 260 2146 236 c 0,70,71
 2146 111 2146 111 2017 55.5 c 128,-1,72
 1888 0 1888 0 1644 0 c 0,73,74
 1526 0 1526 0 1434.5 13.5 c 128,-1,75
 1343 27 1343 27 1280.5 55.5 c 128,-1,76
 1218 84 1218 84 1185.5 129 c 128,-1,77
 1153 174 1153 174 1153 236 c 0,78,79
 1153 260 1153 260 1165 270.5 c 128,-1,80
 1177 281 1177 281 1194.5 286.5 c 128,-1,81
 1212 292 1212 292 1232.5 297 c 128,-1,82
 1253 302 1253 302 1270.5 314.5 c 128,-1,83
 1288 327 1288 327 1300 351 c 128,-1,84
 1312 375 1312 375 1312 420 c 2,85,-1
 1312 836 l 1,86,-1
 954 236 l 1,87,88
 942 213 942 213 916 213 c 0,89,90
 893 213 893 213 876 236 c 1,91,-1
 493 838 l 1,0,-1
EndSplineSet
EndChar

StartChar: A
Encoding: 65 65 17
Width: 1856
Flags: W
HStem: 0 21G<289 362.5 1266 1447> 489 152<584 897> 1573 20G<897 1009.5>
VStem: 27 596<103.166 270.169>
DStem2: 233 424 532 489 0.280872 0.959745<10.9692 146.364 306.851 788.903 827.363 854.858>
LayerCount: 2
Fore
SplineSet
584 641 m 1,0,-1
 897 641 l 1,1,-1
 743 1223 l 1,2,-1
 584 641 l 1,0,-1
326 0 m 0,3,4
 252 0 252 0 196 19 c 128,-1,5
 140 38 140 38 102.5 70.5 c 128,-1,6
 65 103 65 103 46 145.5 c 128,-1,7
 27 188 27 188 27 236 c 0,8,9
 27 260 27 260 38 270.5 c 128,-1,10
 49 281 49 281 67 287 c 128,-1,11
 85 293 85 293 107.5 298 c 128,-1,12
 130 303 130 303 153 316 c 128,-1,13
 176 329 176 329 197 353.5 c 128,-1,14
 218 378 218 378 233 424 c 2,15,-1
 479 1174 l 2,16,17
 486 1195 486 1195 489.5 1211 c 128,-1,18
 493 1227 493 1227 493 1239 c 0,19,20
 493 1270 493 1270 476 1281 c 128,-1,21
 459 1292 459 1292 438.5 1298 c 128,-1,22
 418 1304 418 1304 401 1312.5 c 128,-1,23
 384 1321 384 1321 384 1347 c 0,24,25
 384 1354 384 1354 385 1358 c 0,26,27
 395 1427 395 1427 440 1472.5 c 128,-1,28
 485 1518 485 1518 559.5 1544.5 c 128,-1,29
 634 1571 634 1571 735 1582 c 128,-1,30
 836 1593 836 1593 958 1593 c 0,31,32
 1061 1593 1061 1593 1155.5 1585.5 c 128,-1,33
 1250 1578 1250 1578 1326 1553 c 128,-1,34
 1402 1528 1402 1528 1453 1482 c 128,-1,35
 1504 1436 1504 1436 1520 1358 c 0,36,37
 1522 1348 1522 1348 1522 1344 c 0,38,39
 1522 1327 1522 1327 1512.5 1318.5 c 128,-1,40
 1503 1310 1503 1310 1489 1305 c 128,-1,41
 1475 1300 1475 1300 1459 1296.5 c 128,-1,42
 1443 1293 1443 1293 1429 1286 c 128,-1,43
 1415 1279 1415 1279 1405.5 1265.5 c 128,-1,44
 1396 1252 1396 1252 1396 1228 c 0,45,46
 1396 1207 1396 1207 1405 1174 c 2,47,-1
 1626 424 l 2,48,49
 1639 379 1639 379 1659 354 c 128,-1,50
 1679 329 1679 329 1701.5 316 c 128,-1,51
 1724 303 1724 303 1746.5 298 c 128,-1,52
 1769 293 1769 293 1787 287 c 128,-1,53
 1805 281 1805 281 1816 270.5 c 128,-1,54
 1827 260 1827 260 1827 236 c 0,55,56
 1827 111 1827 111 1698 55.5 c 128,-1,57
 1569 0 1569 0 1325 0 c 0,58,59
 1207 0 1207 0 1115.5 13.5 c 128,-1,60
 1024 27 1024 27 961 55.5 c 128,-1,61
 898 84 898 84 865.5 129 c 128,-1,62
 833 174 833 174 833 236 c 0,63,64
 833 257 833 257 842.5 267.5 c 128,-1,65
 852 278 852 278 866 283.5 c 128,-1,66
 880 289 880 289 897 293 c 128,-1,67
 914 297 914 297 928 304.5 c 128,-1,68
 942 312 942 312 951.5 326.5 c 128,-1,69
 961 341 961 341 961 368 c 0,70,71
 961 391 961 391 954 420 c 2,72,-1
 938 489 l 1,73,-1
 532 489 l 1,74,-1
 508 420 l 2,75,76
 495 382 495 382 495 358 c 0,77,78
 495 335 495 335 504.5 322.5 c 128,-1,79
 514 310 514 310 528 303.5 c 128,-1,80
 542 297 542 297 559 293 c 128,-1,81
 576 289 576 289 590 283.5 c 128,-1,82
 604 278 604 278 613.5 267 c 128,-1,83
 623 256 623 256 623 236 c 0,84,85
 623 188 623 188 604 145.5 c 128,-1,86
 585 103 585 103 547.5 70.5 c 128,-1,87
 510 38 510 38 454.5 19 c 128,-1,88
 399 0 399 0 326 0 c 0,3,4
EndSplineSet
EndChar

StartChar: O
Encoding: 79 79 18
Width: 1852
Flags: W
HStem: -25 263<859.614 1032.42> 1354 266<806.613 993.468>
VStem: 36 721<470.233 1135.93> 1089 727<477.472 1147.68>
LayerCount: 2
Fore
SplineSet
884 -25 m 0,0,1
 733 -25 733 -25 611 4.5 c 128,-1,2
 489 34 489 34 395 87 c 128,-1,3
 301 140 301 140 233 213 c 128,-1,4
 165 286 165 286 121 373 c 128,-1,5
 77 460 77 460 56.5 557.5 c 128,-1,6
 36 655 36 655 36 758 c 0,7,8
 36 876 36 876 49.5 985.5 c 128,-1,9
 63 1095 63 1095 99.5 1191 c 128,-1,10
 136 1287 136 1287 201 1366 c 128,-1,11
 266 1445 266 1445 369.5 1501.5 c 128,-1,12
 473 1558 473 1558 620 1589 c 128,-1,13
 767 1620 767 1620 968 1620 c 0,14,15
 1130 1620 1130 1620 1256 1590.5 c 128,-1,16
 1382 1561 1382 1561 1476.5 1508 c 128,-1,17
 1571 1455 1571 1455 1635.5 1382.5 c 128,-1,18
 1700 1310 1700 1310 1740.5 1224.5 c 128,-1,19
 1781 1139 1781 1139 1798.5 1043 c 128,-1,20
 1816 947 1816 947 1816 848 c 0,21,22
 1816 736 1816 736 1802.5 627.5 c 128,-1,23
 1789 519 1789 519 1752.5 422 c 128,-1,24
 1716 325 1716 325 1650.5 243 c 128,-1,25
 1585 161 1585 161 1481.5 101.5 c 128,-1,26
 1378 42 1378 42 1231 8.5 c 128,-1,27
 1084 -25 1084 -25 884 -25 c 0,0,1
941 238 m 0,28,29
 986 238 986 238 1014.5 263 c 128,-1,30
 1043 288 1043 288 1059.5 335 c 128,-1,31
 1076 382 1076 382 1082.5 450 c 128,-1,32
 1089 518 1089 518 1089 604 c 2,33,-1
 1089 649 l 2,34,35
 1089 725 1089 725 1088 806.5 c 128,-1,36
 1087 888 1087 888 1082 966.5 c 128,-1,37
 1077 1045 1077 1045 1065.5 1115 c 128,-1,38
 1054 1185 1054 1185 1033.5 1238.5 c 128,-1,39
 1013 1292 1013 1292 981.5 1323 c 128,-1,40
 950 1354 950 1354 904 1354 c 0,41,42
 857 1354 857 1354 828 1332.5 c 128,-1,43
 799 1311 799 1311 783.5 1269.5 c 128,-1,44
 768 1228 768 1228 762.5 1167 c 128,-1,45
 757 1106 757 1106 757 1026 c 0,46,47
 757 953 757 953 758 866 c 128,-1,48
 759 779 759 779 764 691.5 c 128,-1,49
 769 604 769 604 780 522 c 128,-1,50
 791 440 791 440 811.5 377 c 128,-1,51
 832 314 832 314 863.5 276 c 128,-1,52
 895 238 895 238 941 238 c 0,28,29
EndSplineSet
EndChar

StartChar: B
Encoding: 66 66 19
Width: 1882
Flags: W
HStem: 0 231<898.281 1112.59> 731 166<877.159 1131.21> 1397 196<898.281 1112.03>
VStem: 201 676<312.355 728.092 899.908 1281.78> 1168 676<286.991 660.166>
LayerCount: 2
Fore
SplineSet
1029 897 m 0,0,1
 1073 897 1073 897 1100.5 913.5 c 128,-1,2
 1128 930 1128 930 1143 961 c 128,-1,3
 1158 992 1158 992 1163 1036.5 c 128,-1,4
 1168 1081 1168 1081 1168 1137 c 0,5,6
 1168 1197 1168 1197 1160.5 1245.5 c 128,-1,7
 1153 1294 1153 1294 1133 1327.5 c 128,-1,8
 1113 1361 1113 1361 1079 1379 c 128,-1,9
 1045 1397 1045 1397 992 1397 c 0,10,11
 950 1397 950 1397 926.5 1381.5 c 128,-1,12
 903 1366 903 1366 892 1340.5 c 128,-1,13
 881 1315 881 1315 879 1281 c 128,-1,14
 877 1247 877 1247 877 1210 c 2,15,-1
 877 907 l 1,16,17
 882 904 882 904 900 902 c 0,18,19
 915 900 915 900 945 898.5 c 128,-1,20
 975 897 975 897 1029 897 c 0,0,1
1029 731 m 0,21,22
 975 731 975 731 945 729.5 c 128,-1,23
 915 728 915 728 900 726 c 0,24,25
 882 723 882 723 877 721 c 1,26,-1
 877 418 l 2,27,28
 877 381 877 381 879 347 c 128,-1,29
 881 313 881 313 892 287.5 c 128,-1,30
 903 262 903 262 926.5 246.5 c 128,-1,31
 950 231 950 231 992 231 c 0,32,33
 1045 231 1045 231 1079 249 c 128,-1,34
 1113 267 1113 267 1133 300.5 c 128,-1,35
 1153 334 1153 334 1160.5 382.5 c 128,-1,36
 1168 431 1168 431 1168 492 c 0,37,38
 1168 548 1168 548 1163 592.5 c 128,-1,39
 1158 637 1158 637 1143 667.5 c 128,-1,40
 1128 698 1128 698 1100.5 714.5 c 128,-1,41
 1073 731 1073 731 1029 731 c 0,21,22
533 0 m 2,42,43
 415 0 415 0 323.5 13.5 c 128,-1,44
 232 27 232 27 169.5 55.5 c 128,-1,45
 107 84 107 84 74.5 129 c 128,-1,46
 42 174 42 174 42 236 c 0,47,48
 42 260 42 260 54 270.5 c 128,-1,49
 66 281 66 281 83.5 286.5 c 128,-1,50
 101 292 101 292 121.5 297 c 128,-1,51
 142 302 142 302 159.5 314.5 c 128,-1,52
 177 327 177 327 189 351 c 128,-1,53
 201 375 201 375 201 420 c 2,54,-1
 201 1174 l 2,55,56
 201 1218 201 1218 189 1242.5 c 128,-1,57
 177 1267 177 1267 159.5 1279.5 c 128,-1,58
 142 1292 142 1292 121.5 1297 c 128,-1,59
 101 1302 101 1302 83.5 1307.5 c 128,-1,60
 66 1313 66 1313 54 1323.5 c 128,-1,61
 42 1334 42 1334 42 1358 c 0,62,63
 42 1420 42 1420 74.5 1464.5 c 128,-1,64
 107 1509 107 1509 169.5 1537.5 c 128,-1,65
 232 1566 232 1566 323.5 1579.5 c 128,-1,66
 415 1593 415 1593 533 1593 c 2,67,-1
 1066 1593 l 2,68,69
 1233 1593 1233 1593 1352.5 1575.5 c 128,-1,70
 1472 1558 1472 1558 1553 1528 c 128,-1,71
 1634 1498 1634 1498 1682.5 1457 c 128,-1,72
 1731 1416 1731 1416 1756.5 1368.5 c 128,-1,73
 1782 1321 1782 1321 1789.5 1269.5 c 128,-1,74
 1797 1218 1797 1218 1797 1167 c 0,75,76
 1797 1108 1797 1108 1782 1063 c 128,-1,77
 1767 1018 1767 1018 1741 984 c 128,-1,78
 1715 950 1715 950 1680.5 926.5 c 128,-1,79
 1646 903 1646 903 1607.5 887.5 c 128,-1,80
 1569 872 1569 872 1528 864 c 128,-1,81
 1487 856 1487 856 1449 854 c 1,82,83
 1520 849 1520 849 1590.5 828 c 128,-1,84
 1661 807 1661 807 1717.5 761.5 c 128,-1,85
 1774 716 1774 716 1809 641.5 c 128,-1,86
 1844 567 1844 567 1844 455 c 0,87,88
 1844 393 1844 393 1827 335 c 128,-1,89
 1810 277 1810 277 1770.5 226.5 c 128,-1,90
 1731 176 1731 176 1666.5 134.5 c 128,-1,91
 1602 93 1602 93 1507 63 c 128,-1,92
 1412 33 1412 33 1283.5 16.5 c 128,-1,93
 1155 0 1155 0 988 0 c 2,94,-1
 533 0 l 2,42,43
EndSplineSet
EndChar

StartChar: S
Encoding: 83 83 20
Width: 1533
Flags: W
HStem: -25 283<517.821 890.305> 1372 248<576.948 953.892>
VStem: 35 442<299.543 505.129> 61 492<991 1285.03> 919 580<289.136 525.5> 969 460<1205.5 1345.58>
LayerCount: 2
Fore
SplineSet
969 1298 m 0,0,1
 969 1326 969 1326 918.5 1349 c 128,-1,2
 868 1372 868 1372 764 1372 c 0,3,4
 692 1372 692 1372 650 1362 c 128,-1,5
 608 1352 608 1352 586.5 1335.5 c 128,-1,6
 565 1319 565 1319 559 1298.5 c 128,-1,7
 553 1278 553 1278 553 1257 c 0,8,9
 553 1214 553 1214 593.5 1181.5 c 128,-1,10
 634 1149 634 1149 700.5 1120 c 128,-1,11
 767 1091 767 1091 852 1062 c 128,-1,12
 937 1033 937 1033 1026 997.5 c 128,-1,13
 1115 962 1115 962 1200 916 c 128,-1,14
 1285 870 1285 870 1351.5 808 c 128,-1,15
 1418 746 1418 746 1458.5 663 c 128,-1,16
 1499 580 1499 580 1499 471 c 0,17,18
 1499 331 1499 331 1445 236 c 128,-1,19
 1391 141 1391 141 1294.5 83 c 128,-1,20
 1198 25 1198 25 1065.5 0 c 128,-1,21
 933 -25 933 -25 776 -25 c 0,22,23
 684 -25 684 -25 593 -11 c 128,-1,24
 502 3 502 3 420 29.5 c 128,-1,25
 338 56 338 56 267.5 94.5 c 128,-1,26
 197 133 197 133 145.5 181.5 c 128,-1,27
 94 230 94 230 64.5 288.5 c 128,-1,28
 35 347 35 347 35 414 c 0,29,30
 35 465 35 465 51 503 c 128,-1,31
 67 541 67 541 93.5 565.5 c 128,-1,32
 120 590 120 590 154 602 c 128,-1,33
 188 614 188 614 225 614 c 0,34,35
 270 614 270 614 315 597 c 128,-1,36
 360 580 360 580 396 547 c 128,-1,37
 432 514 432 514 454.5 466 c 128,-1,38
 477 418 477 418 477 356 c 0,39,40
 477 341 477 341 491.5 324 c 128,-1,41
 506 307 506 307 533.5 292.5 c 128,-1,42
 561 278 561 278 602 268 c 128,-1,43
 643 258 643 258 696 258 c 0,44,45
 770 258 770 258 814 267.5 c 128,-1,46
 858 277 858 277 881.5 293 c 128,-1,47
 905 309 905 309 912 329 c 128,-1,48
 919 349 919 349 919 369 c 0,49,50
 919 394 919 394 882 413 c 128,-1,51
 845 432 845 432 785 451.5 c 128,-1,52
 725 471 725 471 647.5 493 c 128,-1,53
 570 515 570 515 490 545.5 c 128,-1,54
 410 576 410 576 332.5 618 c 128,-1,55
 255 660 255 660 195 719.5 c 128,-1,56
 135 779 135 779 98 858.5 c 128,-1,57
 61 938 61 938 61 1044 c 0,58,59
 61 1149 61 1149 86.5 1232 c 128,-1,60
 112 1315 112 1315 158.5 1379 c 128,-1,61
 205 1443 205 1443 270 1488.5 c 128,-1,62
 335 1534 335 1534 414.5 1563.5 c 128,-1,63
 494 1593 494 1593 585.5 1606.5 c 128,-1,64
 677 1620 677 1620 776 1620 c 0,65,66
 953 1620 953 1620 1077.5 1584.5 c 128,-1,67
 1202 1549 1202 1549 1280 1493 c 128,-1,68
 1358 1437 1358 1437 1393.5 1368.5 c 128,-1,69
 1429 1300 1429 1300 1429 1235 c 0,70,71
 1429 1176 1429 1176 1404 1133 c 128,-1,72
 1379 1090 1379 1090 1339 1062 c 128,-1,73
 1299 1034 1299 1034 1248 1021 c 128,-1,74
 1197 1008 1197 1008 1145 1008 c 0,75,76
 1095 1008 1095 1008 1047.5 1019 c 128,-1,77
 1000 1030 1000 1030 963.5 1052 c 128,-1,78
 927 1074 927 1074 904.5 1105.5 c 128,-1,79
 882 1137 882 1137 882 1178 c 0,80,81
 882 1208 882 1208 895.5 1223 c 128,-1,82
 909 1238 909 1238 925.5 1248 c 128,-1,83
 942 1258 942 1258 955.5 1268 c 128,-1,84
 969 1278 969 1278 969 1298 c 0,0,1
EndSplineSet
EndChar

StartChar: Z
Encoding: 90 90 21
Width: 1619
Flags: W
HStem: 0 225<911.108 1155.37> 1374 219<452 705.998>
DStem2: 130 203 931 326 0.452249 0.891892<416.256 1278.06>
LayerCount: 2
Fore
SplineSet
704 1335 m 2,0,1
 706 1341 706 1341 706 1344 c 0,2,3
 706 1355 706 1355 698 1364.5 c 128,-1,4
 690 1374 690 1374 679 1374 c 2,5,-1
 452 1374 l 1,6,-1
 413 1214 l 1,7,8
 397 1160 397 1160 374 1123 c 128,-1,9
 351 1086 351 1086 324 1062.5 c 128,-1,10
 297 1039 297 1039 267 1028.5 c 128,-1,11
 237 1018 237 1018 206 1018 c 0,12,13
 171 1018 171 1018 140.5 1030 c 128,-1,14
 110 1042 110 1042 87.5 1064 c 128,-1,15
 65 1086 65 1086 52.5 1118 c 128,-1,16
 40 1150 40 1150 40 1190 c 0,17,18
 40 1250 40 1250 57.5 1320.5 c 128,-1,19
 75 1391 75 1391 110.5 1451.5 c 128,-1,20
 146 1512 146 1512 200 1552.5 c 128,-1,21
 254 1593 254 1593 327 1593 c 2,22,-1
 1398 1593 l 2,23,24
 1456 1593 1456 1593 1480 1570.5 c 128,-1,25
 1504 1548 1504 1548 1504 1514 c 0,26,27
 1504 1491 1504 1491 1494.5 1464.5 c 128,-1,28
 1485 1438 1485 1438 1468 1413 c 1,29,-1
 931 326 l 1,30,31
 911 295 911 295 911 273 c 0,32,33
 911 258 911 258 920 248.5 c 128,-1,34
 929 239 929 239 942.5 233.5 c 128,-1,35
 956 228 956 228 973 226.5 c 128,-1,36
 990 225 990 225 1005 225 c 0,37,38
 1067 225 1067 225 1105.5 240.5 c 128,-1,39
 1144 256 1144 256 1167 281 c 128,-1,40
 1190 306 1190 306 1202.5 338 c 128,-1,41
 1215 370 1215 370 1224 403.5 c 128,-1,42
 1233 437 1233 437 1243.5 469 c 128,-1,43
 1254 501 1254 501 1274 526 c 128,-1,44
 1294 551 1294 551 1327 566.5 c 128,-1,45
 1360 582 1360 582 1415 582 c 0,46,47
 1450 582 1450 582 1480.5 570 c 128,-1,48
 1511 558 1511 558 1533 535.5 c 128,-1,49
 1555 513 1555 513 1567.5 481.5 c 128,-1,50
 1580 450 1580 450 1580 410 c 0,51,52
 1580 350 1580 350 1562.5 278.5 c 128,-1,53
 1545 207 1545 207 1509.5 145 c 128,-1,54
 1474 83 1474 83 1420.5 41.5 c 128,-1,55
 1367 0 1367 0 1294 0 c 2,56,-1
 192 0 l 2,57,58
 173 0 173 0 154 4 c 128,-1,59
 135 8 135 8 120 17.5 c 128,-1,60
 105 27 105 27 95.5 42.5 c 128,-1,61
 86 58 86 58 86 82 c 0,62,63
 86 105 86 105 96.5 134.5 c 128,-1,64
 107 164 107 164 130 203 c 1,65,-1
 704 1335 l 2,0,1
EndSplineSet
EndChar

StartChar: Y
Encoding: 89 89 22
Width: 1787
Flags: W
HStem: 0 976<821.5 1146.64> 1573 20G<406 587 1425.5 1499>
VStem: 549 672<314.111 780> 1165 596<1321.89 1490.69>
DStem2: 1143 1014 1221 780 0.573038 0.819529<-60.6695 271.74>
LayerCount: 2
Fore
SplineSet
881 0 m 0,0,1
 762 0 762 0 670 13.5 c 128,-1,2
 578 27 578 27 515 55.5 c 128,-1,3
 452 84 452 84 419.5 129 c 128,-1,4
 387 174 387 174 387 236 c 0,5,6
 387 260 387 260 399 270.5 c 128,-1,7
 411 281 411 281 429 286.5 c 128,-1,8
 447 292 447 292 468 297 c 128,-1,9
 489 302 489 302 507 314.5 c 128,-1,10
 525 327 525 327 537 351 c 128,-1,11
 549 375 549 375 549 420 c 2,12,-1
 549 780 l 1,13,-1
 268 1169 l 2,14,15
 241 1207 241 1207 212 1229 c 128,-1,16
 183 1251 183 1251 156.5 1264 c 128,-1,17
 130 1277 130 1277 106.5 1284.5 c 128,-1,18
 83 1292 83 1292 65 1300 c 128,-1,19
 47 1308 47 1308 37 1321 c 128,-1,20
 27 1334 27 1334 27 1358 c 0,21,22
 27 1482 27 1482 155.5 1537.5 c 128,-1,23
 284 1593 284 1593 528 1593 c 0,24,25
 646 1593 646 1593 738 1579.5 c 128,-1,26
 830 1566 830 1566 892.5 1537.5 c 128,-1,27
 955 1509 955 1509 987.5 1464.5 c 128,-1,28
 1020 1420 1020 1420 1020 1358 c 0,29,30
 1020 1330 1020 1330 1002 1317 c 128,-1,31
 984 1304 984 1304 962.5 1295 c 128,-1,32
 941 1286 941 1286 923 1276.5 c 128,-1,33
 905 1267 905 1267 905 1246 c 0,34,35
 905 1234 905 1234 913 1216.5 c 128,-1,36
 921 1199 921 1199 940 1174 c 1,37,-1
 1046 1004 l 1,38,39
 1070 976 1070 976 1091 976 c 0,40,41
 1106 976 1106 976 1119 987 c 128,-1,42
 1132 998 1132 998 1143 1014 c 2,43,-1
 1257 1174 l 2,44,45
 1274 1198 1274 1198 1280 1215.5 c 128,-1,46
 1286 1233 1286 1233 1286 1246 c 0,47,48
 1286 1262 1286 1262 1277 1271 c 128,-1,49
 1268 1280 1268 1280 1254.5 1286 c 128,-1,50
 1241 1292 1241 1292 1225.5 1297 c 128,-1,51
 1210 1302 1210 1302 1196.5 1309 c 128,-1,52
 1183 1316 1183 1316 1174 1327.5 c 128,-1,53
 1165 1339 1165 1339 1165 1358 c 0,54,55
 1165 1406 1165 1406 1184 1448.5 c 128,-1,56
 1203 1491 1203 1491 1240.5 1523 c 128,-1,57
 1278 1555 1278 1555 1333.5 1574 c 128,-1,58
 1389 1593 1389 1593 1462 1593 c 0,59,60
 1536 1593 1536 1593 1592 1574 c 128,-1,61
 1648 1555 1648 1555 1685.5 1523 c 128,-1,62
 1723 1491 1723 1491 1742 1448.5 c 128,-1,63
 1761 1406 1761 1406 1761 1358 c 0,64,65
 1761 1334 1761 1334 1749 1321.5 c 128,-1,66
 1737 1309 1737 1309 1716 1301.5 c 128,-1,67
 1695 1294 1695 1294 1668 1287 c 128,-1,68
 1641 1280 1641 1280 1611.5 1267 c 128,-1,69
 1582 1254 1582 1254 1551 1231 c 128,-1,70
 1520 1208 1520 1208 1493 1169 c 2,71,-1
 1221 780 l 1,72,-1
 1221 424 l 2,73,74
 1221 379 1221 379 1233 354 c 128,-1,75
 1245 329 1245 329 1263 316 c 128,-1,76
 1281 303 1281 303 1301.5 298 c 128,-1,77
 1322 293 1322 293 1340 287 c 128,-1,78
 1358 281 1358 281 1370 270.5 c 128,-1,79
 1382 260 1382 260 1382 236 c 0,80,81
 1382 174 1382 174 1349.5 129 c 128,-1,82
 1317 84 1317 84 1253.5 55.5 c 128,-1,83
 1190 27 1190 27 1096.5 13.5 c 128,-1,84
 1003 0 1003 0 881 0 c 0,0,1
EndSplineSet
EndChar

StartChar: J
Encoding: 74 74 23
Width: 1628
Flags: W
HStem: -25 287<495.817 785.5> 1573 20G<984.5 1166>
VStem: 765 672<334.957 1281.37>
LayerCount: 2
Fore
SplineSet
331 858 m 0,0,1
 382 858 382 858 437 844.5 c 128,-1,2
 492 831 492 831 538 802.5 c 128,-1,3
 584 774 584 774 614 729.5 c 128,-1,4
 644 685 644 685 644 623 c 0,5,6
 644 585 644 585 633 551 c 128,-1,7
 622 517 622 517 605.5 486.5 c 128,-1,8
 589 456 589 456 569.5 430 c 128,-1,9
 550 404 550 404 533.5 381.5 c 128,-1,10
 517 359 517 359 506 341 c 128,-1,11
 495 323 495 323 495 309 c 0,12,13
 495 288 495 288 519.5 275 c 128,-1,14
 544 262 544 262 583 262 c 0,15,16
 619 262 619 262 652 275.5 c 128,-1,17
 685 289 685 289 710 319.5 c 128,-1,18
 735 350 735 350 750 399.5 c 128,-1,19
 765 449 765 449 765 520 c 2,20,-1
 765 1176 l 2,21,22
 765 1220 765 1220 753 1244.5 c 128,-1,23
 741 1269 741 1269 723.5 1281 c 128,-1,24
 706 1293 706 1293 685 1297.5 c 128,-1,25
 664 1302 664 1302 646.5 1307.5 c 128,-1,26
 629 1313 629 1313 617 1323.5 c 128,-1,27
 605 1334 605 1334 605 1358 c 0,28,29
 605 1482 605 1482 733.5 1537.5 c 128,-1,30
 862 1593 862 1593 1107 1593 c 0,31,32
 1225 1593 1225 1593 1316.5 1579.5 c 128,-1,33
 1408 1566 1408 1566 1470.5 1537.5 c 128,-1,34
 1533 1509 1533 1509 1565.5 1464.5 c 128,-1,35
 1598 1420 1598 1420 1598 1358 c 0,36,37
 1598 1334 1598 1334 1586 1323.5 c 128,-1,38
 1574 1313 1574 1313 1556 1307.5 c 128,-1,39
 1538 1302 1538 1302 1517.5 1297 c 128,-1,40
 1497 1292 1497 1292 1479 1279.5 c 128,-1,41
 1461 1267 1461 1267 1449 1242.5 c 128,-1,42
 1437 1218 1437 1218 1437 1174 c 2,43,-1
 1437 520 l 2,44,45
 1437 428 1437 428 1409.5 351.5 c 128,-1,46
 1382 275 1382 275 1334 214.5 c 128,-1,47
 1286 154 1286 154 1220 109 c 128,-1,48
 1154 64 1154 64 1077 34 c 128,-1,49
 1000 4 1000 4 914.5 -10.5 c 128,-1,50
 829 -25 829 -25 742 -25 c 0,51,52
 653 -25 653 -25 564.5 -9.5 c 128,-1,53
 476 6 476 6 395.5 36.5 c 128,-1,54
 315 67 315 67 246 112.5 c 128,-1,55
 177 158 177 158 126.5 218.5 c 128,-1,56
 76 279 76 279 47.5 354.5 c 128,-1,57
 19 430 19 430 19 520 c 0,58,59
 19 587 19 587 40 648.5 c 128,-1,60
 61 710 61 710 101 756.5 c 128,-1,61
 141 803 141 803 199 830.5 c 128,-1,62
 257 858 257 858 331 858 c 0,0,1
EndSplineSet
EndChar

StartChar: period
Encoding: 46 46 24
Width: 716
Flags: W
HStem: -20 495<166.391 551.234>
VStem: 32 651<94.8623 359.412>
LayerCount: 2
Fore
SplineSet
32 227 m 256,0,1
 32 277 32 277 49.5 314.5 c 128,-1,2
 67 352 67 352 94.5 379.5 c 128,-1,3
 122 407 122 407 157.5 425.5 c 128,-1,4
 193 444 193 444 229.5 455 c 128,-1,5
 266 466 266 466 299.5 470.5 c 128,-1,6
 333 475 333 475 358 475 c 0,7,8
 384 475 384 475 418.5 470.5 c 128,-1,9
 453 466 453 466 489 455 c 128,-1,10
 525 444 525 444 560 425.5 c 128,-1,11
 595 407 595 407 622.5 379.5 c 128,-1,12
 650 352 650 352 666.5 314.5 c 128,-1,13
 683 277 683 277 683 227 c 0,14,15
 683 178 683 178 666.5 140 c 128,-1,16
 650 102 650 102 622.5 75 c 128,-1,17
 595 48 595 48 560 29.5 c 128,-1,18
 525 11 525 11 489 0 c 128,-1,19
 453 -11 453 -11 418.5 -15.5 c 128,-1,20
 384 -20 384 -20 358 -20 c 0,21,22
 333 -20 333 -20 299.5 -15.5 c 128,-1,23
 266 -11 266 -11 229.5 0 c 128,-1,24
 193 11 193 11 157.5 29.5 c 128,-1,25
 122 48 122 48 94.5 75 c 128,-1,26
 67 102 67 102 49.5 139.5 c 128,-1,27
 32 177 32 177 32 227 c 256,0,1
EndSplineSet
EndChar

StartChar: V
Encoding: 86 86 25
Width: 1770
Flags: W
HStem: 1573 20G<397 578 1416.5 1490>
VStem: 1156 596<1323.83 1490.69>
DStem2: 1150 784 1224 435 0.380629 0.924728<-81.7786 473.286>
LayerCount: 2
Fore
SplineSet
1289 1174 m 2,0,1
 1302 1210 1302 1210 1302 1234 c 256,2,3
 1302 1258 1302 1258 1291 1270.5 c 128,-1,4
 1280 1283 1280 1283 1264 1290 c 128,-1,5
 1248 1297 1248 1297 1229 1300.5 c 128,-1,6
 1210 1304 1210 1304 1194 1310 c 128,-1,7
 1178 1316 1178 1316 1167 1326.5 c 128,-1,8
 1156 1337 1156 1337 1156 1358 c 0,9,10
 1156 1406 1156 1406 1175 1448.5 c 128,-1,11
 1194 1491 1194 1491 1231.5 1523 c 128,-1,12
 1269 1555 1269 1555 1324.5 1574 c 128,-1,13
 1380 1593 1380 1593 1453 1593 c 0,14,15
 1527 1593 1527 1593 1583 1574 c 128,-1,16
 1639 1555 1639 1555 1676.5 1523 c 128,-1,17
 1714 1491 1714 1491 1733 1448.5 c 128,-1,18
 1752 1406 1752 1406 1752 1358 c 0,19,20
 1752 1334 1752 1334 1739.5 1323.5 c 128,-1,21
 1727 1313 1727 1313 1706.5 1307 c 128,-1,22
 1686 1301 1686 1301 1660.5 1296 c 128,-1,23
 1635 1291 1635 1291 1610 1278 c 128,-1,24
 1585 1265 1585 1265 1562.5 1240 c 128,-1,25
 1540 1215 1540 1215 1525 1169 c 1,26,-1
 1224 435 l 2,27,28
 1168 297 1168 297 1128 204.5 c 128,-1,29
 1088 112 1088 112 1051 56 c 128,-1,30
 1014 0 1014 0 974.5 -23.5 c 128,-1,31
 935 -47 935 -47 880 -47 c 0,32,33
 832 -47 832 -47 794 -18 c 128,-1,34
 756 11 756 11 714.5 79 c 128,-1,35
 673 147 673 147 621.5 259 c 128,-1,36
 570 371 570 371 497 537 c 2,37,-1
 218 1169 l 2,38,39
 199 1212 199 1212 177 1236.5 c 128,-1,40
 155 1261 155 1261 132.5 1274 c 128,-1,41
 110 1287 110 1287 89.5 1292.5 c 128,-1,42
 69 1298 69 1298 53 1304.5 c 128,-1,43
 37 1311 37 1311 27.5 1322.5 c 128,-1,44
 18 1334 18 1334 18 1358 c 0,45,46
 18 1482 18 1482 146.5 1537.5 c 128,-1,47
 275 1593 275 1593 519 1593 c 0,48,49
 637 1593 637 1593 729 1579.5 c 128,-1,50
 821 1566 821 1566 883.5 1537.5 c 128,-1,51
 946 1509 946 1509 978.5 1464.5 c 128,-1,52
 1011 1420 1011 1420 1011 1358 c 0,53,54
 1011 1338 1011 1338 1001 1327 c 128,-1,55
 991 1316 991 1316 976 1310 c 128,-1,56
 961 1304 961 1304 943 1300 c 128,-1,57
 925 1296 925 1296 910 1289 c 128,-1,58
 895 1282 895 1282 885 1270.5 c 128,-1,59
 875 1259 875 1259 875 1237 c 0,60,61
 875 1225 875 1225 878.5 1209.5 c 128,-1,62
 882 1194 882 1194 890 1174 c 2,63,-1
 1054 774 l 2,64,65
 1064 751 1064 751 1075 733.5 c 128,-1,66
 1086 716 1086 716 1100 716 c 0,67,68
 1111 716 1111 716 1123.5 731 c 128,-1,69
 1136 746 1136 746 1150 784 c 2,70,-1
 1289 1174 l 2,0,1
EndSplineSet
EndChar

StartChar: o
Encoding: 111 111 26
Width: 1549
Flags: W
HStem: -25 256<719.31 869.258> 1069 256<682.984 840.881>
VStem: 32 602<415.904 900.061> 912 605<422.611 912.35>
LayerCount: 2
Fore
SplineSet
749 -25 m 0,0,1
 630 -25 630 -25 530.5 3 c 128,-1,2
 431 31 431 31 351.5 79.5 c 128,-1,3
 272 128 272 128 212 194 c 128,-1,4
 152 260 152 260 112 336.5 c 128,-1,5
 72 413 72 413 52 496 c 128,-1,6
 32 579 32 579 32 662 c 0,7,8
 32 747 32 747 53.5 829.5 c 128,-1,9
 75 912 75 912 118.5 986 c 128,-1,10
 162 1060 162 1060 227 1122 c 128,-1,11
 292 1184 292 1184 379.5 1229 c 128,-1,12
 467 1274 467 1274 576.5 1299.5 c 128,-1,13
 686 1325 686 1325 818 1325 c 0,14,15
 934 1325 934 1325 1030.5 1299 c 128,-1,16
 1127 1273 1127 1273 1205 1227.5 c 128,-1,17
 1283 1182 1283 1182 1341.5 1120 c 128,-1,18
 1400 1058 1400 1058 1439 985 c 128,-1,19
 1478 912 1478 912 1497.5 831 c 128,-1,20
 1517 750 1517 750 1517 668 c 0,21,22
 1517 583 1517 583 1496 498 c 128,-1,23
 1475 413 1475 413 1432.5 336 c 128,-1,24
 1390 259 1390 259 1326 193 c 128,-1,25
 1262 127 1262 127 1176.5 78.5 c 128,-1,26
 1091 30 1091 30 984 2.5 c 128,-1,27
 877 -25 877 -25 749 -25 c 0,0,1
794 231 m 0,28,29
 827 231 827 231 849.5 250.5 c 128,-1,30
 872 270 872 270 886 307 c 128,-1,31
 900 344 900 344 906 396.5 c 128,-1,32
 912 449 912 449 912 514 c 0,33,34
 912 571 912 571 911 634.5 c 128,-1,35
 910 698 910 698 906 759.5 c 128,-1,36
 902 821 902 821 893 877 c 128,-1,37
 884 933 884 933 867.5 976 c 128,-1,38
 851 1019 851 1019 826 1044 c 128,-1,39
 801 1069 801 1069 765 1069 c 0,40,41
 730 1069 730 1069 705.5 1049.5 c 128,-1,42
 681 1030 681 1030 665 995 c 128,-1,43
 649 960 649 960 641.5 911 c 128,-1,44
 634 862 634 862 634 803 c 0,45,46
 634 748 634 748 636 684 c 128,-1,47
 638 620 638 620 644 556.5 c 128,-1,48
 650 493 650 493 661.5 434 c 128,-1,49
 673 375 673 375 690.5 330 c 128,-1,50
 708 285 708 285 733.5 258 c 128,-1,51
 759 231 759 231 794 231 c 0,28,29
EndSplineSet
Substitution2: "'smcp' Lowercase to Small Capitals in Latin lookup 0 subtable" o.sc
EndChar

StartChar: c
Encoding: 99 99 27
Width: 1314
Flags: W
HStem: -25 357<645 960.173> 1069 256<693.69 904.35>
VStem: 31 602<503.277 906.255>
LayerCount: 2
Fore
SplineSet
715 1325 m 0,0,1
 864 1325 864 1325 969.5 1292 c 128,-1,2
 1075 1259 1075 1259 1142.5 1203 c 128,-1,3
 1210 1147 1210 1147 1241 1072 c 128,-1,4
 1272 997 1272 997 1272 913 c 0,5,6
 1272 878 1272 878 1261 851 c 128,-1,7
 1250 824 1250 824 1231.5 805 c 128,-1,8
 1213 786 1213 786 1187 776 c 128,-1,9
 1161 766 1161 766 1131 766 c 0,10,11
 1105 766 1105 766 1078 775 c 128,-1,12
 1051 784 1051 784 1027 804 c 128,-1,13
 1003 824 1003 824 984 856 c 128,-1,14
 965 888 965 888 955 934 c 0,15,16
 947 967 947 967 931 992 c 128,-1,17
 915 1017 915 1017 894.5 1034.5 c 128,-1,18
 874 1052 874 1052 849.5 1060.5 c 128,-1,19
 825 1069 825 1069 801 1069 c 0,20,21
 758 1069 758 1069 726.5 1051 c 128,-1,22
 695 1033 695 1033 674 998.5 c 128,-1,23
 653 964 653 964 643 914.5 c 128,-1,24
 633 865 633 865 633 803 c 0,25,26
 633 563 633 563 705.5 447.5 c 128,-1,27
 778 332 778 332 938 332 c 0,28,29
 984 332 984 332 1032 344.5 c 128,-1,30
 1080 357 1080 357 1121 372 c 128,-1,31
 1162 387 1162 387 1192 399.5 c 128,-1,32
 1222 412 1222 412 1233 412 c 0,33,34
 1256 412 1256 412 1269 392.5 c 128,-1,35
 1282 373 1282 373 1282 348 c 0,36,37
 1282 340 1282 340 1281.5 333 c 128,-1,38
 1281 326 1281 326 1278 319 c 0,39,40
 1249 245 1249 245 1196 182.5 c 128,-1,41
 1143 120 1143 120 1069.5 73.5 c 128,-1,42
 996 27 996 27 903 1 c 128,-1,43
 810 -25 810 -25 701 -25 c 0,44,45
 589 -25 589 -25 496 1.5 c 128,-1,46
 403 28 403 28 328.5 75.5 c 128,-1,47
 254 123 254 123 198.5 187 c 128,-1,48
 143 251 143 251 105.5 326.5 c 128,-1,49
 68 402 68 402 49.5 484.5 c 128,-1,50
 31 567 31 567 31 651 c 0,51,52
 31 736 31 736 50 819.5 c 128,-1,53
 69 903 69 903 107 978 c 128,-1,54
 145 1053 145 1053 202 1116.5 c 128,-1,55
 259 1180 259 1180 335 1226.5 c 128,-1,56
 411 1273 411 1273 506 1299 c 128,-1,57
 601 1325 601 1325 715 1325 c 0,0,1
EndSplineSet
Substitution2: "'smcp' Lowercase to Small Capitals in Latin lookup 0 subtable" c.sc
EndChar

StartChar: e
Encoding: 101 101 28
Width: 1328
Flags: W
HStem: -25 357<645 969.186> 682 141<638 957> 1069 256<693.505 906.77>
VStem: 32 602<451.273 680.174> 957 340<823 1016.38>
LayerCount: 2
Fore
SplineSet
790 1069 m 0,0,1
 758 1069 758 1069 730 1054.5 c 128,-1,2
 702 1040 702 1040 681.5 1010 c 128,-1,3
 661 980 661 980 649.5 933.5 c 128,-1,4
 638 887 638 887 638 823 c 1,5,-1
 957 823 l 1,6,7
 957 893 957 893 946 940.5 c 128,-1,8
 935 988 935 988 914 1016.5 c 128,-1,9
 893 1045 893 1045 861.5 1057 c 128,-1,10
 830 1069 830 1069 790 1069 c 0,0,1
716 1325 m 0,11,12
 850 1325 850 1325 957.5 1285 c 128,-1,13
 1065 1245 1065 1245 1140.5 1175 c 128,-1,14
 1216 1105 1216 1105 1256.5 1010.5 c 128,-1,15
 1297 916 1297 916 1297 807 c 0,16,17
 1297 762 1297 762 1284.5 737 c 128,-1,18
 1272 712 1272 712 1249 700 c 128,-1,19
 1226 688 1226 688 1192 685 c 128,-1,20
 1158 682 1158 682 1115 682 c 2,21,-1
 634 682 l 1,22,23
 634 572 634 572 656.5 503.5 c 128,-1,24
 679 435 679 435 719 397 c 128,-1,25
 759 359 759 359 815 345.5 c 128,-1,26
 871 332 871 332 939 332 c 0,27,28
 975 332 975 332 1013.5 339 c 128,-1,29
 1052 346 1052 346 1087.5 357 c 128,-1,30
 1123 368 1123 368 1153 380 c 128,-1,31
 1183 392 1183 392 1203 403 c 0,32,33
 1219 412 1219 412 1234 412 c 0,34,35
 1257 412 1257 412 1270 392.5 c 128,-1,36
 1283 373 1283 373 1283 349 c 0,37,38
 1283 341 1283 341 1282 334 c 128,-1,39
 1281 327 1281 327 1278 320 c 0,40,41
 1249 246 1249 246 1199 183 c 128,-1,42
 1149 120 1149 120 1077.5 73.5 c 128,-1,43
 1006 27 1006 27 912 1 c 128,-1,44
 818 -25 818 -25 701 -25 c 0,45,46
 589 -25 589 -25 496.5 1.5 c 128,-1,47
 404 28 404 28 329.5 75.5 c 128,-1,48
 255 123 255 123 199 187 c 128,-1,49
 143 251 143 251 106 326.5 c 128,-1,50
 69 402 69 402 50.5 484.5 c 128,-1,51
 32 567 32 567 32 651 c 0,52,53
 32 736 32 736 51 819.5 c 128,-1,54
 70 903 70 903 108 978 c 128,-1,55
 146 1053 146 1053 203 1116.5 c 128,-1,56
 260 1180 260 1180 336 1226.5 c 128,-1,57
 412 1273 412 1273 507 1299 c 128,-1,58
 602 1325 602 1325 716 1325 c 0,11,12
EndSplineSet
Substitution2: "'smcp' Lowercase to Small Capitals in Latin lookup 0 subtable" e.sc
EndChar

StartChar: n
Encoding: 110 110 29
Width: 1949
Flags: W
HStem: 0 21G<431 596.5 1404 1569.5> 1069 256<950.5 1322> 1276 20G<431 534>
VStem: 184 612<282.434 1014.75> 1161 604<285.861 1003.66>
LayerCount: 2
Fore
SplineSet
796 385 m 2,0,1
 796 344 796 344 807 321 c 128,-1,2
 818 298 818 298 834.5 286.5 c 128,-1,3
 851 275 851 275 870 270.5 c 128,-1,4
 889 266 889 266 905.5 261 c 128,-1,5
 922 256 922 256 933 246.5 c 128,-1,6
 944 237 944 237 944 215 c 0,7,8
 944 101 944 101 826 50.5 c 128,-1,9
 708 0 708 0 485 0 c 0,10,11
 377 0 377 0 294 12 c 128,-1,12
 211 24 211 24 154 50.5 c 128,-1,13
 97 77 97 77 67.5 117.5 c 128,-1,14
 38 158 38 158 38 215 c 0,15,16
 38 237 38 237 49 246.5 c 128,-1,17
 60 256 60 256 76 261 c 128,-1,18
 92 266 92 266 111 270 c 128,-1,19
 130 274 130 274 146 285.5 c 128,-1,20
 162 297 162 297 173 318.5 c 128,-1,21
 184 340 184 340 184 381 c 2,22,-1
 184 915 l 2,23,24
 184 955 184 955 173 977 c 128,-1,25
 162 999 162 999 146 1010.5 c 128,-1,26
 130 1022 130 1022 111 1026 c 128,-1,27
 92 1030 92 1030 76 1035 c 128,-1,28
 60 1040 60 1040 49 1049.5 c 128,-1,29
 38 1059 38 1059 38 1081 c 0,30,31
 38 1138 38 1138 67.5 1178.5 c 128,-1,32
 97 1219 97 1219 154 1245.5 c 128,-1,33
 211 1272 211 1272 294 1284 c 128,-1,34
 377 1296 377 1296 485 1296 c 0,35,36
 583 1296 583 1296 641 1279.5 c 128,-1,37
 699 1263 699 1263 731 1243 c 0,38,39
 768 1219 768 1219 782 1190 c 1,40,41
 834 1227 834 1227 906 1257 c 0,42,43
 968 1283 968 1283 1057.5 1304 c 128,-1,44
 1147 1325 1147 1325 1267 1325 c 0,45,46
 1377 1325 1377 1325 1456.5 1297.5 c 128,-1,47
 1536 1270 1536 1270 1591.5 1223.5 c 128,-1,48
 1647 1177 1647 1177 1681 1115.5 c 128,-1,49
 1715 1054 1715 1054 1733.5 987 c 128,-1,50
 1752 920 1752 920 1758.5 851.5 c 128,-1,51
 1765 783 1765 783 1765 721 c 2,52,-1
 1765 390 l 2,53,54
 1765 348 1765 348 1776 324.5 c 128,-1,55
 1787 301 1787 301 1804 288.5 c 128,-1,56
 1821 276 1821 276 1840.5 271.5 c 128,-1,57
 1860 267 1860 267 1877 261.5 c 128,-1,58
 1894 256 1894 256 1905 246.5 c 128,-1,59
 1916 237 1916 237 1916 215 c 0,60,61
 1916 101 1916 101 1798.5 50.5 c 128,-1,62
 1681 0 1681 0 1458 0 c 0,63,64
 1350 0 1350 0 1267 12 c 128,-1,65
 1184 24 1184 24 1127 50.5 c 128,-1,66
 1070 77 1070 77 1040.5 117.5 c 128,-1,67
 1011 158 1011 158 1011 215 c 0,68,69
 1011 237 1011 237 1022 246.5 c 128,-1,70
 1033 256 1033 256 1050 261 c 128,-1,71
 1067 266 1067 266 1086 270 c 128,-1,72
 1105 274 1105 274 1122 285.5 c 128,-1,73
 1139 297 1139 297 1150 318.5 c 128,-1,74
 1161 340 1161 340 1161 381 c 2,75,-1
 1161 808 l 2,76,77
 1161 870 1161 870 1151.5 918.5 c 128,-1,78
 1142 967 1142 967 1119.5 1000.5 c 128,-1,79
 1097 1034 1097 1034 1060 1051.5 c 128,-1,80
 1023 1069 1023 1069 968 1069 c 0,81,82
 933 1069 933 1069 902 1057.5 c 128,-1,83
 871 1046 871 1046 848 1025.5 c 128,-1,84
 825 1005 825 1005 811.5 976.5 c 128,-1,85
 798 948 798 948 798 915 c 2,86,-1
 796 385 l 2,0,1
EndSplineSet
Substitution2: "'smcp' Lowercase to Small Capitals in Latin lookup 0 subtable" n.sc
EndChar

StartChar: u
Encoding: 117 117 30
Width: 1946
Flags: W
HStem: -25 254<628 999.5> -2 21G<1438.5 1572.5> 1276 20G<380.5 541.5 1353.5 1502.5>
VStem: 183 606<294.344 1011.44> 1152 614<278.828 1014.81>
LayerCount: 2
Fore
SplineSet
1154 911 m 2,0,1
 1154 952 1154 952 1143 975 c 128,-1,2
 1132 998 1132 998 1115.5 1009.5 c 128,-1,3
 1099 1021 1099 1021 1080 1025.5 c 128,-1,4
 1061 1030 1061 1030 1044.5 1035 c 128,-1,5
 1028 1040 1028 1040 1017 1049.5 c 128,-1,6
 1006 1059 1006 1059 1006 1081 c 0,7,8
 1006 1195 1006 1195 1124 1245.5 c 128,-1,9
 1242 1296 1242 1296 1465 1296 c 0,10,11
 1540 1296 1540 1296 1591 1282 c 128,-1,12
 1642 1268 1642 1268 1675.5 1243 c 128,-1,13
 1709 1218 1709 1218 1727.5 1183 c 128,-1,14
 1746 1148 1746 1148 1754.5 1105.5 c 128,-1,15
 1763 1063 1763 1063 1764.5 1015 c 128,-1,16
 1766 967 1766 967 1766 915 c 2,17,-1
 1766 379 l 2,18,19
 1766 339 1766 339 1776.5 317 c 128,-1,20
 1787 295 1787 295 1803.5 283.5 c 128,-1,21
 1820 272 1820 272 1838.5 268 c 128,-1,22
 1857 264 1857 264 1873.5 259 c 128,-1,23
 1890 254 1890 254 1900.5 244.5 c 128,-1,24
 1911 235 1911 235 1911 213 c 0,25,26
 1911 99 1911 99 1795.5 48.5 c 128,-1,27
 1680 -2 1680 -2 1465 -2 c 0,28,29
 1412 -2 1412 -2 1371 6 c 128,-1,30
 1330 14 1330 14 1299.5 27 c 128,-1,31
 1269 40 1269 40 1247 56.5 c 128,-1,32
 1225 73 1225 73 1210 91 c 0,33,34
 1175 131 1175 131 1166 184 c 1,35,36
 1114 125 1114 125 1043 79 c 0,37,38
 1013 59 1013 59 975 40.5 c 128,-1,39
 937 22 937 22 892 7.5 c 128,-1,40
 847 -7 847 -7 794.5 -16 c 128,-1,41
 742 -25 742 -25 683 -25 c 0,42,43
 573 -25 573 -25 493 2.5 c 128,-1,44
 413 30 413 30 357.5 76 c 128,-1,45
 302 122 302 122 268 183 c 128,-1,46
 234 244 234 244 215 311 c 128,-1,47
 196 378 196 378 189.5 446.5 c 128,-1,48
 183 515 183 515 183 577 c 2,49,-1
 183 906 l 2,50,51
 183 948 183 948 172 971.5 c 128,-1,52
 161 995 161 995 144 1007.5 c 128,-1,53
 127 1020 127 1020 108 1024.5 c 128,-1,54
 89 1029 89 1029 72 1034.5 c 128,-1,55
 55 1040 55 1040 44 1049.5 c 128,-1,56
 33 1059 33 1059 33 1081 c 0,57,58
 33 1195 33 1195 151 1245.5 c 128,-1,59
 269 1296 269 1296 492 1296 c 0,60,61
 591 1296 591 1296 650 1272 c 128,-1,62
 709 1248 709 1248 740 1206.5 c 128,-1,63
 771 1165 771 1165 780 1108 c 128,-1,64
 789 1051 789 1051 789 985 c 2,65,-1
 789 491 l 2,66,67
 789 429 789 429 798.5 380.5 c 128,-1,68
 808 332 808 332 830.5 298 c 128,-1,69
 853 264 853 264 890 246.5 c 128,-1,70
 927 229 927 229 982 229 c 0,71,72
 1017 229 1017 229 1048 240 c 128,-1,73
 1079 251 1079 251 1102 271 c 128,-1,74
 1125 291 1125 291 1138.5 318.5 c 128,-1,75
 1152 346 1152 346 1152 379 c 2,76,-1
 1154 911 l 2,0,1
EndSplineSet
Substitution2: "'smcp' Lowercase to Small Capitals in Latin lookup 0 subtable" u.sc
EndChar

StartChar: m
Encoding: 109 109 31
Width: 2752
Flags: W
HStem: 0 21G<423.5 581.5 1353.5 1456.5 2232.5 2335> 1067 258<931.694 1273 1715.51 2118.5> 1276 20G<419.5 493>
VStem: 186 612<281.138 1014.48> 1083 604<276.873 1026.11> 1961 605<285.861 1021.23>
LayerCount: 2
Fore
SplineSet
1568 1202 m 1,0,1
 1585 1213 1585 1213 1612.5 1233.5 c 128,-1,2
 1640 1254 1640 1254 1694 1274.5 c 128,-1,3
 1748 1295 1748 1295 1837 1310 c 128,-1,4
 1926 1325 1926 1325 2066 1325 c 0,5,6
 2171 1325 2171 1325 2249 1300 c 128,-1,7
 2327 1275 2327 1275 2382.5 1232 c 128,-1,8
 2438 1189 2438 1189 2474 1130.5 c 128,-1,9
 2510 1072 2510 1072 2531 1004.5 c 128,-1,10
 2552 937 2552 937 2560 864 c 128,-1,11
 2568 791 2568 791 2568 719 c 2,12,-1
 2568 709 l 1,13,14
 2567 590 2567 590 2566.5 525.5 c 128,-1,15
 2566 461 2566 461 2566 431 c 128,-1,16
 2566 401 2566 401 2566 395.5 c 128,-1,17
 2566 390 2566 390 2566 390 c 2,18,19
 2566 348 2566 348 2577 324.5 c 128,-1,20
 2588 301 2588 301 2604.5 288.5 c 128,-1,21
 2621 276 2621 276 2640.5 271.5 c 128,-1,22
 2660 267 2660 267 2676.5 261.5 c 128,-1,23
 2693 256 2693 256 2704 246.5 c 128,-1,24
 2715 237 2715 237 2715 215 c 0,25,26
 2715 158 2715 158 2686.5 117.5 c 128,-1,27
 2658 77 2658 77 2603 50.5 c 128,-1,28
 2548 24 2548 24 2467.5 12 c 128,-1,29
 2387 0 2387 0 2283 0 c 0,30,31
 2182 0 2182 0 2103.5 12 c 128,-1,32
 2025 24 2025 24 1971 50.5 c 128,-1,33
 1917 77 1917 77 1889 117.5 c 128,-1,34
 1861 158 1861 158 1861 215 c 0,35,36
 1861 237 1861 237 1868.5 246.5 c 128,-1,37
 1876 256 1876 256 1887 261 c 128,-1,38
 1898 266 1898 266 1911 270 c 128,-1,39
 1924 274 1924 274 1935 285.5 c 128,-1,40
 1946 297 1946 297 1953.5 318.5 c 128,-1,41
 1961 340 1961 340 1961 381 c 2,42,-1
 1961 811 l 2,43,44
 1961 872 1961 872 1953.5 920 c 128,-1,45
 1946 968 1946 968 1929 1001 c 128,-1,46
 1912 1034 1912 1034 1883.5 1051.5 c 128,-1,47
 1855 1069 1855 1069 1812 1069 c 0,48,49
 1746 1069 1746 1069 1716.5 1027.5 c 128,-1,50
 1687 986 1687 986 1687 920 c 2,51,-1
 1687 393 l 2,52,53
 1687 350 1687 350 1695 326 c 128,-1,54
 1703 302 1703 302 1715.5 289.5 c 128,-1,55
 1728 277 1728 277 1742.5 272 c 128,-1,56
 1757 267 1757 267 1769.5 261.5 c 128,-1,57
 1782 256 1782 256 1790 246.5 c 128,-1,58
 1798 237 1798 237 1798 215 c 0,59,60
 1798 158 1798 158 1775.5 117.5 c 128,-1,61
 1753 77 1753 77 1705.5 50.5 c 128,-1,62
 1658 24 1658 24 1583.5 12 c 128,-1,63
 1509 0 1509 0 1404 0 c 0,64,65
 1303 0 1303 0 1224.5 12 c 128,-1,66
 1146 24 1146 24 1092 50.5 c 128,-1,67
 1038 77 1038 77 1010 117.5 c 128,-1,68
 982 158 982 158 982 215 c 0,69,70
 982 237 982 237 989.5 246.5 c 128,-1,71
 997 256 997 256 1008 261 c 128,-1,72
 1019 266 1019 266 1032.5 270 c 128,-1,73
 1046 274 1046 274 1057 285.5 c 128,-1,74
 1068 297 1068 297 1075.5 318.5 c 128,-1,75
 1083 340 1083 340 1083 381 c 2,76,-1
 1083 811 l 2,77,78
 1083 933 1083 933 1053.5 1000 c 128,-1,79
 1024 1067 1024 1067 948 1067 c 0,80,81
 918 1067 918 1067 891 1056 c 128,-1,82
 864 1045 864 1045 843 1024.5 c 128,-1,83
 822 1004 822 1004 810 976 c 128,-1,84
 798 948 798 948 798 915 c 2,85,-1
 798 385 l 2,86,87
 798 344 798 344 806.5 321 c 128,-1,88
 815 298 815 298 828 286.5 c 128,-1,89
 841 275 841 275 856.5 270.5 c 128,-1,90
 872 266 872 266 885 261 c 128,-1,91
 898 256 898 256 906.5 246.5 c 128,-1,92
 915 237 915 237 915 215 c 0,93,94
 915 101 915 101 801.5 50.5 c 128,-1,95
 688 0 688 0 475 0 c 0,96,97
 372 0 372 0 291 12 c 128,-1,98
 210 24 210 24 154.5 50.5 c 128,-1,99
 99 77 99 77 69.5 117.5 c 128,-1,100
 40 158 40 158 40 215 c 0,101,102
 40 237 40 237 51 246.5 c 128,-1,103
 62 256 62 256 78 261 c 128,-1,104
 94 266 94 266 113 270 c 128,-1,105
 132 274 132 274 148 285.5 c 128,-1,106
 164 297 164 297 175 318.5 c 128,-1,107
 186 340 186 340 186 381 c 2,108,-1
 186 915 l 2,109,110
 186 955 186 955 175 977 c 128,-1,111
 164 999 164 999 148 1010.5 c 128,-1,112
 132 1022 132 1022 113 1026 c 128,-1,113
 94 1030 94 1030 78 1035 c 128,-1,114
 62 1040 62 1040 51 1049.5 c 128,-1,115
 40 1059 40 1059 40 1081 c 0,116,117
 40 1138 40 1138 69 1178.5 c 128,-1,118
 98 1219 98 1219 153.5 1245.5 c 128,-1,119
 209 1272 209 1272 289 1284 c 128,-1,120
 369 1296 369 1296 470 1296 c 0,121,122
 516 1296 516 1296 553 1291.5 c 128,-1,123
 590 1287 590 1287 618.5 1279.5 c 128,-1,124
 647 1272 647 1272 668 1262.5 c 128,-1,125
 689 1253 689 1253 704 1243 c 0,126,127
 739 1219 739 1219 753 1190 c 1,128,129
 802 1227 802 1227 871 1257 c 0,130,131
 930 1283 930 1283 1015 1304 c 128,-1,132
 1100 1325 1100 1325 1214 1325 c 0,133,134
 1332 1325 1332 1325 1423 1291.5 c 128,-1,135
 1514 1258 1514 1258 1568 1202 c 1,0,1
EndSplineSet
Substitution2: "'smcp' Lowercase to Small Capitals in Latin lookup 0 subtable" m.sc
EndChar

StartChar: i
Encoding: 105 105 32
Width: 963
Flags: W
HStem: 0 21G<422 587.5> 1276 20G<422 530> 1393 495<301.383 686.234>
VStem: 167 651<1507.86 1772.41> 175 612<281.451 1014.86>
LayerCount: 2
Fore
SplineSet
167 1640 m 256,0,1
 167 1690 167 1690 184.5 1727.5 c 128,-1,2
 202 1765 202 1765 229.5 1792.5 c 128,-1,3
 257 1820 257 1820 292.5 1838.5 c 128,-1,4
 328 1857 328 1857 364 1868 c 128,-1,5
 400 1879 400 1879 433.5 1883.5 c 128,-1,6
 467 1888 467 1888 492 1888 c 0,7,8
 519 1888 519 1888 553.5 1883.5 c 128,-1,9
 588 1879 588 1879 624 1868 c 128,-1,10
 660 1857 660 1857 695 1838.5 c 128,-1,11
 730 1820 730 1820 757.5 1792.5 c 128,-1,12
 785 1765 785 1765 801.5 1727.5 c 128,-1,13
 818 1690 818 1690 818 1640 c 0,14,15
 818 1591 818 1591 801.5 1553 c 128,-1,16
 785 1515 785 1515 757.5 1488 c 128,-1,17
 730 1461 730 1461 695 1442.5 c 128,-1,18
 660 1424 660 1424 624 1413 c 128,-1,19
 588 1402 588 1402 553.5 1397.5 c 128,-1,20
 519 1393 519 1393 492 1393 c 0,21,22
 467 1393 467 1393 433.5 1397.5 c 128,-1,23
 400 1402 400 1402 364 1413 c 128,-1,24
 328 1424 328 1424 292.5 1442.5 c 128,-1,25
 257 1461 257 1461 229.5 1488 c 128,-1,26
 202 1515 202 1515 184.5 1552.5 c 128,-1,27
 167 1590 167 1590 167 1640 c 256,0,1
787 381 m 2,28,29
 787 341 787 341 798 319 c 128,-1,30
 809 297 809 297 825.5 285.5 c 128,-1,31
 842 274 842 274 861 270 c 128,-1,32
 880 266 880 266 896.5 261 c 128,-1,33
 913 256 913 256 924 246.5 c 128,-1,34
 935 237 935 237 935 215 c 0,35,36
 935 101 935 101 817 50.5 c 128,-1,37
 699 0 699 0 476 0 c 0,38,39
 368 0 368 0 285 12 c 128,-1,40
 202 24 202 24 145 50.5 c 128,-1,41
 88 77 88 77 58.5 117.5 c 128,-1,42
 29 158 29 158 29 215 c 0,43,44
 29 237 29 237 40 246.5 c 128,-1,45
 51 256 51 256 67 261 c 128,-1,46
 83 266 83 266 102 270 c 128,-1,47
 121 274 121 274 137 285.5 c 128,-1,48
 153 297 153 297 164 318.5 c 128,-1,49
 175 340 175 340 175 381 c 2,50,-1
 175 915 l 2,51,52
 175 955 175 955 164 977 c 128,-1,53
 153 999 153 999 137 1010.5 c 128,-1,54
 121 1022 121 1022 102 1026 c 128,-1,55
 83 1030 83 1030 67 1035 c 128,-1,56
 51 1040 51 1040 40 1049.5 c 128,-1,57
 29 1059 29 1059 29 1081 c 0,58,59
 29 1138 29 1138 58.5 1178.5 c 128,-1,60
 88 1219 88 1219 145 1245.5 c 128,-1,61
 202 1272 202 1272 285 1284 c 128,-1,62
 368 1296 368 1296 476 1296 c 256,63,64
 584 1296 584 1296 646 1285 c 128,-1,65
 708 1274 708 1274 739.5 1247.5 c 128,-1,66
 771 1221 771 1221 779 1176 c 128,-1,67
 787 1131 787 1131 787 1063 c 2,68,-1
 787 381 l 2,28,29
EndSplineSet
Substitution2: "'smcp' Lowercase to Small Capitals in Latin lookup 0 subtable" i.sc
EndChar

StartChar: b
Encoding: 98 98 33
Width: 1737
Flags: W
HStem: -25 254<926.654 1232> 0 21G<431 515.5> 1069 256<899.5 1250.5> 1866 20G<431 539>
VStem: 184 612<281.352 1052.32 1196 1604.86> 1085 631<347.451 962.741>
LayerCount: 2
Fore
SplineSet
798 1196 m 1,0,1
 826 1219 826 1219 863.5 1242 c 128,-1,2
 901 1265 901 1265 950 1283.5 c 128,-1,3
 999 1302 999 1302 1061 1313.5 c 128,-1,4
 1123 1325 1123 1325 1200 1325 c 0,5,6
 1301 1325 1301 1325 1378.5 1296 c 128,-1,7
 1456 1267 1456 1267 1513.5 1217.5 c 128,-1,8
 1571 1168 1571 1168 1610 1101 c 128,-1,9
 1649 1034 1649 1034 1672.5 958 c 128,-1,10
 1696 882 1696 882 1706 801 c 128,-1,11
 1716 720 1716 720 1716 641 c 0,12,13
 1716 557 1716 557 1702.5 475 c 128,-1,14
 1689 393 1689 393 1661.5 319 c 128,-1,15
 1634 245 1634 245 1591 182 c 128,-1,16
 1548 119 1548 119 1489 73 c 128,-1,17
 1430 27 1430 27 1354.5 1 c 128,-1,18
 1279 -25 1279 -25 1185 -25 c 0,19,20
 1098 -25 1098 -25 1030.5 -10.5 c 128,-1,21
 963 4 963 4 911.5 26 c 128,-1,22
 860 48 860 48 823.5 74.5 c 128,-1,23
 787 101 787 101 763 125 c 1,24,25
 749 96 749 96 727 72.5 c 128,-1,26
 705 49 705 49 672 33 c 128,-1,27
 639 17 639 17 592.5 8.5 c 128,-1,28
 546 0 546 0 485 0 c 0,29,30
 377 0 377 0 294 12 c 128,-1,31
 211 24 211 24 154 50.5 c 128,-1,32
 97 77 97 77 67.5 117.5 c 128,-1,33
 38 158 38 158 38 215 c 0,34,35
 38 237 38 237 49 246.5 c 128,-1,36
 60 256 60 256 76 261 c 128,-1,37
 92 266 92 266 111 270 c 128,-1,38
 130 274 130 274 146 285.5 c 128,-1,39
 162 297 162 297 173 318.5 c 128,-1,40
 184 340 184 340 184 381 c 2,41,-1
 184 1505 l 2,42,43
 184 1546 184 1546 173 1567.5 c 128,-1,44
 162 1589 162 1589 146 1600.5 c 128,-1,45
 130 1612 130 1612 111 1616 c 128,-1,46
 92 1620 92 1620 76 1625 c 128,-1,47
 60 1630 60 1630 49 1639.5 c 128,-1,48
 38 1649 38 1649 38 1671 c 0,49,50
 38 1728 38 1728 67.5 1768.5 c 128,-1,51
 97 1809 97 1809 154 1835.5 c 128,-1,52
 211 1862 211 1862 294 1874 c 128,-1,53
 377 1886 377 1886 485 1886 c 256,54,55
 593 1886 593 1886 655.5 1875 c 128,-1,56
 718 1864 718 1864 750 1837.5 c 128,-1,57
 782 1811 782 1811 791 1766 c 128,-1,58
 800 1721 800 1721 800 1653 c 2,59,-1
 798 1196 l 1,0,1
917 1069 m 0,60,61
 882 1069 882 1069 851.5 1057 c 128,-1,62
 821 1045 821 1045 796 1028 c 1,63,-1
 796 385 l 2,64,65
 796 356 796 356 796 328 c 128,-1,66
 796 300 796 300 794 274 c 1,67,68
 822 257 822 257 857 243 c 128,-1,69
 892 229 892 229 935 229 c 0,70,71
 991 229 991 229 1021.5 248.5 c 128,-1,72
 1052 268 1052 268 1066 315 c 128,-1,73
 1080 362 1080 362 1082.5 440.5 c 128,-1,74
 1085 519 1085 519 1085 637 c 0,75,76
 1085 761 1085 761 1076 844.5 c 128,-1,77
 1067 928 1067 928 1047 977.5 c 128,-1,78
 1027 1027 1027 1027 995 1048 c 128,-1,79
 963 1069 963 1069 917 1069 c 0,60,61
EndSplineSet
Substitution2: "'smcp' Lowercase to Small Capitals in Latin lookup 0 subtable" b.sc
EndChar

StartChar: d
Encoding: 100 100 34
Width: 1731
Flags: W
HStem: -25 254<481.5 794.498> 0 21G<1208 1349.5> 1069 256<509.5 810.92> 1866 20G<1184.5 1292>
VStem: 22 604<323.08 943.242> 937 613<282.137 1037.45 1204 1605.17>
LayerCount: 2
Fore
SplineSet
1550 385 m 2,0,1
 1550 344 1550 344 1561 321 c 128,-1,2
 1572 298 1572 298 1588 286.5 c 128,-1,3
 1604 275 1604 275 1623.5 270.5 c 128,-1,4
 1643 266 1643 266 1659 261 c 128,-1,5
 1675 256 1675 256 1686 246.5 c 128,-1,6
 1697 237 1697 237 1697 215 c 0,7,8
 1697 101 1697 101 1579 50.5 c 128,-1,9
 1461 0 1461 0 1238 0 c 0,10,11
 1178 0 1178 0 1133 9 c 128,-1,12
 1088 18 1088 18 1055.5 34.5 c 128,-1,13
 1023 51 1023 51 1002 74.5 c 128,-1,14
 981 98 981 98 968 127 c 1,15,16
 942 103 942 103 904.5 76 c 128,-1,17
 867 49 867 49 813.5 26.5 c 128,-1,18
 760 4 760 4 690.5 -10.5 c 128,-1,19
 621 -25 621 -25 532 -25 c 0,20,21
 431 -25 431 -25 353.5 3 c 128,-1,22
 276 31 276 31 219.5 79.5 c 128,-1,23
 163 128 163 128 125 193 c 128,-1,24
 87 258 87 258 64 332 c 128,-1,25
 41 406 41 406 31.5 485 c 128,-1,26
 22 564 22 564 22 641 c 0,27,28
 22 720 22 720 33.5 801 c 128,-1,29
 45 882 45 882 71.5 958 c 128,-1,30
 98 1034 98 1034 139.5 1101 c 128,-1,31
 181 1168 181 1168 240.5 1217.5 c 128,-1,32
 300 1267 300 1267 379.5 1296 c 128,-1,33
 459 1325 459 1325 560 1325 c 0,34,35
 631 1325 631 1325 689 1314.5 c 128,-1,36
 747 1304 747 1304 793.5 1287 c 128,-1,37
 840 1270 840 1270 875.5 1248 c 128,-1,38
 911 1226 911 1226 937 1204 c 1,39,-1
 937 1505 l 2,40,41
 937 1546 937 1546 926.5 1567.5 c 128,-1,42
 916 1589 916 1589 899.5 1600.5 c 128,-1,43
 883 1612 883 1612 864.5 1616 c 128,-1,44
 846 1620 846 1620 829.5 1625 c 128,-1,45
 813 1630 813 1630 802.5 1639.5 c 128,-1,46
 792 1649 792 1649 792 1671 c 0,47,48
 792 1728 792 1728 821.5 1768.5 c 128,-1,49
 851 1809 851 1809 908 1835.5 c 128,-1,50
 965 1862 965 1862 1048 1874 c 128,-1,51
 1131 1886 1131 1886 1238 1886 c 0,52,53
 1346 1886 1346 1886 1408.5 1875 c 128,-1,54
 1471 1864 1471 1864 1503.5 1837.5 c 128,-1,55
 1536 1811 1536 1811 1545 1766 c 128,-1,56
 1554 1721 1554 1721 1554 1653 c 2,57,-1
 1550 385 l 2,0,1
792 229 m 0,58,59
 832 229 832 229 871 243 c 128,-1,60
 910 257 910 257 939 274 c 1,61,62
 937 300 937 300 937 326.5 c 128,-1,63
 937 353 937 353 937 381 c 2,64,-1
 937 1014 l 1,65,66
 903 1034 903 1034 862 1051.5 c 128,-1,67
 821 1069 821 1069 778 1069 c 0,68,69
 732 1069 732 1069 702.5 1048 c 128,-1,70
 673 1027 673 1027 656 977.5 c 128,-1,71
 639 928 639 928 632.5 844.5 c 128,-1,72
 626 761 626 761 626 637 c 0,73,74
 626 562 626 562 631 489 c 128,-1,75
 636 416 636 416 653 358.5 c 128,-1,76
 670 301 670 301 703 265 c 128,-1,77
 736 229 736 229 792 229 c 0,58,59
EndSplineSet
Substitution2: "'smcp' Lowercase to Small Capitals in Latin lookup 0 subtable" d.sc
EndChar

StartChar: h
Encoding: 104 104 35
Width: 1923
Flags: W
HStem: 0 21G<379.5 598.5 1394 1559.5> 1069 256<943.5 1313> 1866 20G<379.5 541>
VStem: 186 612<282.434 1030.77 1151 1605.17> 1151 604<285.465 1003.98>
LayerCount: 2
Fore
SplineSet
800 1151 m 1,0,1
 823 1176 823 1176 861 1206 c 128,-1,2
 899 1236 899 1236 955 1262.5 c 128,-1,3
 1011 1289 1011 1289 1085.5 1307 c 128,-1,4
 1160 1325 1160 1325 1257 1325 c 0,5,6
 1369 1325 1369 1325 1449 1296.5 c 128,-1,7
 1529 1268 1529 1268 1584.5 1220 c 128,-1,8
 1640 1172 1640 1172 1673.5 1109.5 c 128,-1,9
 1707 1047 1707 1047 1725 978.5 c 128,-1,10
 1743 910 1743 910 1749 840.5 c 128,-1,11
 1755 771 1755 771 1755 709 c 2,12,-1
 1755 393 l 2,13,14
 1755 350 1755 350 1766 326 c 128,-1,15
 1777 302 1777 302 1794 289.5 c 128,-1,16
 1811 277 1811 277 1830.5 272 c 128,-1,17
 1850 267 1850 267 1867 261.5 c 128,-1,18
 1884 256 1884 256 1895 246.5 c 128,-1,19
 1906 237 1906 237 1906 215 c 0,20,21
 1906 101 1906 101 1788.5 50.5 c 128,-1,22
 1671 0 1671 0 1448 0 c 0,23,24
 1340 0 1340 0 1257 12 c 128,-1,25
 1174 24 1174 24 1117 50.5 c 128,-1,26
 1060 77 1060 77 1030.5 117.5 c 128,-1,27
 1001 158 1001 158 1001 215 c 0,28,29
 1001 237 1001 237 1012 246.5 c 128,-1,30
 1023 256 1023 256 1040 261.5 c 128,-1,31
 1057 267 1057 267 1076 271.5 c 128,-1,32
 1095 276 1095 276 1112 288 c 128,-1,33
 1129 300 1129 300 1140 323 c 128,-1,34
 1151 346 1151 346 1151 389 c 2,35,-1
 1151 797 l 2,36,37
 1151 861 1151 861 1142 912 c 128,-1,38
 1133 963 1133 963 1111 997.5 c 128,-1,39
 1089 1032 1089 1032 1051.5 1050.5 c 128,-1,40
 1014 1069 1014 1069 958 1069 c 0,41,42
 929 1069 929 1069 905 1061 c 128,-1,43
 881 1053 881 1053 860.5 1041.5 c 128,-1,44
 840 1030 840 1030 824.5 1017 c 128,-1,45
 809 1004 809 1004 798 993 c 1,46,-1
 798 385 l 2,47,48
 798 344 798 344 809 321 c 128,-1,49
 820 298 820 298 836.5 286.5 c 128,-1,50
 853 275 853 275 872 270.5 c 128,-1,51
 891 266 891 266 907.5 261 c 128,-1,52
 924 256 924 256 935 246.5 c 128,-1,53
 946 237 946 237 946 215 c 0,54,55
 946 101 946 101 828 50.5 c 128,-1,56
 710 0 710 0 487 0 c 0,57,58
 272 0 272 0 156.5 50.5 c 128,-1,59
 41 101 41 101 41 215 c 0,60,61
 41 237 41 237 51.5 246.5 c 128,-1,62
 62 256 62 256 78.5 261 c 128,-1,63
 95 266 95 266 113.5 270 c 128,-1,64
 132 274 132 274 148.5 285.5 c 128,-1,65
 165 297 165 297 175.5 318.5 c 128,-1,66
 186 340 186 340 186 381 c 2,67,-1
 186 1505 l 2,68,69
 186 1546 186 1546 175.5 1567.5 c 128,-1,70
 165 1589 165 1589 148.5 1600.5 c 128,-1,71
 132 1612 132 1612 113.5 1616 c 128,-1,72
 95 1620 95 1620 78.5 1625 c 128,-1,73
 62 1630 62 1630 51.5 1639.5 c 128,-1,74
 41 1649 41 1649 41 1671 c 0,75,76
 41 1785 41 1785 156.5 1835.5 c 128,-1,77
 272 1886 272 1886 487 1886 c 0,78,79
 595 1886 595 1886 657.5 1875 c 128,-1,80
 720 1864 720 1864 752 1837.5 c 128,-1,81
 784 1811 784 1811 793 1766 c 128,-1,82
 802 1721 802 1721 802 1653 c 2,83,-1
 800 1151 l 1,0,1
EndSplineSet
Substitution2: "'smcp' Lowercase to Small Capitals in Latin lookup 0 subtable" h.sc
EndChar

StartChar: l
Encoding: 108 108 36
Width: 969
Flags: W
HStem: 0 21G<428.5 593.5> 1866 20G<428.5 536>
VStem: 181 613<282.117 1605.17>
LayerCount: 2
Fore
SplineSet
794 385 m 2,0,1
 794 344 794 344 805 321 c 128,-1,2
 816 298 816 298 832 286.5 c 128,-1,3
 848 275 848 275 867.5 270.5 c 128,-1,4
 887 266 887 266 903 261 c 128,-1,5
 919 256 919 256 930 246.5 c 128,-1,6
 941 237 941 237 941 215 c 0,7,8
 941 101 941 101 823 50.5 c 128,-1,9
 705 0 705 0 482 0 c 0,10,11
 375 0 375 0 292 12 c 128,-1,12
 209 24 209 24 152 50.5 c 128,-1,13
 95 77 95 77 65.5 117.5 c 128,-1,14
 36 158 36 158 36 215 c 0,15,16
 36 237 36 237 46.5 246.5 c 128,-1,17
 57 256 57 256 73.5 261 c 128,-1,18
 90 266 90 266 108.5 270 c 128,-1,19
 127 274 127 274 143.5 285.5 c 128,-1,20
 160 297 160 297 170.5 318.5 c 128,-1,21
 181 340 181 340 181 381 c 2,22,-1
 181 1505 l 2,23,24
 181 1546 181 1546 170.5 1567.5 c 128,-1,25
 160 1589 160 1589 143.5 1600.5 c 128,-1,26
 127 1612 127 1612 108.5 1616 c 128,-1,27
 90 1620 90 1620 73.5 1625 c 128,-1,28
 57 1630 57 1630 46.5 1639.5 c 128,-1,29
 36 1649 36 1649 36 1671 c 0,30,31
 36 1728 36 1728 65.5 1768.5 c 128,-1,32
 95 1809 95 1809 152 1835.5 c 128,-1,33
 209 1862 209 1862 292 1874 c 128,-1,34
 375 1886 375 1886 482 1886 c 0,35,36
 590 1886 590 1886 652 1875 c 128,-1,37
 714 1864 714 1864 745.5 1837.5 c 128,-1,38
 777 1811 777 1811 785.5 1766 c 128,-1,39
 794 1721 794 1721 794 1653 c 2,40,-1
 794 385 l 2,0,1
EndSplineSet
Substitution2: "'smcp' Lowercase to Small Capitals in Latin lookup 0 subtable" l.sc
EndChar

StartChar: r
Encoding: 114 114 37
Width: 1349
Flags: W
HStem: 0 21G<430 595.5> 1063 246<824.215 1050>
VStem: 183 612<282.434 1014.86>
LayerCount: 2
Fore
SplineSet
795 385 m 2,0,1
 795 344 795 344 806 321 c 128,-1,2
 817 298 817 298 833.5 286.5 c 128,-1,3
 850 275 850 275 869 270.5 c 128,-1,4
 888 266 888 266 904.5 261 c 128,-1,5
 921 256 921 256 932 246.5 c 128,-1,6
 943 237 943 237 943 215 c 0,7,8
 943 101 943 101 825 50.5 c 128,-1,9
 707 0 707 0 484 0 c 0,10,11
 376 0 376 0 293 12 c 128,-1,12
 210 24 210 24 153 50.5 c 128,-1,13
 96 77 96 77 66.5 117.5 c 128,-1,14
 37 158 37 158 37 215 c 0,15,16
 37 237 37 237 48 246.5 c 128,-1,17
 59 256 59 256 75 261 c 128,-1,18
 91 266 91 266 110 270 c 128,-1,19
 129 274 129 274 145 285.5 c 128,-1,20
 161 297 161 297 172 318.5 c 128,-1,21
 183 340 183 340 183 381 c 2,22,-1
 183 915 l 2,23,24
 183 955 183 955 172 977 c 128,-1,25
 161 999 161 999 145 1010.5 c 128,-1,26
 129 1022 129 1022 110 1026 c 128,-1,27
 91 1030 91 1030 75 1035 c 128,-1,28
 59 1040 59 1040 48 1049.5 c 128,-1,29
 37 1059 37 1059 37 1081 c 0,30,31
 37 1138 37 1138 66.5 1178.5 c 128,-1,32
 96 1219 96 1219 153 1245.5 c 128,-1,33
 210 1272 210 1272 293 1284 c 128,-1,34
 376 1296 376 1296 484 1296 c 0,35,36
 583 1296 583 1296 642.5 1276.5 c 128,-1,37
 702 1257 702 1257 736 1219 c 1,38,39
 764 1237 764 1237 794 1253.5 c 128,-1,40
 824 1270 824 1270 858 1282.5 c 128,-1,41
 892 1295 892 1295 932 1302 c 128,-1,42
 972 1309 972 1309 1020 1309 c 0,43,44
 1080 1309 1080 1309 1135.5 1296.5 c 128,-1,45
 1191 1284 1191 1284 1234 1255.5 c 128,-1,46
 1277 1227 1277 1227 1302.5 1181.5 c 128,-1,47
 1328 1136 1328 1136 1328 1069 c 0,48,49
 1328 1025 1328 1025 1313 983 c 128,-1,50
 1298 941 1298 941 1268.5 908.5 c 128,-1,51
 1239 876 1239 876 1194.5 856 c 128,-1,52
 1150 836 1150 836 1092 836 c 256,53,54
 1034 836 1034 836 1001 853 c 128,-1,55
 968 870 968 870 950 895 c 128,-1,56
 932 920 932 920 923.5 949.5 c 128,-1,57
 915 979 915 979 905.5 1004 c 128,-1,58
 896 1029 896 1029 880.5 1046 c 128,-1,59
 865 1063 865 1063 834 1063 c 256,60,61
 803 1063 803 1063 793 1055.5 c 128,-1,62
 783 1048 783 1048 783 1034 c 0,63,64
 783 1016 783 1016 790 988 c 128,-1,65
 797 960 797 960 797 920 c 2,66,-1
 795 385 l 2,0,1
EndSplineSet
Substitution2: "'smcp' Lowercase to Small Capitals in Latin lookup 0 subtable" r.sc
EndChar

StartChar: p
Encoding: 112 112 38
Width: 1666
Flags: W
HStem: -561 21G<430.5 595.5> -25 265<874.885 1183.5> 1069 256<829 1127> 1276 20G<430.5 542.5>
VStem: 183 613<-278.883 57 243.754 1015.17> 1033 610<322.844 962.741>
LayerCount: 2
Fore
SplineSet
1643 641 m 0,0,1
 1643 564 1643 564 1633.5 485 c 128,-1,2
 1624 406 1624 406 1601 332 c 128,-1,3
 1578 258 1578 258 1540 193 c 128,-1,4
 1502 128 1502 128 1445.5 79.5 c 128,-1,5
 1389 31 1389 31 1311.5 3 c 128,-1,6
 1234 -25 1234 -25 1133 -25 c 0,7,8
 1019 -25 1019 -25 936.5 -1 c 128,-1,9
 854 23 854 23 796 57 c 1,10,-1
 796 -176 l 2,11,12
 796 -218 796 -218 807 -240.5 c 128,-1,13
 818 -263 818 -263 834 -274.5 c 128,-1,14
 850 -286 850 -286 869.5 -290.5 c 128,-1,15
 889 -295 889 -295 905 -300 c 128,-1,16
 921 -305 921 -305 932 -314.5 c 128,-1,17
 943 -324 943 -324 943 -346 c 0,18,19
 943 -460 943 -460 825 -510.5 c 128,-1,20
 707 -561 707 -561 484 -561 c 0,21,22
 377 -561 377 -561 294 -549 c 128,-1,23
 211 -537 211 -537 154 -510.5 c 128,-1,24
 97 -484 97 -484 67.5 -443.5 c 128,-1,25
 38 -403 38 -403 38 -346 c 0,26,27
 38 -324 38 -324 48.5 -314.5 c 128,-1,28
 59 -305 59 -305 75.5 -300 c 128,-1,29
 92 -295 92 -295 110.5 -291 c 128,-1,30
 129 -287 129 -287 145.5 -275.5 c 128,-1,31
 162 -264 162 -264 172.5 -242.5 c 128,-1,32
 183 -221 183 -221 183 -180 c 2,33,-1
 183 915 l 2,34,35
 183 955 183 955 172.5 977 c 128,-1,36
 162 999 162 999 145.5 1010.5 c 128,-1,37
 129 1022 129 1022 110.5 1026 c 128,-1,38
 92 1030 92 1030 75.5 1035 c 128,-1,39
 59 1040 59 1040 48.5 1049.5 c 128,-1,40
 38 1059 38 1059 38 1081 c 0,41,42
 38 1138 38 1138 67.5 1178.5 c 128,-1,43
 97 1219 97 1219 154 1245.5 c 128,-1,44
 211 1272 211 1272 294 1284 c 128,-1,45
 377 1296 377 1296 484 1296 c 0,46,47
 601 1296 601 1296 664.5 1279 c 128,-1,48
 728 1262 728 1262 757 1219 c 1,49,50
 785 1240 785 1240 821 1259 c 128,-1,51
 857 1278 857 1278 902.5 1292.5 c 128,-1,52
 948 1307 948 1307 1003.5 1316 c 128,-1,53
 1059 1325 1059 1325 1127 1325 c 0,54,55
 1228 1325 1228 1325 1306 1296 c 128,-1,56
 1384 1267 1384 1267 1441.5 1217.5 c 128,-1,57
 1499 1168 1499 1168 1537.5 1101 c 128,-1,58
 1576 1034 1576 1034 1599.5 958 c 128,-1,59
 1623 882 1623 882 1633 801 c 128,-1,60
 1643 720 1643 720 1643 641 c 0,0,1
796 256 m 1,61,62
 817 248 817 248 839 244 c 128,-1,63
 861 240 861 240 884 240 c 0,64,65
 940 240 940 240 970 257.5 c 128,-1,66
 1000 275 1000 275 1014 320 c 128,-1,67
 1028 365 1028 365 1030.5 442 c 128,-1,68
 1033 519 1033 519 1033 637 c 0,69,70
 1033 761 1033 761 1024 844.5 c 128,-1,71
 1015 928 1015 928 995 977.5 c 128,-1,72
 975 1027 975 1027 943 1048 c 128,-1,73
 911 1069 911 1069 865 1069 c 0,74,75
 847 1069 847 1069 829 1066 c 128,-1,76
 811 1063 811 1063 796 1057 c 1,77,78
 798 1026 798 1026 798 991 c 128,-1,79
 798 956 798 956 798 915 c 2,80,-1
 796 256 l 1,61,62
EndSplineSet
Substitution2: "'smcp' Lowercase to Small Capitals in Latin lookup 0 subtable" p.sc
EndChar

StartChar: q
Encoding: 113 113 39
Width: 1732
Flags: W
HStem: -561 21G<1136.5 1301.5> -25 265<482.5 793.092> 1069 256<539 872.5> 1276 20G<1213 1301.5>
VStem: 23 610<322.844 962.741> 934 615<-280.115 104 263.979 1015.17>
LayerCount: 2
Fore
SplineSet
934 104 m 1,0,1
 907 80 907 80 869.5 57 c 128,-1,2
 832 34 832 34 782.5 16 c 128,-1,3
 733 -2 733 -2 671 -13.5 c 128,-1,4
 609 -25 609 -25 533 -25 c 0,5,6
 432 -25 432 -25 354.5 3 c 128,-1,7
 277 31 277 31 220.5 79.5 c 128,-1,8
 164 128 164 128 126 193 c 128,-1,9
 88 258 88 258 65 332 c 128,-1,10
 42 406 42 406 32.5 485 c 128,-1,11
 23 564 23 564 23 641 c 0,12,13
 23 720 23 720 33 801 c 128,-1,14
 43 882 43 882 66.5 958 c 128,-1,15
 90 1034 90 1034 129 1101 c 128,-1,16
 168 1168 168 1168 225.5 1217.5 c 128,-1,17
 283 1267 283 1267 360.5 1296 c 128,-1,18
 438 1325 438 1325 539 1325 c 0,19,20
 620 1325 620 1325 685 1311.5 c 128,-1,21
 750 1298 750 1298 801.5 1277 c 128,-1,22
 853 1256 853 1256 891 1230 c 128,-1,23
 929 1204 929 1204 955 1180 c 1,24,25
 966 1213 966 1213 987 1235 c 128,-1,26
 1008 1257 1008 1257 1042.5 1270.5 c 128,-1,27
 1077 1284 1077 1284 1127.5 1290 c 128,-1,28
 1178 1296 1178 1296 1248 1296 c 0,29,30
 1355 1296 1355 1296 1438 1284 c 128,-1,31
 1521 1272 1521 1272 1578 1245.5 c 128,-1,32
 1635 1219 1635 1219 1664.5 1178.5 c 128,-1,33
 1694 1138 1694 1138 1694 1081 c 0,34,35
 1694 1059 1694 1059 1683.5 1049.5 c 128,-1,36
 1673 1040 1673 1040 1656.5 1035 c 128,-1,37
 1640 1030 1640 1030 1621.5 1026 c 128,-1,38
 1603 1022 1603 1022 1586.5 1010.5 c 128,-1,39
 1570 999 1570 999 1559.5 977 c 128,-1,40
 1549 955 1549 955 1549 915 c 2,41,-1
 1549 -180 l 2,42,43
 1549 -221 1549 -221 1559.5 -242.5 c 128,-1,44
 1570 -264 1570 -264 1586.5 -275.5 c 128,-1,45
 1603 -287 1603 -287 1621.5 -291 c 128,-1,46
 1640 -295 1640 -295 1656.5 -300 c 128,-1,47
 1673 -305 1673 -305 1683.5 -314.5 c 128,-1,48
 1694 -324 1694 -324 1694 -346 c 0,49,50
 1694 -403 1694 -403 1664.5 -443.5 c 128,-1,51
 1635 -484 1635 -484 1578 -510.5 c 128,-1,52
 1521 -537 1521 -537 1438 -549 c 128,-1,53
 1355 -561 1355 -561 1248 -561 c 0,54,55
 1025 -561 1025 -561 907 -510.5 c 128,-1,56
 789 -460 789 -460 789 -346 c 0,57,58
 789 -324 789 -324 800 -314.5 c 128,-1,59
 811 -305 811 -305 827 -300 c 128,-1,60
 843 -295 843 -295 862.5 -290.5 c 128,-1,61
 882 -286 882 -286 898 -274.5 c 128,-1,62
 914 -263 914 -263 925 -240.5 c 128,-1,63
 936 -218 936 -218 936 -176 c 2,64,-1
 934 104 l 1,0,1
783 240 m 0,65,66
 823 240 823 240 863 254 c 128,-1,67
 903 268 903 268 934 285 c 1,68,-1
 934 1024 l 1,69,70
 906 1043 906 1043 872.5 1056 c 128,-1,71
 839 1069 839 1069 801 1069 c 0,72,73
 755 1069 755 1069 723 1048 c 128,-1,74
 691 1027 691 1027 671 977.5 c 128,-1,75
 651 928 651 928 642 844.5 c 128,-1,76
 633 761 633 761 633 637 c 0,77,78
 633 519 633 519 635.5 442 c 128,-1,79
 638 365 638 365 652 320 c 128,-1,80
 666 275 666 275 696.5 257.5 c 128,-1,81
 727 240 727 240 783 240 c 0,65,66
EndSplineSet
Substitution2: "'smcp' Lowercase to Small Capitals in Latin lookup 0 subtable" q.sc
EndChar

StartChar: t
Encoding: 116 116 40
Width: 1131
Flags: W
HStem: -25 353<587 886> 1096 200<755 1085.31> 1686 20G<669.5 697.5>
VStem: 149 606<344.076 1096>
LayerCount: 2
Fore
SplineSet
757 498 m 2,0,1
 757 465 757 465 759 434.5 c 128,-1,2
 761 404 761 404 771 380 c 128,-1,3
 781 356 781 356 802 342 c 128,-1,4
 823 328 823 328 860 328 c 0,5,6
 912 328 912 328 950.5 341.5 c 128,-1,7
 989 355 989 355 1030 377 c 0,8,9
 1046 386 1046 386 1060 386 c 0,10,11
 1083 386 1083 386 1096.5 366 c 128,-1,12
 1110 346 1110 346 1110 321 c 0,13,14
 1110 304 1110 304 1105 293 c 0,15,16
 1076 219 1076 219 1030.5 160 c 128,-1,17
 985 101 985 101 925.5 60 c 128,-1,18
 866 19 866 19 795 -3 c 128,-1,19
 724 -25 724 -25 643 -25 c 0,20,21
 531 -25 531 -25 451 3.5 c 128,-1,22
 371 32 371 32 316 79.5 c 128,-1,23
 261 127 261 127 228 189.5 c 128,-1,24
 195 252 195 252 177.5 320.5 c 128,-1,25
 160 389 160 389 154.5 458.5 c 128,-1,26
 149 528 149 528 149 590 c 2,27,-1
 149 1096 l 1,28,-1
 100 1096 l 2,29,30
 63 1096 63 1096 42 1117.5 c 128,-1,31
 21 1139 21 1139 21 1165 c 0,32,33
 21 1196 21 1196 49 1217 c 0,34,35
 166 1301 166 1301 263 1379.5 c 128,-1,36
 360 1458 360 1458 430 1520 c 0,37,38
 512 1592 512 1592 577 1655 c 0,39,40
 603 1681 603 1681 630 1693.5 c 128,-1,41
 657 1706 657 1706 682 1706 c 0,42,43
 713 1706 713 1706 734 1685 c 128,-1,44
 755 1664 755 1664 755 1620 c 2,45,-1
 755 1296 l 1,46,-1
 999 1296 l 2,47,48
 1011 1296 1011 1296 1027.5 1294.5 c 128,-1,49
 1044 1293 1044 1293 1059 1284 c 128,-1,50
 1074 1275 1074 1275 1084.5 1255.5 c 128,-1,51
 1095 1236 1095 1236 1095 1200 c 0,52,53
 1095 1161 1095 1161 1085 1140 c 128,-1,54
 1075 1119 1075 1119 1060 1109 c 128,-1,55
 1045 1099 1045 1099 1028.5 1097.5 c 128,-1,56
 1012 1096 1012 1096 999 1096 c 2,57,-1
 755 1096 l 1,58,-1
 757 498 l 2,0,1
EndSplineSet
Substitution2: "'smcp' Lowercase to Small Capitals in Latin lookup 0 subtable" t.sc
EndChar

StartChar: a
Encoding: 97 97 41
Width: 1575
Flags: W
HStem: -25 230<393.5 728.5> 0 21G<1168.5 1280.5> 648 112<645.472 808.563> 1137 188<600.268 749.866>
VStem: 35 544<230.576 518.081> 133 416<885.514 1082.61> 815 579<282.293 647.625 760 1013.04>
LayerCount: 2
Fore
SplineSet
712 205 m 0,0,1
 745 205 745 205 765.5 215.5 c 128,-1,2
 786 226 786 226 797 245.5 c 128,-1,3
 808 265 808 265 811.5 293.5 c 128,-1,4
 815 322 815 322 815 358 c 0,5,6
 815 389 815 389 814 437 c 128,-1,7
 813 485 813 485 812 531 c 0,8,9
 810 585 810 585 809 643 c 1,10,11
 795 645 795 645 782.5 646.5 c 128,-1,12
 770 648 770 648 758 648 c 0,13,14
 707 648 707 648 672.5 627.5 c 128,-1,15
 638 607 638 607 617 570.5 c 128,-1,16
 596 534 596 534 587.5 484.5 c 128,-1,17
 579 435 579 435 579 377 c 0,18,19
 579 342 579 342 583 310.5 c 128,-1,20
 587 279 587 279 601 255.5 c 128,-1,21
 615 232 615 232 641.5 218.5 c 128,-1,22
 668 205 668 205 712 205 c 0,0,1
1194 0 m 0,23,24
 1143 0 1143 0 1092.5 5.5 c 128,-1,25
 1042 11 1042 11 996.5 28 c 128,-1,26
 951 45 951 45 913 77 c 128,-1,27
 875 109 875 109 848 162 c 1,28,29
 828 115 828 115 783.5 80 c 128,-1,30
 739 45 739 45 682.5 21.5 c 128,-1,31
 626 -2 626 -2 563.5 -13.5 c 128,-1,32
 501 -25 501 -25 444 -25 c 0,33,34
 343 -25 343 -25 267 -1 c 128,-1,35
 191 23 191 23 139 67.5 c 128,-1,36
 87 112 87 112 61 174 c 128,-1,37
 35 236 35 236 35 313 c 0,38,39
 35 404 35 404 65.5 485.5 c 128,-1,40
 96 567 96 567 169.5 628 c 128,-1,41
 243 689 243 689 366 724.5 c 128,-1,42
 489 760 489 760 674 760 c 2,43,-1
 811 760 l 1,44,45
 811 871 811 871 803.5 944 c 128,-1,46
 796 1017 796 1017 780 1060 c 128,-1,47
 764 1103 764 1103 740 1120 c 128,-1,48
 716 1137 716 1137 682 1137 c 0,49,50
 644 1137 644 1137 618.5 1114 c 128,-1,51
 593 1091 593 1091 577.5 1047.5 c 128,-1,52
 562 1004 562 1004 555.5 942.5 c 128,-1,53
 549 881 549 881 549 803 c 1,54,55
 506 803 506 803 458.5 804.5 c 128,-1,56
 411 806 411 806 364.5 812 c 128,-1,57
 318 818 318 818 276.5 830.5 c 128,-1,58
 235 843 235 843 203 864.5 c 128,-1,59
 171 886 171 886 152 919 c 128,-1,60
 133 952 133 952 133 999 c 0,61,62
 133 1065 133 1065 167.5 1124 c 128,-1,63
 202 1183 202 1183 273.5 1227.5 c 128,-1,64
 345 1272 345 1272 455 1298.5 c 128,-1,65
 565 1325 565 1325 717 1325 c 0,66,67
 894 1325 894 1325 1022 1289 c 128,-1,68
 1150 1253 1150 1253 1232.5 1181 c 128,-1,69
 1315 1109 1315 1109 1354.5 999.5 c 128,-1,70
 1394 890 1394 890 1394 743 c 2,71,-1
 1394 389 l 2,72,73
 1394 346 1394 346 1405.5 322 c 128,-1,74
 1417 298 1417 298 1433.5 285.5 c 128,-1,75
 1450 273 1450 273 1470 268 c 128,-1,76
 1490 263 1490 263 1506.5 257.5 c 128,-1,77
 1523 252 1523 252 1534.5 242.5 c 128,-1,78
 1546 233 1546 233 1546 211 c 0,79,80
 1546 111 1546 111 1456.5 55.5 c 128,-1,81
 1367 0 1367 0 1194 0 c 0,23,24
EndSplineSet
Substitution2: "'smcp' Lowercase to Small Capitals in Latin lookup 0 subtable" a.sc
EndChar

StartChar: f
Encoding: 102 102 42
Width: 1040
Flags: W
HStem: 0 21G<422 587.5> 1098 198<37.9235 175 787 972.771> 1638 222<725.898 862.703>
VStem: 175 612<280.117 1096 1296 1484.45> 842 451<1417.35 1635.99>
LayerCount: 2
Fore
SplineSet
181 1296 m 1,0,1
 181 1368 181 1368 195 1437.5 c 128,-1,2
 209 1507 209 1507 239 1569.5 c 128,-1,3
 269 1632 269 1632 316.5 1685.5 c 128,-1,4
 364 1739 364 1739 431.5 1777.5 c 128,-1,5
 499 1816 499 1816 587 1838 c 128,-1,6
 675 1860 675 1860 787 1860 c 0,7,8
 890 1860 890 1860 982 1843.5 c 128,-1,9
 1074 1827 1074 1827 1143 1789.5 c 128,-1,10
 1212 1752 1212 1752 1252.5 1690.5 c 128,-1,11
 1293 1629 1293 1629 1293 1540 c 0,12,13
 1293 1512 1293 1512 1282.5 1478.5 c 128,-1,14
 1272 1445 1272 1445 1247 1415.5 c 128,-1,15
 1222 1386 1222 1386 1180.5 1366 c 128,-1,16
 1139 1346 1139 1346 1078 1346 c 0,17,18
 1013 1346 1013 1346 968.5 1363 c 128,-1,19
 924 1380 924 1380 895.5 1407 c 128,-1,20
 867 1434 867 1434 854.5 1467.5 c 128,-1,21
 842 1501 842 1501 842 1534 c 0,22,23
 842 1553 842 1553 846.5 1580 c 128,-1,24
 851 1607 851 1607 865 1638 c 1,25,26
 823 1638 823 1638 795.5 1634 c 128,-1,27
 768 1630 768 1630 751.5 1621.5 c 128,-1,28
 735 1613 735 1613 728 1601 c 128,-1,29
 721 1589 721 1589 721 1573 c 0,30,31
 721 1552 721 1552 730 1523.5 c 128,-1,32
 739 1495 739 1495 750 1460 c 128,-1,33
 761 1425 761 1425 770 1384 c 128,-1,34
 779 1343 779 1343 779 1296 c 1,35,-1
 885 1296 l 2,36,37
 897 1296 897 1296 914 1294.5 c 128,-1,38
 931 1293 931 1293 946 1284 c 128,-1,39
 961 1275 961 1275 971.5 1255.5 c 128,-1,40
 982 1236 982 1236 982 1200 c 0,41,42
 982 1166 982 1166 974 1145.5 c 128,-1,43
 966 1125 966 1125 953.5 1114.5 c 128,-1,44
 941 1104 941 1104 926.5 1101 c 128,-1,45
 912 1098 912 1098 899 1098 c 2,46,-1
 787 1098 l 1,47,-1
 787 383 l 2,48,49
 787 342 787 342 798 319 c 128,-1,50
 809 296 809 296 825 284.5 c 128,-1,51
 841 273 841 273 860.5 268.5 c 128,-1,52
 880 264 880 264 896 259 c 128,-1,53
 912 254 912 254 923 244.5 c 128,-1,54
 934 235 934 235 934 213 c 0,55,56
 934 99 934 99 816.5 49.5 c 128,-1,57
 699 0 699 0 476 0 c 0,58,59
 368 0 368 0 285 12 c 128,-1,60
 202 24 202 24 145 49.5 c 128,-1,61
 88 75 88 75 58.5 115.5 c 128,-1,62
 29 156 29 156 29 213 c 0,63,64
 29 235 29 235 40 244.5 c 128,-1,65
 51 254 51 254 67 259 c 128,-1,66
 83 264 83 264 102 268 c 128,-1,67
 121 272 121 272 137 283.5 c 128,-1,68
 153 295 153 295 164 316.5 c 128,-1,69
 175 338 175 338 175 379 c 2,70,-1
 175 1096 l 1,71,-1
 126 1096 l 2,72,73
 113 1096 113 1096 96 1097.5 c 128,-1,74
 79 1099 79 1099 64 1109 c 128,-1,75
 49 1119 49 1119 39 1140 c 128,-1,76
 29 1161 29 1161 29 1200 c 0,77,78
 29 1236 29 1236 39.5 1255.5 c 128,-1,79
 50 1275 50 1275 65 1284 c 128,-1,80
 80 1293 80 1293 97 1294.5 c 128,-1,81
 114 1296 114 1296 126 1296 c 2,82,-1
 181 1296 l 1,0,1
EndSplineSet
Substitution2: "'smcp' Lowercase to Small Capitals in Latin lookup 0 subtable" f.sc
EndChar

StartChar: j
Encoding: 106 106 43
Width: 875
Flags: W
HStem: -340 221<52.3159 267.737> 1276 20G<458 565.5> 1393 495<320.391 705.234>
VStem: 186 651<1507.86 1772.41> 211 614<15.9917 1014.86>
LayerCount: 2
Fore
SplineSet
186 1640 m 256,0,1
 186 1690 186 1690 203.5 1727.5 c 128,-1,2
 221 1765 221 1765 248.5 1792.5 c 128,-1,3
 276 1820 276 1820 311.5 1838.5 c 128,-1,4
 347 1857 347 1857 383.5 1868 c 128,-1,5
 420 1879 420 1879 453.5 1883.5 c 128,-1,6
 487 1888 487 1888 512 1888 c 0,7,8
 538 1888 538 1888 572.5 1883.5 c 128,-1,9
 607 1879 607 1879 643 1868 c 128,-1,10
 679 1857 679 1857 714 1838.5 c 128,-1,11
 749 1820 749 1820 776.5 1792.5 c 128,-1,12
 804 1765 804 1765 820.5 1727.5 c 128,-1,13
 837 1690 837 1690 837 1640 c 0,14,15
 837 1591 837 1591 820.5 1553 c 128,-1,16
 804 1515 804 1515 776.5 1488 c 128,-1,17
 749 1461 749 1461 714 1442.5 c 128,-1,18
 679 1424 679 1424 643 1413 c 128,-1,19
 607 1402 607 1402 572.5 1397.5 c 128,-1,20
 538 1393 538 1393 512 1393 c 0,21,22
 487 1393 487 1393 453.5 1397.5 c 128,-1,23
 420 1402 420 1402 383.5 1413 c 128,-1,24
 347 1424 347 1424 311.5 1442.5 c 128,-1,25
 276 1461 276 1461 248.5 1488 c 128,-1,26
 221 1515 221 1515 203.5 1552.5 c 128,-1,27
 186 1590 186 1590 186 1640 c 256,0,1
825 221 m 2,28,29
 825 149 825 149 810 79.5 c 128,-1,30
 795 10 795 10 763.5 -52 c 128,-1,31
 732 -114 732 -114 683 -167 c 128,-1,32
 634 -220 634 -220 565.5 -258.5 c 128,-1,33
 497 -297 497 -297 407.5 -318.5 c 128,-1,34
 318 -340 318 -340 207 -340 c 0,35,36
 156 -340 156 -340 120.5 -330 c 128,-1,37
 85 -320 85 -320 63.5 -304.5 c 128,-1,38
 42 -289 42 -289 32 -268.5 c 128,-1,39
 22 -248 22 -248 22 -227 c 256,40,41
 22 -206 22 -206 30.5 -186.5 c 128,-1,42
 39 -167 39 -167 53 -152 c 128,-1,43
 67 -137 67 -137 86.5 -128 c 128,-1,44
 106 -119 106 -119 129 -119 c 0,45,46
 170 -119 170 -119 197.5 -114.5 c 128,-1,47
 225 -110 225 -110 241.5 -102 c 128,-1,48
 258 -94 258 -94 265 -81.5 c 128,-1,49
 272 -69 272 -69 272 -53 c 0,50,51
 272 -32 272 -32 262.5 -4 c 128,-1,52
 253 24 253 24 241.5 58.5 c 128,-1,53
 230 93 230 93 220.5 133.5 c 128,-1,54
 211 174 211 174 211 221 c 2,55,-1
 211 915 l 2,56,57
 211 955 211 955 200 977 c 128,-1,58
 189 999 189 999 173 1010.5 c 128,-1,59
 157 1022 157 1022 138 1026 c 128,-1,60
 119 1030 119 1030 103 1035 c 128,-1,61
 87 1040 87 1040 76 1049.5 c 128,-1,62
 65 1059 65 1059 65 1081 c 0,63,64
 65 1138 65 1138 94.5 1178.5 c 128,-1,65
 124 1219 124 1219 181 1245.5 c 128,-1,66
 238 1272 238 1272 321 1284 c 128,-1,67
 404 1296 404 1296 512 1296 c 0,68,69
 619 1296 619 1296 681.5 1285 c 128,-1,70
 744 1274 744 1274 776 1247.5 c 128,-1,71
 808 1221 808 1221 816.5 1176 c 128,-1,72
 825 1131 825 1131 825 1063 c 2,73,-1
 825 221 l 2,28,29
EndSplineSet
Substitution2: "'smcp' Lowercase to Small Capitals in Latin lookup 0 subtable" j.sc
EndChar

StartChar: s
Encoding: 115 115 44
Width: 1268
Flags: W
HStem: -25 234<426.336 717.681> 1124 201<494.062 793.406>
VStem: 56 434<805.5 1064.32> 742 494<224.451 452> 802 344<959.172 1105.51>
LayerCount: 2
Fore
SplineSet
802 1063 m 0,0,1
 802 1086 802 1086 760 1105 c 128,-1,2
 718 1124 718 1124 632 1124 c 0,3,4
 588 1124 588 1124 560.5 1119 c 128,-1,5
 533 1114 533 1114 517 1105 c 128,-1,6
 501 1096 501 1096 495.5 1083 c 128,-1,7
 490 1070 490 1070 490 1053 c 0,8,9
 490 1020 490 1020 522 995.5 c 128,-1,10
 554 971 554 971 606.5 948 c 128,-1,11
 659 925 659 925 726 902 c 128,-1,12
 793 879 793 879 863 849.5 c 128,-1,13
 933 820 933 820 1000 781.5 c 128,-1,14
 1067 743 1067 743 1119.5 690.5 c 128,-1,15
 1172 638 1172 638 1204 568 c 128,-1,16
 1236 498 1236 498 1236 406 c 0,17,18
 1236 293 1236 293 1184.5 211.5 c 128,-1,19
 1133 130 1133 130 1049 77.5 c 128,-1,20
 965 25 965 25 857.5 0 c 128,-1,21
 750 -25 750 -25 638 -25 c 0,22,23
 525 -25 525 -25 416.5 -1.5 c 128,-1,24
 308 22 308 22 223 64 c 128,-1,25
 138 106 138 106 86 165 c 128,-1,26
 34 224 34 224 34 295 c 0,27,28
 34 337 34 337 47 368.5 c 128,-1,29
 60 400 60 400 81.5 420.5 c 128,-1,30
 103 441 103 441 131 451 c 128,-1,31
 159 461 159 461 189 461 c 0,32,33
 237 461 237 461 268 450 c 128,-1,34
 299 439 299 439 318.5 421.5 c 128,-1,35
 338 404 338 404 350 381.5 c 128,-1,36
 362 359 362 359 373 335 c 128,-1,37
 384 311 384 311 397 288.5 c 128,-1,38
 410 266 410 266 432 248.5 c 128,-1,39
 454 231 454 231 488.5 220 c 128,-1,40
 523 209 523 209 576 209 c 0,41,42
 661 209 661 209 701.5 224 c 128,-1,43
 742 239 742 239 742 283 c 0,44,45
 742 299 742 299 712.5 314.5 c 128,-1,46
 683 330 683 330 635 347 c 128,-1,47
 587 364 587 364 525 385 c 128,-1,48
 463 406 463 406 399 434.5 c 128,-1,49
 335 463 335 463 273 500.5 c 128,-1,50
 211 538 211 538 163 587.5 c 128,-1,51
 115 637 115 637 85.5 701 c 128,-1,52
 56 765 56 765 56 846 c 0,53,54
 56 935 56 935 78 1005.5 c 128,-1,55
 100 1076 100 1076 139.5 1129.5 c 128,-1,56
 179 1183 179 1183 234 1220 c 128,-1,57
 289 1257 289 1257 354 1280.5 c 128,-1,58
 419 1304 419 1304 492 1314.5 c 128,-1,59
 565 1325 565 1325 642 1325 c 0,60,61
 775 1325 775 1325 870 1300 c 128,-1,62
 965 1275 965 1275 1026.5 1236 c 128,-1,63
 1088 1197 1088 1197 1117 1148.5 c 128,-1,64
 1146 1100 1146 1100 1146 1053 c 0,65,66
 1146 1020 1146 1020 1132.5 990.5 c 128,-1,67
 1119 961 1119 961 1093 939 c 128,-1,68
 1067 917 1067 917 1030 904 c 128,-1,69
 993 891 993 891 945 891 c 0,70,71
 891 891 891 891 856.5 897 c 128,-1,72
 822 903 822 903 801.5 913.5 c 128,-1,73
 781 924 781 924 773 938.5 c 128,-1,74
 765 953 765 953 765 971 c 256,75,76
 765 989 765 989 771 998 c 128,-1,77
 777 1007 777 1007 783.5 1015.5 c 128,-1,78
 790 1024 790 1024 796 1034 c 128,-1,79
 802 1044 802 1044 802 1063 c 0,0,1
EndSplineSet
Substitution2: "'smcp' Lowercase to Small Capitals in Latin lookup 0 subtable" s.sc
EndChar

StartChar: W
Encoding: 87 87 45
Width: 2812
Flags: W
HStem: 1573 20G<405 586 1482.5 1664 2448.5 2522>
VStem: 2188 596<1326.83 1490.69>
DStem2: 2205 825 2290 459 0.356512 0.934291<-81.8089 426.149>
LayerCount: 2
Fore
SplineSet
1289 1194 m 1,0,1
 1270 1229 1270 1229 1248.5 1248 c 128,-1,2
 1227 1267 1227 1267 1206 1277.5 c 128,-1,3
 1185 1288 1185 1288 1166.5 1293.5 c 128,-1,4
 1148 1299 1148 1299 1134 1305.5 c 128,-1,5
 1120 1312 1120 1312 1111.5 1323.5 c 128,-1,6
 1103 1335 1103 1335 1103 1358 c 0,7,8
 1103 1482 1103 1482 1231.5 1537.5 c 128,-1,9
 1360 1593 1360 1593 1605 1593 c 0,10,11
 1723 1593 1723 1593 1814.5 1579.5 c 128,-1,12
 1906 1566 1906 1566 1968.5 1537.5 c 128,-1,13
 2031 1509 2031 1509 2063.5 1464.5 c 128,-1,14
 2096 1420 2096 1420 2096 1358 c 0,15,16
 2096 1337 2096 1337 2086 1326.5 c 128,-1,17
 2076 1316 2076 1316 2061 1310 c 128,-1,18
 2046 1304 2046 1304 2028.5 1300.5 c 128,-1,19
 2011 1297 2011 1297 1996 1290 c 128,-1,20
 1981 1283 1981 1283 1971 1271 c 128,-1,21
 1961 1259 1961 1259 1961 1236 c 0,22,23
 1961 1224 1961 1224 1964 1209 c 128,-1,24
 1967 1194 1967 1194 1975 1174 c 2,25,-1
 2108 815 l 2,26,27
 2117 791 2117 791 2129.5 773.5 c 128,-1,28
 2142 756 2142 756 2156 756 c 0,29,30
 2167 756 2167 756 2179.5 771.5 c 128,-1,31
 2192 787 2192 787 2205 825 c 2,32,-1
 2321 1174 l 2,33,34
 2333 1210 2333 1210 2333 1233 c 0,35,36
 2333 1257 2333 1257 2322.5 1270 c 128,-1,37
 2312 1283 2312 1283 2295.5 1290 c 128,-1,38
 2279 1297 2279 1297 2260.5 1300.5 c 128,-1,39
 2242 1304 2242 1304 2225.5 1310 c 128,-1,40
 2209 1316 2209 1316 2198.5 1326.5 c 128,-1,41
 2188 1337 2188 1337 2188 1358 c 0,42,43
 2188 1406 2188 1406 2207 1448.5 c 128,-1,44
 2226 1491 2226 1491 2263.5 1523 c 128,-1,45
 2301 1555 2301 1555 2356.5 1574 c 128,-1,46
 2412 1593 2412 1593 2485 1593 c 0,47,48
 2559 1593 2559 1593 2615 1574 c 128,-1,49
 2671 1555 2671 1555 2708.5 1523 c 128,-1,50
 2746 1491 2746 1491 2765 1448.5 c 128,-1,51
 2784 1406 2784 1406 2784 1358 c 0,52,53
 2784 1334 2784 1334 2772 1323 c 128,-1,54
 2760 1312 2760 1312 2740.5 1306.5 c 128,-1,55
 2721 1301 2721 1301 2696 1295.5 c 128,-1,56
 2671 1290 2671 1290 2646 1277 c 128,-1,57
 2621 1264 2621 1264 2597.5 1239 c 128,-1,58
 2574 1214 2574 1214 2557 1169 c 2,59,-1
 2290 459 l 2,60,61
 2253 361 2253 361 2224 285.5 c 128,-1,62
 2195 210 2195 210 2169.5 153.5 c 128,-1,63
 2144 97 2144 97 2120.5 59 c 128,-1,64
 2097 21 2097 21 2071.5 -2.5 c 128,-1,65
 2046 -26 2046 -26 2016 -36.5 c 128,-1,66
 1986 -47 1986 -47 1949 -47 c 0,67,68
 1901 -47 1901 -47 1860 -19 c 128,-1,69
 1819 9 1819 9 1775.5 76 c 128,-1,70
 1732 143 1732 143 1681.5 255.5 c 128,-1,71
 1631 368 1631 368 1566 537 c 2,72,-1
 1418 918 l 1,73,-1
 1244 460 l 2,74,75
 1188 313 1188 313 1149 215.5 c 128,-1,76
 1110 118 1110 118 1074 59.5 c 128,-1,77
 1038 1 1038 1 998.5 -23 c 128,-1,78
 959 -47 959 -47 902 -47 c 0,79,80
 854 -47 854 -47 817 -17.5 c 128,-1,81
 780 12 780 12 739.5 80 c 128,-1,82
 699 148 699 148 647 260 c 128,-1,83
 595 372 595 372 519 537 c 2,84,-1
 226 1169 l 2,85,86
 206 1211 206 1211 183.5 1235 c 128,-1,87
 161 1259 161 1259 139 1272 c 128,-1,88
 117 1285 117 1285 96.5 1291 c 128,-1,89
 76 1297 76 1297 60.5 1304 c 128,-1,90
 45 1311 45 1311 35.5 1322.5 c 128,-1,91
 26 1334 26 1334 26 1358 c 0,92,93
 26 1482 26 1482 154.5 1537.5 c 128,-1,94
 283 1593 283 1593 527 1593 c 0,95,96
 645 1593 645 1593 737 1579.5 c 128,-1,97
 829 1566 829 1566 891.5 1537.5 c 128,-1,98
 954 1509 954 1509 986.5 1464.5 c 128,-1,99
 1019 1420 1019 1420 1019 1358 c 0,100,101
 1019 1338 1019 1338 1008.5 1327 c 128,-1,102
 998 1316 998 1316 983 1309.5 c 128,-1,103
 968 1303 968 1303 949.5 1298.5 c 128,-1,104
 931 1294 931 1294 916 1287.5 c 128,-1,105
 901 1281 901 1281 890.5 1269.5 c 128,-1,106
 880 1258 880 1258 880 1238 c 0,107,108
 880 1226 880 1226 884 1210 c 128,-1,109
 888 1194 888 1194 898 1174 c 2,110,-1
 1062 815 l 2,111,112
 1073 792 1073 792 1084 774.5 c 128,-1,113
 1095 757 1095 757 1109 757 c 0,114,115
 1120 757 1120 757 1132 772 c 128,-1,116
 1144 787 1144 787 1158 825 c 2,117,-1
 1289 1194 l 1,0,1
EndSplineSet
EndChar

StartChar: v
Encoding: 118 118 46
Width: 1672
Flags: W
HStem: 1276 20G<439.5 538 1356 1449>
DStem2: 993 674 1411 952 0.434864 0.900496<0 373.75>
LayerCount: 2
Fore
SplineSet
1120 952 m 2,0,1
 1127 967 1127 967 1128.5 976 c 128,-1,2
 1130 985 1130 985 1130 994 c 2,3,-1
 1130 1008 l 2,4,5
 1130 1021 1130 1021 1109.5 1034 c 128,-1,6
 1089 1047 1089 1047 1064.5 1061 c 128,-1,7
 1040 1075 1040 1075 1019.5 1091 c 128,-1,8
 999 1107 999 1107 999 1126 c 0,9,10
 999 1179 999 1179 1038 1212.5 c 128,-1,11
 1077 1246 1077 1246 1135.5 1264.5 c 128,-1,12
 1194 1283 1194 1283 1261 1289.5 c 128,-1,13
 1328 1296 1328 1296 1384 1296 c 0,14,15
 1514 1296 1514 1296 1584.5 1256.5 c 128,-1,16
 1655 1217 1655 1217 1655 1126 c 0,17,18
 1655 1103 1655 1103 1641.5 1090.5 c 128,-1,19
 1628 1078 1628 1078 1606 1069.5 c 128,-1,20
 1584 1061 1584 1061 1557 1054 c 128,-1,21
 1530 1047 1530 1047 1503 1035.5 c 128,-1,22
 1476 1024 1476 1024 1451.5 1004.5 c 128,-1,23
 1427 985 1427 985 1411 952 c 2,24,-1
 987 74 l 2,25,26
 970 39 970 39 952.5 15 c 128,-1,27
 935 -9 935 -9 917 -23.5 c 128,-1,28
 899 -38 899 -38 882 -44.5 c 128,-1,29
 865 -51 865 -51 850 -51 c 0,30,31
 837 -51 837 -51 821 -45 c 128,-1,32
 805 -39 805 -39 787 -24 c 128,-1,33
 769 -9 769 -9 749 17 c 128,-1,34
 729 43 729 43 708 82 c 2,35,-1
 237 952 l 2,36,37
 218 987 218 987 194 1006.5 c 128,-1,38
 170 1026 170 1026 145.5 1036.5 c 128,-1,39
 121 1047 121 1047 98 1052.5 c 128,-1,40
 75 1058 75 1058 56.5 1065.5 c 128,-1,41
 38 1073 38 1073 27 1086.5 c 128,-1,42
 16 1100 16 1100 16 1126 c 0,43,44
 16 1181 16 1181 57.5 1214.5 c 128,-1,45
 99 1248 99 1248 165.5 1266 c 128,-1,46
 232 1284 232 1284 315 1290 c 128,-1,47
 398 1296 398 1296 481 1296 c 0,48,49
 595 1296 595 1296 680.5 1289 c 128,-1,50
 766 1282 766 1282 822 1263.5 c 128,-1,51
 878 1245 878 1245 906 1211.5 c 128,-1,52
 934 1178 934 1178 934 1126 c 0,53,54
 934 1107 934 1107 916 1093 c 128,-1,55
 898 1079 898 1079 876.5 1067 c 128,-1,56
 855 1055 855 1055 837 1043 c 128,-1,57
 819 1031 819 1031 819 1016 c 1,58,59
 821 1005 821 1005 828.5 990 c 128,-1,60
 836 975 836 975 850 952 c 1,61,-1
 993 674 l 1,62,-1
 1120 952 l 2,0,1
EndSplineSet
Substitution2: "'smcp' Lowercase to Small Capitals in Latin lookup 0 subtable" v.sc
EndChar

StartChar: x
Encoding: 120 120 47
Width: 1690
Flags: W
HStem: 0 21G<291 365 1153.5 1248.5> 1276 20G<444.5 548 1232 1302.5>
DStem2: 584 592 605 344 0.751493 0.659741<-206.093 0 458.376 611.644>
LayerCount: 2
Fore
SplineSet
584 592 m 1,0,-1
 242 952 l 2,1,2
 215 981 215 981 189 998 c 128,-1,3
 163 1015 163 1015 141 1025.5 c 128,-1,4
 119 1036 119 1036 100.5 1043 c 128,-1,5
 82 1050 82 1050 68.5 1059.5 c 128,-1,6
 55 1069 55 1069 48 1084 c 128,-1,7
 41 1099 41 1099 41 1126 c 0,8,9
 41 1172 41 1172 79.5 1204.5 c 128,-1,10
 118 1237 118 1237 180.5 1257 c 128,-1,11
 243 1277 243 1277 323 1286.5 c 128,-1,12
 403 1296 403 1296 486 1296 c 0,13,14
 610 1296 610 1296 693 1289 c 128,-1,15
 776 1282 776 1282 826 1263.5 c 128,-1,16
 876 1245 876 1245 897 1211.5 c 128,-1,17
 918 1178 918 1178 918 1126 c 0,18,19
 918 1105 918 1105 903.5 1090 c 128,-1,20
 889 1075 889 1075 872 1062.5 c 128,-1,21
 855 1050 855 1050 840.5 1037 c 128,-1,22
 826 1024 826 1024 826 1008 c 0,23,24
 826 997 826 997 832.5 984 c 128,-1,25
 839 971 839 971 854 952 c 1,26,-1
 920 885 l 1,27,-1
 996 952 l 2,28,29
 1016 970 1016 970 1024.5 983.5 c 128,-1,30
 1033 997 1033 997 1033 1008 c 0,31,32
 1033 1021 1033 1021 1022 1034 c 128,-1,33
 1011 1047 1011 1047 998 1061 c 128,-1,34
 985 1075 985 1075 974 1091 c 128,-1,35
 963 1107 963 1107 963 1126 c 0,36,37
 963 1179 963 1179 988.5 1212.5 c 128,-1,38
 1014 1246 1014 1246 1055.5 1264.5 c 128,-1,39
 1097 1283 1097 1283 1150.5 1289.5 c 128,-1,40
 1204 1296 1204 1296 1260 1296 c 0,41,42
 1345 1296 1345 1296 1404.5 1286.5 c 128,-1,43
 1464 1277 1464 1277 1501 1256.5 c 128,-1,44
 1538 1236 1538 1236 1554.5 1203.5 c 128,-1,45
 1571 1171 1571 1171 1571 1126 c 0,46,47
 1571 1097 1571 1097 1559 1081 c 128,-1,48
 1547 1065 1547 1065 1526 1055.5 c 128,-1,49
 1505 1046 1505 1046 1477 1039 c 128,-1,50
 1449 1032 1449 1032 1417.5 1022.5 c 128,-1,51
 1386 1013 1386 1013 1352.5 996.5 c 128,-1,52
 1319 980 1319 980 1287 952 c 2,53,-1
 1057 748 l 1,54,-1
 1452 346 l 1,55,56
 1479 314 1479 314 1504 298.5 c 128,-1,57
 1529 283 1529 283 1551.5 275 c 128,-1,58
 1574 267 1574 267 1592.5 264.5 c 128,-1,59
 1611 262 1611 262 1624.5 256 c 128,-1,60
 1638 250 1638 250 1645.5 237.5 c 128,-1,61
 1653 225 1653 225 1653 199 c 0,62,63
 1653 154 1653 154 1618 117 c 128,-1,64
 1583 80 1583 80 1522 54 c 128,-1,65
 1461 28 1461 28 1378.5 14 c 128,-1,66
 1296 0 1296 0 1201 0 c 256,67,68
 1106 0 1106 0 1025 11.5 c 128,-1,69
 944 23 944 23 885 47 c 128,-1,70
 826 71 826 71 793 108.5 c 128,-1,71
 760 146 760 146 760 199 c 0,72,73
 760 220 760 220 774.5 230 c 128,-1,74
 789 240 789 240 806 247.5 c 128,-1,75
 823 255 823 255 837.5 263 c 128,-1,76
 852 271 852 271 852 287 c 0,77,78
 852 298 852 298 845.5 310.5 c 128,-1,79
 839 323 839 323 824 342 c 1,80,-1
 721 449 l 1,81,-1
 605 344 l 2,82,83
 586 327 586 327 579 314.5 c 128,-1,84
 572 302 572 302 572 293 c 0,85,86
 572 278 572 278 586.5 269 c 128,-1,87
 601 260 601 260 618 252 c 128,-1,88
 635 244 635 244 649.5 232 c 128,-1,89
 664 220 664 220 664 199 c 0,90,91
 664 146 664 146 645.5 108.5 c 128,-1,92
 627 71 627 71 585.5 47 c 128,-1,93
 544 23 544 23 478 11.5 c 128,-1,94
 412 0 412 0 318 0 c 0,95,96
 264 0 264 0 216.5 14 c 128,-1,97
 169 28 169 28 133.5 54 c 128,-1,98
 98 80 98 80 77 117 c 128,-1,99
 56 154 56 154 56 199 c 0,100,101
 56 226 56 226 65.5 240 c 128,-1,102
 75 254 75 254 92.5 261 c 128,-1,103
 110 268 110 268 133.5 271.5 c 128,-1,104
 157 275 157 275 185 282.5 c 128,-1,105
 213 290 213 290 244.5 304.5 c 128,-1,106
 276 319 276 319 308 348 c 2,107,-1
 584 592 l 1,0,-1
EndSplineSet
Substitution2: "'smcp' Lowercase to Small Capitals in Latin lookup 0 subtable" x.sc
EndChar

StartChar: w
Encoding: 119 119 48
Width: 2184
Flags: W
HStem: -16 21G<778.5 796 1416.5 1434> 1276 20G<453.5 529.5 1272 1337.5 1874 1936.5>
VStem: 1020 526<1080.7 1246.83> 1135 289<893.953 1031.81>
DStem2: 1581 692 1981 967 0.47097 0.882149<0 323.893>
LayerCount: 2
Fore
SplineSet
2160 1122 m 0,0,1
 2160 1106 2160 1106 2149 1093 c 128,-1,2
 2138 1080 2138 1080 2121 1068 c 128,-1,3
 2104 1056 2104 1056 2083 1044.5 c 128,-1,4
 2062 1033 2062 1033 2042 1021 c 128,-1,5
 2022 1009 2022 1009 2005.5 996 c 128,-1,6
 1989 983 1989 983 1981 967 c 2,7,-1
 1469 8 l 2,8,9
 1463 -3 1463 -3 1451.5 -9.5 c 128,-1,10
 1440 -16 1440 -16 1428 -16 c 0,11,12
 1405 -16 1405 -16 1391 8 c 2,13,-1
 1118 485 l 1,14,-1
 832 8 l 2,15,16
 825 -3 825 -3 813.5 -9.5 c 128,-1,17
 802 -16 802 -16 790 -16 c 0,18,19
 767 -16 767 -16 754 8 c 2,20,-1
 250 909 l 2,21,22
 229 947 229 947 203.5 972.5 c 128,-1,23
 178 998 178 998 153 1014.5 c 128,-1,24
 128 1031 128 1031 104.5 1042 c 128,-1,25
 81 1053 81 1053 63 1064 c 128,-1,26
 45 1075 45 1075 34 1087.5 c 128,-1,27
 23 1100 23 1100 23 1120 c 0,28,29
 23 1176 23 1176 55.5 1210.5 c 128,-1,30
 88 1245 88 1245 150.5 1264 c 128,-1,31
 213 1283 213 1283 304 1289.5 c 128,-1,32
 395 1296 395 1296 512 1296 c 0,33,34
 547 1296 547 1296 593 1293 c 128,-1,35
 639 1290 639 1290 688 1283 c 128,-1,36
 737 1276 737 1276 784.5 1263.5 c 128,-1,37
 832 1251 832 1251 869 1231.5 c 128,-1,38
 906 1212 906 1212 929 1184.5 c 128,-1,39
 952 1157 952 1157 952 1120 c 0,40,41
 952 1088 952 1088 938.5 1071 c 128,-1,42
 925 1054 925 1054 908.5 1043.5 c 128,-1,43
 892 1033 892 1033 878.5 1023.5 c 128,-1,44
 865 1014 865 1014 865 996 c 0,45,46
 865 983 865 983 873 967 c 2,47,-1
 1002 692 l 1,48,-1
 1131 967 l 2,49,50
 1135 974 1135 974 1135 982 c 0,51,52
 1135 1000 1135 1000 1117 1013 c 128,-1,53
 1099 1026 1099 1026 1077.5 1041 c 128,-1,54
 1056 1056 1056 1056 1038 1074.5 c 128,-1,55
 1020 1093 1020 1093 1020 1122 c 0,56,57
 1020 1177 1020 1177 1037.5 1211.5 c 128,-1,58
 1055 1246 1055 1246 1090.5 1264.5 c 128,-1,59
 1126 1283 1126 1283 1180.5 1289.5 c 128,-1,60
 1235 1296 1235 1296 1309 1296 c 0,61,62
 1366 1296 1366 1296 1410.5 1288.5 c 128,-1,63
 1455 1281 1455 1281 1485 1261.5 c 128,-1,64
 1515 1242 1515 1242 1530.5 1208 c 128,-1,65
 1546 1174 1546 1174 1546 1120 c 1,66,67
 1511 1091 1511 1091 1485 1065 c 0,68,69
 1462 1042 1462 1042 1443 1018 c 128,-1,70
 1424 994 1424 994 1424 977 c 0,71,72
 1424 970 1424 970 1426 967 c 2,73,-1
 1581 692 l 1,74,-1
 1722 967 l 2,75,76
 1726 974 1726 974 1726 982 c 0,77,78
 1726 999 1726 999 1708 1012 c 128,-1,79
 1690 1025 1690 1025 1669 1039.5 c 128,-1,80
 1648 1054 1648 1054 1630 1072.5 c 128,-1,81
 1612 1091 1612 1091 1612 1120 c 0,82,83
 1612 1172 1612 1172 1631 1206.5 c 128,-1,84
 1650 1241 1650 1241 1687.5 1260.5 c 128,-1,85
 1725 1280 1725 1280 1781 1288 c 128,-1,86
 1837 1296 1837 1296 1911 1296 c 0,87,88
 1962 1296 1962 1296 2006.5 1291 c 128,-1,89
 2051 1286 2051 1286 2084 1268.5 c 128,-1,90
 2117 1251 2117 1251 2137 1216.5 c 128,-1,91
 2157 1182 2157 1182 2160 1122 c 0,0,1
EndSplineSet
Substitution2: "'smcp' Lowercase to Small Capitals in Latin lookup 0 subtable" w.sc
EndChar

StartChar: z
Encoding: 122 122 49
Width: 1355
Flags: W
HStem: 0 184<775.002 977.949> 1118 178<375 581.812>
VStem: 1048.5 268.5<266.669 436.321>
LayerCount: 2
Fore
SplineSet
586 1096 m 2,0,1
 588 1102 588 1102 588 1104 c 0,2,3
 588 1112 588 1112 582 1115.5 c 128,-1,4
 576 1119 576 1119 570 1119 c 0,5,6
 566 1119 566 1119 565 1118 c 1,7,-1
 375 1118 l 1,8,-1
 344 987 l 1,9,10
 331 943 331 943 312.5 912.5 c 128,-1,11
 294 882 294 882 271.5 863 c 128,-1,12
 249 844 249 844 224 835.5 c 128,-1,13
 199 827 199 827 174 827 c 0,14,15
 145 827 145 827 120.5 837 c 128,-1,16
 96 847 96 847 78 865 c 128,-1,17
 60 883 60 883 49.5 909 c 128,-1,18
 39 935 39 935 39 967 c 0,19,20
 39 1016 39 1016 53.5 1073.5 c 128,-1,21
 68 1131 68 1131 97 1180.5 c 128,-1,22
 126 1230 126 1230 170 1263 c 128,-1,23
 214 1296 214 1296 274 1296 c 2,24,-1
 1169 1296 l 2,25,26
 1215 1296 1215 1296 1233 1278 c 128,-1,27
 1251 1260 1251 1260 1251 1232 c 0,28,29
 1251 1212 1251 1212 1243.5 1189 c 128,-1,30
 1236 1166 1236 1166 1225 1143 c 2,31,-1
 788 266 l 2,32,33
 775 239 775 239 775 221 c 0,34,35
 775 208 775 208 781.5 200.5 c 128,-1,36
 788 193 788 193 798.5 189.5 c 128,-1,37
 809 186 809 186 822 185 c 128,-1,38
 835 184 835 184 848 184 c 0,39,40
 915 184 915 184 949 205.5 c 128,-1,41
 983 227 983 227 1000 259.5 c 128,-1,42
 1017 292 1017 292 1025.5 329.5 c 128,-1,43
 1034 367 1034 367 1048.5 399.5 c 128,-1,44
 1063 432 1063 432 1092.5 453.5 c 128,-1,45
 1122 475 1122 475 1182 475 c 0,46,47
 1240 475 1240 475 1278.5 437.5 c 128,-1,48
 1317 400 1317 400 1317 334 c 0,49,50
 1317 286 1317 286 1303 227.5 c 128,-1,51
 1289 169 1289 169 1260 118.5 c 128,-1,52
 1231 68 1231 68 1187 34 c 128,-1,53
 1143 0 1143 0 1083 0 c 2,54,-1
 164 0 l 2,55,56
 148 0 148 0 133 2.5 c 128,-1,57
 118 5 118 5 106.5 12.5 c 128,-1,58
 95 20 95 20 88 32 c 128,-1,59
 81 44 81 44 81 64 c 0,60,61
 81 82 81 82 88 107.5 c 128,-1,62
 95 133 95 133 112 166 c 2,63,-1
 586 1096 l 2,0,1
EndSplineSet
Substitution2: "'smcp' Lowercase to Small Capitals in Latin lookup 0 subtable" z.sc
EndChar

StartChar: X
Encoding: 88 88 50
Width: 1874
Flags: W
HStem: 0 21G<301 361.5 1301 1475> 1573 20G<458.5 584.5 1413 1477.5>
VStem: 933 903<155.5 358.5> 1169 581<1235 1444.91>
DStem2: 360 424 646 420 0.713615 0.700538<130.271 397.172 943.319 1149.39>
LayerCount: 2
Fore
SplineSet
657 715 m 1,0,-1
 286 1174 l 2,1,2
 255 1212 255 1212 225.5 1233 c 128,-1,3
 196 1254 196 1254 168.5 1266 c 128,-1,4
 141 1278 141 1278 118 1285.5 c 128,-1,5
 95 1293 95 1293 78 1303 c 128,-1,6
 61 1313 61 1313 51.5 1330.5 c 128,-1,7
 42 1348 42 1348 42 1380 c 0,8,9
 42 1436 42 1436 77 1476.5 c 128,-1,10
 112 1517 112 1517 174 1543 c 128,-1,11
 236 1569 236 1569 322 1581 c 128,-1,12
 408 1593 408 1593 509 1593 c 0,13,14
 660 1593 660 1593 761.5 1579 c 128,-1,15
 863 1565 863 1565 924.5 1536 c 128,-1,16
 986 1507 986 1507 1012 1461.5 c 128,-1,17
 1038 1416 1038 1416 1038 1352 c 0,18,19
 1038 1326 1038 1326 1020.5 1313 c 128,-1,20
 1003 1300 1003 1300 981.5 1290.5 c 128,-1,21
 960 1281 960 1281 942.5 1271 c 128,-1,22
 925 1261 925 1261 925 1241 c 0,23,24
 925 1229 925 1229 932.5 1213 c 128,-1,25
 940 1197 940 1197 960 1174 c 2,26,-1
 1033 1085 l 1,27,-1
 1124 1174 l 2,28,29
 1148 1197 1148 1197 1158.5 1213 c 128,-1,30
 1169 1229 1169 1229 1169 1241 c 0,31,32
 1169 1258 1169 1258 1155.5 1268 c 128,-1,33
 1142 1278 1142 1278 1126 1288.5 c 128,-1,34
 1110 1299 1110 1299 1096.5 1312.5 c 128,-1,35
 1083 1326 1083 1326 1083 1350 c 0,36,37
 1083 1414 1083 1414 1114.5 1460.5 c 128,-1,38
 1146 1507 1146 1507 1197 1536 c 128,-1,39
 1248 1565 1248 1565 1313.5 1579 c 128,-1,40
 1379 1593 1379 1593 1447 1593 c 0,41,42
 1508 1593 1508 1593 1563.5 1581 c 128,-1,43
 1619 1569 1619 1569 1660 1544 c 128,-1,44
 1701 1519 1701 1519 1725.5 1479 c 128,-1,45
 1750 1439 1750 1439 1750 1384 c 0,46,47
 1750 1349 1750 1349 1734.5 1330 c 128,-1,48
 1719 1311 1719 1311 1693 1300 c 128,-1,49
 1667 1289 1667 1289 1632 1281.5 c 128,-1,50
 1597 1274 1597 1274 1559 1262.5 c 128,-1,51
 1521 1251 1521 1251 1481 1231 c 128,-1,52
 1441 1211 1441 1211 1404 1174 c 2,53,-1
 1163 932 l 1,54,-1
 1591 424 l 2,55,56
 1623 385 1623 385 1654 363.5 c 128,-1,57
 1685 342 1685 342 1712.5 329 c 128,-1,58
 1740 316 1740 316 1762.5 308.5 c 128,-1,59
 1785 301 1785 301 1801.5 290 c 128,-1,60
 1818 279 1818 279 1827 261.5 c 128,-1,61
 1836 244 1836 244 1836 211 c 0,62,63
 1836 100 1836 100 1713.5 50 c 128,-1,64
 1591 0 1591 0 1359 0 c 0,65,66
 1243 0 1243 0 1144.5 14 c 128,-1,67
 1046 28 1046 28 974 57.5 c 128,-1,68
 902 87 902 87 861 132.5 c 128,-1,69
 820 178 820 178 820 242 c 0,70,71
 820 267 820 267 837.5 280 c 128,-1,72
 855 293 855 293 876.5 302.5 c 128,-1,73
 898 312 898 312 915.5 322 c 128,-1,74
 933 332 933 332 933 352 c 0,75,76
 933 365 933 365 925.5 380.5 c 128,-1,77
 918 396 918 396 898 420 c 2,78,-1
 786 557 l 1,79,-1
 646 420 l 2,80,81
 625 400 625 400 616 384.5 c 128,-1,82
 607 369 607 369 607 358 c 0,83,84
 607 339 607 339 624.5 328 c 128,-1,85
 642 317 642 317 663.5 306.5 c 128,-1,86
 685 296 685 296 702.5 282 c 128,-1,87
 720 268 720 268 720 242 c 0,88,89
 720 178 720 178 686 132.5 c 128,-1,90
 652 87 652 87 596 57.5 c 128,-1,91
 540 28 540 28 469 14 c 128,-1,92
 398 0 398 0 325 0 c 0,93,94
 277 0 277 0 228.5 12 c 128,-1,95
 180 24 180 24 141 49 c 128,-1,96
 102 74 102 74 77 113.5 c 128,-1,97
 52 153 52 153 52 209 c 0,98,99
 52 243 52 243 64.5 261.5 c 128,-1,100
 77 280 77 280 98.5 291.5 c 128,-1,101
 120 303 120 303 149.5 311.5 c 128,-1,102
 179 320 179 320 213.5 332.5 c 128,-1,103
 248 345 248 345 285 366 c 128,-1,104
 322 387 322 387 360 424 c 2,105,-1
 657 715 l 1,0,-1
EndSplineSet
EndChar

StartChar: g
Encoding: 103 103 51
Width: 1676
Flags: W
HStem: -598 281<488.281 930.667> 414 272<665.669 840.455> 1069 256<635.18 830.548> 1147 178<1269.21 1345.09>
VStem: 57 545<756.327 1038.59> 82 327<-246.809 -90.0239> 884 474<729.238 1014.35> 966 504<-278.735 -50.5>
LayerCount: 2
Fore
SplineSet
798 1325 m 0,0,1
 913 1325 913 1325 1003 1302 c 128,-1,2
 1093 1279 1093 1279 1159 1237 c 1,3,4
 1187 1255 1187 1255 1221.5 1271 c 128,-1,5
 1256 1287 1256 1287 1293.5 1299 c 128,-1,6
 1331 1311 1331 1311 1370 1318 c 128,-1,7
 1409 1325 1409 1325 1446 1325 c 0,8,9
 1487 1325 1487 1325 1523.5 1315.5 c 128,-1,10
 1560 1306 1560 1306 1587 1285.5 c 128,-1,11
 1614 1265 1614 1265 1630 1232 c 128,-1,12
 1646 1199 1646 1199 1646 1151 c 0,13,14
 1646 1120 1646 1120 1635.5 1090.5 c 128,-1,15
 1625 1061 1625 1061 1604 1037.5 c 128,-1,16
 1583 1014 1583 1014 1551.5 999.5 c 128,-1,17
 1520 985 1520 985 1478 985 c 256,18,19
 1436 985 1436 985 1412.5 997 c 128,-1,20
 1389 1009 1389 1009 1376 1027 c 128,-1,21
 1363 1045 1363 1045 1357 1066 c 128,-1,22
 1351 1087 1351 1087 1344 1105 c 128,-1,23
 1337 1123 1337 1123 1326.5 1135 c 128,-1,24
 1316 1147 1316 1147 1294 1147 c 0,25,26
 1289 1147 1289 1147 1283 1146 c 128,-1,27
 1277 1145 1277 1145 1269 1143 c 1,28,29
 1314 1090 1314 1090 1336 1029 c 128,-1,30
 1358 968 1358 968 1358 905 c 0,31,32
 1358 815 1358 815 1316.5 727.5 c 128,-1,33
 1275 640 1275 640 1193.5 570 c 128,-1,34
 1112 500 1112 500 991.5 457 c 128,-1,35
 871 414 871 414 714 414 c 0,36,37
 634 414 634 414 555 426 c 1,38,-1
 555 401 l 2,39,40
 555 376 555 376 594.5 364.5 c 128,-1,41
 634 353 634 353 698 346 c 128,-1,42
 762 339 762 339 844.5 332.5 c 128,-1,43
 927 326 927 326 1012.5 312 c 128,-1,44
 1098 298 1098 298 1180.5 271 c 128,-1,45
 1263 244 1263 244 1327 196.5 c 128,-1,46
 1391 149 1391 149 1430.5 76 c 128,-1,47
 1470 3 1470 3 1470 -104 c 0,48,49
 1470 -191 1470 -191 1444 -261 c 128,-1,50
 1418 -331 1418 -331 1372 -386 c 128,-1,51
 1326 -441 1326 -441 1263 -481 c 128,-1,52
 1200 -521 1200 -521 1126 -547 c 128,-1,53
 1052 -573 1052 -573 969.5 -585.5 c 128,-1,54
 887 -598 887 -598 803 -598 c 0,55,56
 714 -598 714 -598 626 -589.5 c 128,-1,57
 538 -581 538 -581 458 -560.5 c 128,-1,58
 378 -540 378 -540 309.5 -507.5 c 128,-1,59
 241 -475 241 -475 190.5 -426.5 c 128,-1,60
 140 -378 140 -378 111 -312.5 c 128,-1,61
 82 -247 82 -247 82 -162 c 0,62,63
 82 -106 82 -106 100 -66.5 c 128,-1,64
 118 -27 118 -27 147 -2 c 1,65,66
 96 35 96 35 66.5 90.5 c 128,-1,67
 37 146 37 146 37 227 c 0,68,69
 37 282 37 282 56 326 c 128,-1,70
 75 370 75 370 110 404 c 128,-1,71
 145 438 145 438 194.5 462.5 c 128,-1,72
 244 487 244 487 305 504 c 1,73,74
 249 532 249 532 203.5 570 c 128,-1,75
 158 608 158 608 125.5 655 c 128,-1,76
 93 702 93 702 75 758.5 c 128,-1,77
 57 815 57 815 57 881 c 0,78,79
 57 964 57 964 102 1043.5 c 128,-1,80
 147 1123 147 1123 238.5 1185.5 c 128,-1,81
 330 1248 330 1248 469.5 1286.5 c 128,-1,82
 609 1325 609 1325 798 1325 c 0,0,1
966 -190 m 0,83,84
 966 -164 966 -164 942.5 -149 c 128,-1,85
 919 -134 919 -134 878.5 -126 c 128,-1,86
 838 -118 838 -118 783.5 -115 c 128,-1,87
 729 -112 729 -112 666.5 -109.5 c 128,-1,88
 604 -107 604 -107 537.5 -103 c 128,-1,89
 471 -99 471 -99 407 -90 c 1,90,91
 408 -116 408 -116 409 -142.5 c 128,-1,92
 410 -169 410 -169 419 -194.5 c 128,-1,93
 428 -220 428 -220 447.5 -242 c 128,-1,94
 467 -264 467 -264 504.5 -281 c 128,-1,95
 542 -298 542 -298 599.5 -307.5 c 128,-1,96
 657 -317 657 -317 743 -317 c 0,97,98
 817 -317 817 -317 861 -305 c 128,-1,99
 905 -293 905 -293 928.5 -274 c 128,-1,100
 952 -255 952 -255 959 -232.5 c 128,-1,101
 966 -210 966 -210 966 -190 c 0,83,84
735 1069 m 0,102,103
 699 1069 699 1069 673.5 1056.5 c 128,-1,104
 648 1044 648 1044 632.5 1023 c 128,-1,105
 617 1002 617 1002 609.5 974 c 128,-1,106
 602 946 602 946 602 915 c 0,107,108
 602 875 602 875 613 834.5 c 128,-1,109
 624 794 624 794 643.5 761 c 128,-1,110
 663 728 663 728 689.5 707 c 128,-1,111
 716 686 716 686 747 686 c 0,112,113
 781 686 781 686 807 701.5 c 128,-1,114
 833 717 833 717 850 742.5 c 128,-1,115
 867 768 867 768 875.5 800.5 c 128,-1,116
 884 833 884 833 884 868 c 0,117,118
 884 905 884 905 874.5 941 c 128,-1,119
 865 977 865 977 846 1005.5 c 128,-1,120
 827 1034 827 1034 799.5 1051.5 c 128,-1,121
 772 1069 772 1069 735 1069 c 0,102,103
EndSplineSet
Substitution2: "'smcp' Lowercase to Small Capitals in Latin lookup 0 subtable" g.sc
EndChar

StartChar: K
Encoding: 75 75 52
Width: 2122
Flags: W
HStem: 0 21G<473 654 1547 1721> 682 180<872 1008.38> 1573 20G<473 593 1598 1672>
VStem: 200 672<314.111 682 862 1281.41> 1220 862<155.5 358.5>
LayerCount: 2
Fore
SplineSet
1329 1174 m 1,0,1
 1358 1192 1358 1192 1366 1210.5 c 128,-1,2
 1374 1229 1374 1229 1374 1241 c 0,3,4
 1374 1258 1374 1258 1357.5 1271.5 c 128,-1,5
 1341 1285 1341 1285 1320.5 1299.5 c 128,-1,6
 1300 1314 1300 1314 1283.5 1331 c 128,-1,7
 1267 1348 1267 1348 1267 1372 c 0,8,9
 1267 1436 1267 1436 1298.5 1479 c 128,-1,10
 1330 1522 1330 1522 1381.5 1547 c 128,-1,11
 1433 1572 1433 1572 1498.5 1582.5 c 128,-1,12
 1564 1593 1564 1593 1632 1593 c 0,13,14
 1712 1593 1712 1593 1783.5 1581 c 128,-1,15
 1855 1569 1855 1569 1909 1544 c 128,-1,16
 1963 1519 1963 1519 1995 1479 c 128,-1,17
 2027 1439 2027 1439 2027 1384 c 0,18,19
 2027 1349 2027 1349 2008.5 1328 c 128,-1,20
 1990 1307 1990 1307 1958.5 1292.5 c 128,-1,21
 1927 1278 1927 1278 1886 1267.5 c 128,-1,22
 1845 1257 1845 1257 1801 1243 c 128,-1,23
 1757 1229 1757 1229 1712.5 1207.5 c 128,-1,24
 1668 1186 1668 1186 1630 1151 c 2,25,-1
 1419 956 l 1,26,-1
 1837 424 l 2,27,28
 1868 384 1868 384 1898.5 362 c 128,-1,29
 1929 340 1929 340 1956 327 c 128,-1,30
 1983 314 1983 314 2006 306.5 c 128,-1,31
 2029 299 2029 299 2046 289 c 128,-1,32
 2063 279 2063 279 2072.5 261.5 c 128,-1,33
 2082 244 2082 244 2082 211 c 0,34,35
 2082 100 2082 100 1959.5 50 c 128,-1,36
 1837 0 1837 0 1605 0 c 0,37,38
 1489 0 1489 0 1397 14 c 128,-1,39
 1305 28 1305 28 1240.5 57.5 c 128,-1,40
 1176 87 1176 87 1142 132.5 c 128,-1,41
 1108 178 1108 178 1108 242 c 0,42,43
 1108 267 1108 267 1125.5 280 c 128,-1,44
 1143 293 1143 293 1164 302.5 c 128,-1,45
 1185 312 1185 312 1202.5 322 c 128,-1,46
 1220 332 1220 332 1220 352 c 0,47,48
 1220 365 1220 365 1211.5 380.5 c 128,-1,49
 1203 396 1203 396 1185 420 c 2,50,-1
 1013 645 l 2,51,52
 1003 658 1003 658 989 665.5 c 128,-1,53
 975 673 975 673 959.5 677 c 128,-1,54
 944 681 944 681 926.5 681.5 c 128,-1,55
 909 682 909 682 892 682 c 2,56,-1
 872 682 l 1,57,-1
 872 424 l 2,58,59
 872 379 872 379 884 354 c 128,-1,60
 896 329 896 329 914 316 c 128,-1,61
 932 303 932 303 953 298 c 128,-1,62
 974 293 974 293 992 287 c 128,-1,63
 1010 281 1010 281 1022 270.5 c 128,-1,64
 1034 260 1034 260 1034 236 c 0,65,66
 1034 111 1034 111 905 55.5 c 128,-1,67
 776 0 776 0 532 0 c 0,68,69
 414 0 414 0 322.5 13.5 c 128,-1,70
 231 27 231 27 168.5 55.5 c 128,-1,71
 106 84 106 84 73.5 129 c 128,-1,72
 41 174 41 174 41 236 c 0,73,74
 41 260 41 260 53 270.5 c 128,-1,75
 65 281 65 281 82.5 286.5 c 128,-1,76
 100 292 100 292 120.5 297 c 128,-1,77
 141 302 141 302 158.5 314.5 c 128,-1,78
 176 327 176 327 188 351 c 128,-1,79
 200 375 200 375 200 420 c 2,80,-1
 200 1174 l 2,81,82
 200 1218 200 1218 188 1242.5 c 128,-1,83
 176 1267 176 1267 158.5 1279.5 c 128,-1,84
 141 1292 141 1292 120.5 1297 c 128,-1,85
 100 1302 100 1302 82.5 1307.5 c 128,-1,86
 65 1313 65 1313 53 1323.5 c 128,-1,87
 41 1334 41 1334 41 1358 c 0,88,89
 41 1420 41 1420 73.5 1464.5 c 128,-1,90
 106 1509 106 1509 168.5 1537.5 c 128,-1,91
 231 1566 231 1566 322.5 1579.5 c 128,-1,92
 414 1593 414 1593 532 1593 c 0,93,94
 654 1593 654 1593 748 1579.5 c 128,-1,95
 842 1566 842 1566 905.5 1537.5 c 128,-1,96
 969 1509 969 1509 1001.5 1464.5 c 128,-1,97
 1034 1420 1034 1420 1034 1358 c 0,98,99
 1034 1334 1034 1334 1022 1323.5 c 128,-1,100
 1010 1313 1010 1313 992 1307.5 c 128,-1,101
 974 1302 974 1302 953 1297 c 128,-1,102
 932 1292 932 1292 914 1279.5 c 128,-1,103
 896 1267 896 1267 884 1242.5 c 128,-1,104
 872 1218 872 1218 872 1174 c 2,105,-1
 872 862 l 1,106,107
 900 862 900 862 931 865 c 128,-1,108
 962 868 962 868 987 887 c 1,109,-1
 1329 1174 l 1,0,1
EndSplineSet
EndChar

StartChar: y
Encoding: 121 121 53
Width: 1743
Flags: W
HStem: -592 342<485 653.808> 1276 20G<470 555 1434 1527>
DStem2: 704 -109 991 -127 0.419058 0.907959<-168.131 136.962 824.567 1241.01>
LayerCount: 2
Fore
SplineSet
1051 639 m 1,0,-1
 1198 952 l 2,1,2
 1206 969 1206 969 1207 977 c 128,-1,3
 1208 985 1208 985 1208 994 c 2,4,-1
 1208 1008 l 2,5,6
 1208 1021 1208 1021 1187.5 1034 c 128,-1,7
 1167 1047 1167 1047 1142.5 1061 c 128,-1,8
 1118 1075 1118 1075 1097.5 1091 c 128,-1,9
 1077 1107 1077 1107 1077 1126 c 0,10,11
 1077 1179 1077 1179 1116 1212.5 c 128,-1,12
 1155 1246 1155 1246 1213.5 1264.5 c 128,-1,13
 1272 1283 1272 1283 1339 1289.5 c 128,-1,14
 1406 1296 1406 1296 1462 1296 c 0,15,16
 1592 1296 1592 1296 1662.5 1256.5 c 128,-1,17
 1733 1217 1733 1217 1733 1126 c 0,18,19
 1733 1103 1733 1103 1719.5 1090.5 c 128,-1,20
 1706 1078 1706 1078 1684 1070 c 128,-1,21
 1662 1062 1662 1062 1634.5 1055.5 c 128,-1,22
 1607 1049 1607 1049 1580 1037 c 128,-1,23
 1553 1025 1553 1025 1529 1005.5 c 128,-1,24
 1505 986 1505 986 1489 952 c 2,25,-1
 991 -127 l 2,26,27
 932 -255 932 -255 872.5 -343.5 c 128,-1,28
 813 -432 813 -432 753.5 -487.5 c 128,-1,29
 694 -543 694 -543 635.5 -567.5 c 128,-1,30
 577 -592 577 -592 520 -592 c 0,31,32
 450 -592 450 -592 389 -560.5 c 128,-1,33
 328 -529 328 -529 283 -478.5 c 128,-1,34
 238 -428 238 -428 212 -366 c 128,-1,35
 186 -304 186 -304 186 -242 c 0,36,37
 186 -163 186 -163 203.5 -109.5 c 128,-1,38
 221 -56 221 -56 249 -23.5 c 128,-1,39
 277 9 277 9 312.5 23 c 128,-1,40
 348 37 348 37 385 37 c 0,41,42
 430 37 430 37 461 15.5 c 128,-1,43
 492 -6 492 -6 512 -37.5 c 128,-1,44
 532 -69 532 -69 544.5 -106.5 c 128,-1,45
 557 -144 557 -144 567 -175.5 c 128,-1,46
 577 -207 577 -207 586 -228.5 c 128,-1,47
 595 -250 595 -250 608 -250 c 0,48,49
 617 -250 617 -250 630.5 -236.5 c 128,-1,50
 644 -223 644 -223 662 -191.5 c 128,-1,51
 680 -160 680 -160 704 -109 c 128,-1,52
 728 -58 728 -58 760 16 c 1,53,-1
 254 952 l 2,54,55
 235 987 235 987 211 1006.5 c 128,-1,56
 187 1026 187 1026 162.5 1036.5 c 128,-1,57
 138 1047 138 1047 115 1052.5 c 128,-1,58
 92 1058 92 1058 73.5 1065.5 c 128,-1,59
 55 1073 55 1073 44 1086 c 128,-1,60
 33 1099 33 1099 33 1126 c 0,61,62
 33 1163 33 1163 52 1190 c 128,-1,63
 71 1217 71 1217 104 1236 c 128,-1,64
 137 1255 137 1255 182 1266.5 c 128,-1,65
 227 1278 227 1278 278.5 1284.5 c 128,-1,66
 330 1291 330 1291 386 1293.5 c 128,-1,67
 442 1296 442 1296 498 1296 c 0,68,69
 612 1296 612 1296 697 1289 c 128,-1,70
 782 1282 782 1282 838.5 1263.5 c 128,-1,71
 895 1245 895 1245 922.5 1211.5 c 128,-1,72
 950 1178 950 1178 950 1126 c 0,73,74
 950 1107 950 1107 932 1093 c 128,-1,75
 914 1079 914 1079 893 1067 c 128,-1,76
 872 1055 872 1055 854 1043.5 c 128,-1,77
 836 1032 836 1032 836 1017 c 0,78,79
 836 1014 836 1014 838 1008 c 0,80,81
 843 997 843 997 849 985.5 c 128,-1,82
 855 974 855 974 866 952 c 1,83,-1
 1051 639 l 1,0,-1
EndSplineSet
Substitution2: "'smcp' Lowercase to Small Capitals in Latin lookup 0 subtable" y.sc
EndChar

StartChar: k
Encoding: 107 107 54
Width: 1859
Flags: W
HStem: 0 21G<434 599.5 1402 1504.5> 567 162<799 904.812> 1276 20G<1383 1453.5> 1866 20G<434 539>
VStem: 187 612<282.434 567 729 1604.86>
LayerCount: 2
Fore
SplineSet
1147 954 m 2,0,1
 1169 971 1169 971 1176.5 985 c 128,-1,2
 1184 999 1184 999 1184 1010 c 0,3,4
 1184 1024 1184 1024 1167 1037 c 128,-1,5
 1150 1050 1150 1050 1129 1064 c 128,-1,6
 1108 1078 1108 1078 1091 1093.5 c 128,-1,7
 1074 1109 1074 1109 1074 1128 c 0,8,9
 1074 1181 1074 1181 1105.5 1214 c 128,-1,10
 1137 1247 1137 1247 1186.5 1265 c 128,-1,11
 1236 1283 1236 1283 1295.5 1289.5 c 128,-1,12
 1355 1296 1355 1296 1411 1296 c 0,13,14
 1496 1296 1496 1296 1555.5 1287 c 128,-1,15
 1615 1278 1615 1278 1652.5 1257.5 c 128,-1,16
 1690 1237 1690 1237 1706.5 1205 c 128,-1,17
 1723 1173 1723 1173 1723 1128 c 0,18,19
 1723 1099 1723 1099 1711 1083 c 128,-1,20
 1699 1067 1699 1067 1678 1057 c 128,-1,21
 1657 1047 1657 1047 1629.5 1040 c 128,-1,22
 1602 1033 1602 1033 1570 1023 c 128,-1,23
 1538 1013 1538 1013 1504.5 997.5 c 128,-1,24
 1471 982 1471 982 1438 954 c 2,25,-1
 1289 827 l 1,26,-1
 1602 367 l 2,27,28
 1626 332 1626 332 1653 315.5 c 128,-1,29
 1680 299 1680 299 1707 291.5 c 128,-1,30
 1734 284 1734 284 1759 281.5 c 128,-1,31
 1784 279 1784 279 1803.5 274 c 128,-1,32
 1823 269 1823 269 1834.5 257.5 c 128,-1,33
 1846 246 1846 246 1846 219 c 0,34,35
 1846 160 1846 160 1821 118 c 128,-1,36
 1796 76 1796 76 1747 50 c 128,-1,37
 1698 24 1698 24 1625 12 c 128,-1,38
 1552 0 1552 0 1457 0 c 0,39,40
 1347 0 1347 0 1281 11.5 c 128,-1,41
 1215 23 1215 23 1178 43.5 c 128,-1,42
 1141 64 1141 64 1125.5 92 c 128,-1,43
 1110 120 1110 120 1100.5 154.5 c 128,-1,44
 1091 189 1091 189 1081 227.5 c 128,-1,45
 1071 266 1071 266 1045 307 c 2,46,-1
 897 539 l 2,47,48
 894 543 894 543 889.5 548 c 128,-1,49
 885 553 885 553 874.5 557.5 c 128,-1,50
 864 562 864 562 846 564.5 c 128,-1,51
 828 567 828 567 799 567 c 1,52,-1
 799 385 l 2,53,54
 799 344 799 344 810 321 c 128,-1,55
 821 298 821 298 837.5 286.5 c 128,-1,56
 854 275 854 275 873 270.5 c 128,-1,57
 892 266 892 266 908.5 261 c 128,-1,58
 925 256 925 256 936 246.5 c 128,-1,59
 947 237 947 237 947 215 c 0,60,61
 947 101 947 101 829 50.5 c 128,-1,62
 711 0 711 0 488 0 c 0,63,64
 380 0 380 0 297 12 c 128,-1,65
 214 24 214 24 157 50.5 c 128,-1,66
 100 77 100 77 70.5 117.5 c 128,-1,67
 41 158 41 158 41 215 c 0,68,69
 41 237 41 237 52 246.5 c 128,-1,70
 63 256 63 256 79 261 c 128,-1,71
 95 266 95 266 114 270 c 128,-1,72
 133 274 133 274 149 285.5 c 128,-1,73
 165 297 165 297 176 318.5 c 128,-1,74
 187 340 187 340 187 381 c 2,75,-1
 187 1505 l 2,76,77
 187 1546 187 1546 176 1567.5 c 128,-1,78
 165 1589 165 1589 149 1600.5 c 128,-1,79
 133 1612 133 1612 114 1616 c 128,-1,80
 95 1620 95 1620 79 1625 c 128,-1,81
 63 1630 63 1630 52 1639.5 c 128,-1,82
 41 1649 41 1649 41 1671 c 0,83,84
 41 1728 41 1728 70.5 1768.5 c 128,-1,85
 100 1809 100 1809 157 1835.5 c 128,-1,86
 214 1862 214 1862 297 1874 c 128,-1,87
 380 1886 380 1886 488 1886 c 0,88,89
 590 1886 590 1886 651.5 1876.5 c 128,-1,90
 713 1867 713 1867 745.5 1843.5 c 128,-1,91
 778 1820 778 1820 788.5 1780.5 c 128,-1,92
 799 1741 799 1741 799 1681 c 2,93,-1
 799 729 l 1,94,95
 823 729 823 729 836.5 730.5 c 128,-1,96
 850 732 850 732 859 735.5 c 128,-1,97
 868 739 868 739 876 745.5 c 128,-1,98
 884 752 884 752 897 762 c 2,99,-1
 1147 954 l 2,0,1
EndSplineSet
Substitution2: "'smcp' Lowercase to Small Capitals in Latin lookup 0 subtable" k.sc
EndChar

StartChar: E
Encoding: 69 69 55
Width: 1744
Flags: W
HStem: 0 221<965.568 1272> 0 205<930 1236.43> 567 551<1083.88 1294.33> 1384 209<930 1264>
VStem: 199 731<312.222 762 924 1281.78>
LayerCount: 2
Fore
SplineSet
1379 844 m 0,0,1
 1379 791 1379 791 1367 741 c 128,-1,2
 1355 691 1355 691 1330 652.5 c 128,-1,3
 1305 614 1305 614 1266 590.5 c 128,-1,4
 1227 567 1227 567 1172 567 c 0,5,6
 1140 567 1140 567 1118 580.5 c 128,-1,7
 1096 594 1096 594 1079 618.5 c 128,-1,8
 1062 643 1062 643 1046 677 c 128,-1,9
 1030 711 1030 711 1010 752 c 1,10,-1
 930 762 l 1,11,-1
 930 205 l 1,12,-1
 1272 221 l 1,13,-1
 1313 395 l 1,14,15
 1330 452 1330 452 1354 491.5 c 128,-1,16
 1378 531 1378 531 1406.5 555.5 c 128,-1,17
 1435 580 1435 580 1467 591 c 128,-1,18
 1499 602 1499 602 1531 602 c 0,19,20
 1568 602 1568 602 1600 589.5 c 128,-1,21
 1632 577 1632 577 1655.5 553 c 128,-1,22
 1679 529 1679 529 1692 495.5 c 128,-1,23
 1705 462 1705 462 1705 420 c 0,24,25
 1705 379 1705 379 1696.5 331.5 c 128,-1,26
 1688 284 1688 284 1671.5 237.5 c 128,-1,27
 1655 191 1655 191 1630 148 c 128,-1,28
 1605 105 1605 105 1571 72 c 128,-1,29
 1537 39 1537 39 1494.5 19.5 c 128,-1,30
 1452 0 1452 0 1401 0 c 2,31,-1
 531 0 l 2,32,33
 413 0 413 0 321.5 13.5 c 128,-1,34
 230 27 230 27 167.5 55.5 c 128,-1,35
 105 84 105 84 72.5 129 c 128,-1,36
 40 174 40 174 40 236 c 0,37,38
 40 260 40 260 52 270.5 c 128,-1,39
 64 281 64 281 81.5 286.5 c 128,-1,40
 99 292 99 292 119.5 297 c 128,-1,41
 140 302 140 302 157.5 314.5 c 128,-1,42
 175 327 175 327 187 351 c 128,-1,43
 199 375 199 375 199 420 c 2,44,-1
 199 1174 l 2,45,46
 199 1218 199 1218 187 1242.5 c 128,-1,47
 175 1267 175 1267 157.5 1279.5 c 128,-1,48
 140 1292 140 1292 119.5 1297 c 128,-1,49
 99 1302 99 1302 81.5 1307.5 c 128,-1,50
 64 1313 64 1313 52 1323.5 c 128,-1,51
 40 1334 40 1334 40 1358 c 0,52,53
 40 1420 40 1420 72.5 1464.5 c 128,-1,54
 105 1509 105 1509 167.5 1537.5 c 128,-1,55
 230 1566 230 1566 321.5 1579.5 c 128,-1,56
 413 1593 413 1593 531 1593 c 2,57,-1
 1389 1593 l 2,58,59
 1462 1593 1462 1593 1516 1553 c 128,-1,60
 1570 1513 1570 1513 1605.5 1452.5 c 128,-1,61
 1641 1392 1641 1392 1658.5 1322 c 128,-1,62
 1676 1252 1676 1252 1676 1192 c 0,63,64
 1676 1152 1676 1152 1663.5 1120 c 128,-1,65
 1651 1088 1651 1088 1628.5 1066 c 128,-1,66
 1606 1044 1606 1044 1575.5 1032 c 128,-1,67
 1545 1020 1545 1020 1510 1020 c 0,68,69
 1479 1020 1479 1020 1449 1030.5 c 128,-1,70
 1419 1041 1419 1041 1392 1064.5 c 128,-1,71
 1365 1088 1365 1088 1342 1125.5 c 128,-1,72
 1319 1163 1319 1163 1303 1217 c 1,73,-1
 1264 1384 l 1,74,-1
 930 1384 l 1,75,-1
 930 924 l 1,76,-1
 1010 934 l 1,77,78
 1030 974 1030 974 1046 1008 c 128,-1,79
 1062 1042 1062 1042 1079 1066.5 c 128,-1,80
 1096 1091 1096 1091 1118 1104.5 c 128,-1,81
 1140 1118 1140 1118 1172 1118 c 0,82,83
 1227 1118 1227 1118 1266 1094.5 c 128,-1,84
 1305 1071 1305 1071 1330 1033 c 128,-1,85
 1355 995 1355 995 1367 945.5 c 128,-1,86
 1379 896 1379 896 1379 844 c 0,0,1
EndSplineSet
EndChar

StartChar: N
Encoding: 78 78 56
Width: 1775
Flags: W
HStem: 0 21G<325 380.5 1416 1445> 1573 20G<331 391 1400.5 1456>
VStem: 42 612<104.993 270.169> 201 291<314.111 780.998> 1127 612<1323.83 1488.27> 1289 293<888.675 1279.89>
LayerCount: 2
Fore
SplineSet
511 776 m 1,0,1
 504 781 504 781 500 781 c 0,2,3
 491 781 491 781 491 771 c 0,4,5
 491 768 491 768 492 766 c 1,6,-1
 492 424 l 2,7,8
 492 379 492 379 504 354 c 128,-1,9
 516 329 516 329 534 316 c 128,-1,10
 552 303 552 303 573 298 c 128,-1,11
 594 293 594 293 612 287 c 128,-1,12
 630 281 630 281 642 270.5 c 128,-1,13
 654 260 654 260 654 236 c 0,14,15
 654 174 654 174 626.5 129 c 128,-1,16
 599 84 599 84 556 55.5 c 128,-1,17
 513 27 513 27 459.5 13.5 c 128,-1,18
 406 0 406 0 355 0 c 0,19,20
 295 0 295 0 238.5 13.5 c 128,-1,21
 182 27 182 27 138.5 55.5 c 128,-1,22
 95 84 95 84 68.5 129 c 128,-1,23
 42 174 42 174 42 236 c 0,24,25
 42 260 42 260 54 270.5 c 128,-1,26
 66 281 66 281 83.5 286.5 c 128,-1,27
 101 292 101 292 121.5 297 c 128,-1,28
 142 302 142 302 159.5 314.5 c 128,-1,29
 177 327 177 327 189 351 c 128,-1,30
 201 375 201 375 201 420 c 2,31,-1
 201 1174 l 2,32,33
 201 1218 201 1218 189 1242.5 c 128,-1,34
 177 1267 177 1267 159.5 1279.5 c 128,-1,35
 142 1292 142 1292 121.5 1297 c 128,-1,36
 101 1302 101 1302 83.5 1307.5 c 128,-1,37
 66 1313 66 1313 54 1323.5 c 128,-1,38
 42 1334 42 1334 42 1358 c 0,39,40
 42 1420 42 1420 67 1464.5 c 128,-1,41
 92 1509 92 1509 135.5 1537.5 c 128,-1,42
 179 1566 179 1566 238 1579.5 c 128,-1,43
 297 1593 297 1593 365 1593 c 0,44,45
 417 1593 417 1593 454.5 1584.5 c 128,-1,46
 492 1576 492 1576 525.5 1556.5 c 128,-1,47
 559 1537 559 1537 596 1504 c 128,-1,48
 633 1471 633 1471 685 1423 c 2,49,-1
 1258 889 l 2,50,51
 1260 887 1260 887 1263.5 885 c 128,-1,52
 1267 883 1267 883 1272 883 c 0,53,54
 1278 883 1278 883 1283.5 888.5 c 128,-1,55
 1289 894 1289 894 1289 911 c 2,56,-1
 1289 1169 l 2,57,58
 1289 1215 1289 1215 1277 1240 c 128,-1,59
 1265 1265 1265 1265 1247 1278 c 128,-1,60
 1229 1291 1229 1291 1208 1296 c 128,-1,61
 1187 1301 1187 1301 1169 1307 c 128,-1,62
 1151 1313 1151 1313 1139 1323.5 c 128,-1,63
 1127 1334 1127 1334 1127 1358 c 0,64,65
 1127 1420 1127 1420 1154.5 1464.5 c 128,-1,66
 1182 1509 1182 1509 1225 1537.5 c 128,-1,67
 1268 1566 1268 1566 1321.5 1579.5 c 128,-1,68
 1375 1593 1375 1593 1426 1593 c 0,69,70
 1486 1593 1486 1593 1542.5 1579.5 c 128,-1,71
 1599 1566 1599 1566 1642.5 1537.5 c 128,-1,72
 1686 1509 1686 1509 1712.5 1464.5 c 128,-1,73
 1739 1420 1739 1420 1739 1358 c 0,74,75
 1739 1334 1739 1334 1727.5 1323.5 c 128,-1,76
 1716 1313 1716 1313 1698.5 1307.5 c 128,-1,77
 1681 1302 1681 1302 1660.5 1297 c 128,-1,78
 1640 1292 1640 1292 1622.5 1279.5 c 128,-1,79
 1605 1267 1605 1267 1593.5 1242.5 c 128,-1,80
 1582 1218 1582 1218 1582 1174 c 2,81,-1
 1582 215 l 2,82,83
 1582 149 1582 149 1571 107 c 128,-1,84
 1560 65 1560 65 1539.5 41.5 c 128,-1,85
 1519 18 1519 18 1490.5 9 c 128,-1,86
 1462 0 1462 0 1428 0 c 0,87,88
 1404 0 1404 0 1378 10 c 128,-1,89
 1352 20 1352 20 1323 39.5 c 128,-1,90
 1294 59 1294 59 1259 88 c 128,-1,91
 1224 117 1224 117 1182 154 c 1,92,-1
 511 776 l 1,0,1
EndSplineSet
EndChar

StartChar: Thorn
Encoding: 222 222 62
Width: 1779
Flags: W
HStem: 0 21G<475 656> 465 160<878 1113.76> 1204 180<876 1099.03> 1827 20G<473 593>
VStem: 202 672<312.222 469 625 1204 1384 1534.27> 1185 582<747.379 1101.61>
LayerCount: 2
Fore
SplineSet
878 625 m 1,0,-1
 1009 625 l 2,1,2
 1056 625 1056 625 1089.5 649 c 128,-1,3
 1123 673 1123 673 1144 712 c 128,-1,4
 1165 751 1165 751 1175 801.5 c 128,-1,5
 1185 852 1185 852 1185 905 c 0,6,7
 1185 960 1185 960 1174 1014 c 128,-1,8
 1163 1068 1163 1068 1138.5 1110 c 128,-1,9
 1114 1152 1114 1152 1075 1178 c 128,-1,10
 1036 1204 1036 1204 979 1204 c 2,11,-1
 876 1204 l 1,12,-1
 878 625 l 1,0,-1
200 1427 m 2,13,14
 200 1472 200 1472 188 1496.5 c 128,-1,15
 176 1521 176 1521 158.5 1533.5 c 128,-1,16
 141 1546 141 1546 120.5 1551 c 128,-1,17
 100 1556 100 1556 82.5 1561.5 c 128,-1,18
 65 1567 65 1567 53 1577.5 c 128,-1,19
 41 1588 41 1588 41 1612 c 0,20,21
 41 1674 41 1674 73.5 1718.5 c 128,-1,22
 106 1763 106 1763 168.5 1791.5 c 128,-1,23
 231 1820 231 1820 322.5 1833.5 c 128,-1,24
 414 1847 414 1847 532 1847 c 0,25,26
 654 1847 654 1847 748 1833.5 c 128,-1,27
 842 1820 842 1820 905.5 1791.5 c 128,-1,28
 969 1763 969 1763 1001.5 1718.5 c 128,-1,29
 1034 1674 1034 1674 1034 1612 c 0,30,31
 1034 1588 1034 1588 1022 1577.5 c 128,-1,32
 1010 1567 1010 1567 992 1561 c 128,-1,33
 974 1555 974 1555 953 1550 c 128,-1,34
 932 1545 932 1545 914 1532 c 128,-1,35
 896 1519 896 1519 884 1494 c 128,-1,36
 872 1469 872 1469 872 1423 c 2,37,-1
 872 1384 l 1,38,-1
 1116 1384 l 2,39,40
 1279 1384 1279 1384 1401 1344.5 c 128,-1,41
 1523 1305 1523 1305 1604.5 1240.5 c 128,-1,42
 1686 1176 1686 1176 1726.5 1093.5 c 128,-1,43
 1767 1011 1767 1011 1767 924 c 0,44,45
 1767 838 1767 838 1726.5 755.5 c 128,-1,46
 1686 673 1686 673 1604.5 608.5 c 128,-1,47
 1523 544 1523 544 1401 504.5 c 128,-1,48
 1279 465 1279 465 1116 465 c 0,49,50
 1100 465 1100 465 1065.5 465.5 c 128,-1,51
 1031 466 1031 466 993.5 466.5 c 128,-1,52
 956 467 956 467 922.5 467.5 c 128,-1,53
 889 468 889 468 874 469 c 1,54,-1
 874 412 l 2,55,56
 874 370 874 370 886 347.5 c 128,-1,57
 898 325 898 325 916 313.5 c 128,-1,58
 934 302 934 302 955 297 c 128,-1,59
 976 292 976 292 994 286.5 c 128,-1,60
 1012 281 1012 281 1024 270 c 128,-1,61
 1036 259 1036 259 1036 236 c 0,62,63
 1036 111 1036 111 907 55.5 c 128,-1,64
 778 0 778 0 534 0 c 0,65,66
 416 0 416 0 324.5 13.5 c 128,-1,67
 233 27 233 27 170.5 55.5 c 128,-1,68
 108 84 108 84 75.5 129 c 128,-1,69
 43 174 43 174 43 236 c 0,70,71
 43 260 43 260 55 270.5 c 128,-1,72
 67 281 67 281 84.5 286.5 c 128,-1,73
 102 292 102 292 122.5 297 c 128,-1,74
 143 302 143 302 160.5 314.5 c 128,-1,75
 178 327 178 327 190 351 c 128,-1,76
 202 375 202 375 202 420 c 2,77,-1
 200 1427 l 2,13,14
EndSplineSet
EndChar

StartChar: germandbls
Encoding: 223 223 63
Width: 1942
Flags: W
HStem: -57 317<1148 1422> 0 21G<464 647.5> 788 173<924.895 1097.22> 1397 196<904.514 1076.18>
VStem: 191 676<312.967 1266.85> 1145 525<1057.43 1319.39> 1293 618<322.836 585.695>
LayerCount: 2
Fore
SplineSet
867 420 m 2,0,1
 867 376 867 376 879 351.5 c 128,-1,2
 891 327 891 327 909.5 314.5 c 128,-1,3
 928 302 928 302 949 297 c 128,-1,4
 970 292 970 292 988.5 286.5 c 128,-1,5
 1007 281 1007 281 1019 270.5 c 128,-1,6
 1031 260 1031 260 1031 236 c 0,7,8
 1031 111 1031 111 901.5 55.5 c 128,-1,9
 772 0 772 0 523 0 c 0,10,11
 405 0 405 0 313.5 13.5 c 128,-1,12
 222 27 222 27 159 55.5 c 128,-1,13
 96 84 96 84 63.5 129 c 128,-1,14
 31 174 31 174 31 236 c 0,15,16
 31 260 31 260 43 270.5 c 128,-1,17
 55 281 55 281 72.5 286.5 c 128,-1,18
 90 292 90 292 111 297 c 128,-1,19
 132 302 132 302 149.5 314.5 c 128,-1,20
 167 327 167 327 179 351 c 128,-1,21
 191 375 191 375 191 420 c 2,22,-1
 191 874 l 2,23,24
 191 982 191 982 197.5 1077 c 128,-1,25
 204 1172 204 1172 230.5 1252 c 128,-1,26
 257 1332 257 1332 309 1395 c 128,-1,27
 361 1458 361 1458 452 1502 c 128,-1,28
 543 1546 543 1546 679 1569.5 c 128,-1,29
 815 1593 815 1593 1010 1593 c 0,30,31
 1177 1593 1177 1593 1301 1557.5 c 128,-1,32
 1425 1522 1425 1522 1507 1465.5 c 128,-1,33
 1589 1409 1589 1409 1629.5 1338.5 c 128,-1,34
 1670 1268 1670 1268 1670 1198 c 0,35,36
 1670 1150 1670 1150 1651 1104.5 c 128,-1,37
 1632 1059 1632 1059 1595.5 1021.5 c 128,-1,38
 1559 984 1559 984 1504 956 c 128,-1,39
 1449 928 1449 928 1377 915 c 1,40,41
 1506 907 1506 907 1605.5 857 c 128,-1,42
 1705 807 1705 807 1773 731 c 128,-1,43
 1841 655 1841 655 1876 562 c 128,-1,44
 1911 469 1911 469 1911 375 c 0,45,46
 1911 291 1911 291 1882 213 c 128,-1,47
 1853 135 1853 135 1792.5 75 c 128,-1,48
 1732 15 1732 15 1640 -21 c 128,-1,49
 1548 -57 1548 -57 1422 -57 c 0,50,51
 1343 -57 1343 -57 1277 -39.5 c 128,-1,52
 1211 -22 1211 -22 1164 6.5 c 128,-1,53
 1117 35 1117 35 1090.5 72.5 c 128,-1,54
 1064 110 1064 110 1064 150 c 0,55,56
 1064 192 1064 192 1077 213.5 c 128,-1,57
 1090 235 1090 235 1106 246 c 0,58,59
 1124 258 1124 258 1148 260 c 1,60,61
 1180 260 1180 260 1207 279 c 128,-1,62
 1234 298 1234 298 1253 330.5 c 128,-1,63
 1272 363 1272 363 1282.5 405 c 128,-1,64
 1293 447 1293 447 1293 492 c 0,65,66
 1293 545 1293 545 1276.5 598 c 128,-1,67
 1260 651 1260 651 1223.5 693 c 128,-1,68
 1187 735 1187 735 1129.5 761.5 c 128,-1,69
 1072 788 1072 788 990 788 c 0,70,71
 967 788 967 788 952.5 797.5 c 128,-1,72
 938 807 938 807 930.5 820.5 c 128,-1,73
 923 834 923 834 920.5 848.5 c 128,-1,74
 918 863 918 863 918 874 c 256,75,76
 918 885 918 885 920.5 900 c 128,-1,77
 923 915 923 915 931 928.5 c 128,-1,78
 939 942 939 942 953.5 951.5 c 128,-1,79
 968 961 968 961 992 961 c 0,80,81
 1032 961 1032 961 1061 977 c 128,-1,82
 1090 993 1090 993 1109 1019.5 c 128,-1,83
 1128 1046 1128 1046 1136.5 1080.5 c 128,-1,84
 1145 1115 1145 1115 1145 1153 c 0,85,86
 1145 1197 1145 1197 1133.5 1240.5 c 128,-1,87
 1122 1284 1122 1284 1101 1319 c 128,-1,88
 1080 1354 1080 1354 1050.5 1375.5 c 128,-1,89
 1021 1397 1021 1397 984 1397 c 0,90,91
 949 1397 949 1397 927 1379 c 128,-1,92
 905 1361 905 1361 892 1327.5 c 128,-1,93
 879 1294 879 1294 874 1245.5 c 128,-1,94
 869 1197 869 1197 869 1137 c 2,95,-1
 867 420 l 2,0,1
EndSplineSet
EndChar

StartChar: uni0400
Encoding: 1024 1024 64
Width: 1714
Flags: W
HStem: -2 223<959.568 1266> -1 206<924 1230.43> 580 538<1135.28 1288.33> 1384 211<924 1258> 1739 21G<838 865>
VStem: 193 731<312.222 762 924 1281.78>
LayerCount: 2
Fore
SplineSet
924 762 m 1,0,-1
 924 205 l 1,1,-1
 1266 221 l 1,2,-1
 1307 395 l 1,3,4
 1324 452 1324 452 1348 491.5 c 128,-1,5
 1372 531 1372 531 1400.5 555.5 c 128,-1,6
 1429 580 1429 580 1461 591 c 128,-1,7
 1493 602 1493 602 1525 602 c 0,8,9
 1562 602 1562 602 1594 589.5 c 128,-1,10
 1626 577 1626 577 1649.5 553 c 128,-1,11
 1673 529 1673 529 1686 495.5 c 128,-1,12
 1699 462 1699 462 1699 420 c 0,13,14
 1699 379 1699 379 1690.5 331.5 c 128,-1,15
 1682 284 1682 284 1665.5 237 c 128,-1,16
 1649 190 1649 190 1624 147 c 128,-1,17
 1599 104 1599 104 1565 70.5 c 128,-1,18
 1531 37 1531 37 1488.5 17.5 c 128,-1,19
 1446 -2 1446 -2 1395 -2 c 0,20,21
 1293 -2 1293 -2 1215.5 -2 c 128,-1,22
 1138 -2 1138 -2 1073 -1.5 c 128,-1,23
 1008 -1 1008 -1 950 -1 c 128,-1,24
 892 -1 892 -1 829.5 -0.5 c 128,-1,25
 767 0 767 0 694 0 c 128,-1,26
 621 0 621 0 525 0 c 0,27,28
 407 0 407 0 315.5 13.5 c 128,-1,29
 224 27 224 27 161.5 55.5 c 128,-1,30
 99 84 99 84 66.5 129 c 128,-1,31
 34 174 34 174 34 236 c 0,32,33
 34 260 34 260 46 270.5 c 128,-1,34
 58 281 58 281 75.5 286.5 c 128,-1,35
 93 292 93 292 113.5 297 c 128,-1,36
 134 302 134 302 151.5 314.5 c 128,-1,37
 169 327 169 327 181 351 c 128,-1,38
 193 375 193 375 193 420 c 2,39,-1
 193 1174 l 2,40,41
 193 1218 193 1218 181 1242.5 c 128,-1,42
 169 1267 169 1267 151.5 1279.5 c 128,-1,43
 134 1292 134 1292 113.5 1297 c 128,-1,44
 93 1302 93 1302 75.5 1307.5 c 128,-1,45
 58 1313 58 1313 46 1323.5 c 128,-1,46
 34 1334 34 1334 34 1358 c 0,47,48
 34 1420 34 1420 66.5 1464.5 c 128,-1,49
 99 1509 99 1509 161.5 1537.5 c 128,-1,50
 224 1566 224 1566 315.5 1579.5 c 128,-1,51
 407 1593 407 1593 525 1593 c 0,52,53
 621 1593 621 1593 694.5 1593 c 128,-1,54
 768 1593 768 1593 830.5 1593.5 c 128,-1,55
 893 1594 893 1594 950.5 1594 c 128,-1,56
 1008 1594 1008 1594 1071 1594.5 c 128,-1,57
 1134 1595 1134 1595 1209.5 1595 c 128,-1,58
 1285 1595 1285 1595 1383 1595 c 0,59,60
 1456 1595 1456 1595 1510 1554.5 c 128,-1,61
 1564 1514 1564 1514 1599.5 1453.5 c 128,-1,62
 1635 1393 1635 1393 1652.5 1322.5 c 128,-1,63
 1670 1252 1670 1252 1670 1192 c 0,64,65
 1670 1152 1670 1152 1657.5 1120 c 128,-1,66
 1645 1088 1645 1088 1622.5 1066 c 128,-1,67
 1600 1044 1600 1044 1569.5 1032 c 128,-1,68
 1539 1020 1539 1020 1504 1020 c 0,69,70
 1473 1020 1473 1020 1443 1030.5 c 128,-1,71
 1413 1041 1413 1041 1386 1064.5 c 128,-1,72
 1359 1088 1359 1088 1336 1125.5 c 128,-1,73
 1313 1163 1313 1163 1297 1217 c 1,74,-1
 1258 1384 l 1,75,-1
 924 1384 l 1,76,-1
 924 924 l 1,77,-1
 1004 934 l 2,78,79
 1042 939 1042 939 1063.5 954.5 c 128,-1,80
 1085 970 1085 970 1095.5 990.5 c 128,-1,81
 1106 1011 1106 1011 1110.5 1033.5 c 128,-1,82
 1115 1056 1115 1056 1120 1075 c 128,-1,83
 1125 1094 1125 1094 1134.5 1106 c 128,-1,84
 1144 1118 1144 1118 1166 1118 c 0,85,86
 1221 1118 1221 1118 1260 1094.5 c 128,-1,87
 1299 1071 1299 1071 1324 1033 c 128,-1,88
 1349 995 1349 995 1361 945.5 c 128,-1,89
 1373 896 1373 896 1373 844 c 0,90,91
 1373 799 1373 799 1361 752 c 128,-1,92
 1349 705 1349 705 1324 666.5 c 128,-1,93
 1299 628 1299 628 1260 604 c 128,-1,94
 1221 580 1221 580 1166 580 c 0,95,96
 1144 580 1144 580 1135 592 c 128,-1,97
 1126 604 1126 604 1121.5 622.5 c 128,-1,98
 1117 641 1117 641 1113 663 c 128,-1,99
 1109 685 1109 685 1098 704.5 c 128,-1,100
 1087 724 1087 724 1065.5 738.5 c 128,-1,101
 1044 753 1044 753 1004 756 c 2,102,-1
 924 762 l 1,0,-1
952 1836 m 0,103,104
 952 1820 952 1820 944 1803 c 128,-1,105
 936 1786 936 1786 922.5 1771.5 c 128,-1,106
 909 1757 909 1757 891.5 1748 c 128,-1,107
 874 1739 874 1739 856 1739 c 0,108,109
 820 1739 820 1739 756.5 1772 c 128,-1,110
 693 1805 693 1805 591 1881 c 0,111,112
 552 1910 552 1910 506.5 1942.5 c 128,-1,113
 461 1975 461 1975 415.5 2011 c 128,-1,114
 370 2047 370 2047 327.5 2085.5 c 128,-1,115
 285 2124 285 2124 252 2165.5 c 128,-1,116
 219 2207 219 2207 199.5 2250.5 c 128,-1,117
 180 2294 180 2294 180 2340 c 0,118,119
 180 2381 180 2381 197 2422 c 128,-1,120
 214 2463 214 2463 245 2495.5 c 128,-1,121
 276 2528 276 2528 319.5 2548.5 c 128,-1,122
 363 2569 363 2569 417 2569 c 0,123,124
 485 2569 485 2569 538.5 2528 c 128,-1,125
 592 2487 592 2487 638.5 2422.5 c 128,-1,126
 685 2358 685 2358 728.5 2279 c 128,-1,127
 772 2200 772 2200 820 2124 c 0,128,129
 859 2063 859 2063 884.5 2018 c 128,-1,130
 910 1973 910 1973 925 1939.5 c 128,-1,131
 940 1906 940 1906 946 1881.5 c 128,-1,132
 952 1857 952 1857 952 1836 c 0,103,104
EndSplineSet
EndChar

StartChar: OE
Encoding: 338 338 65
Width: 2637
Flags: W
HStem: -2 258<862.583 1080> -2 223<1857.57 2164> -2 207<1822 2128.43> 567 551<1974.88 2185.33> 1331 264<804.461 1080> 1384 211<1822 2156>
VStem: 38 721<472.137 1130.54> 1080 742<256 762 924 1331>
LayerCount: 2
Fore
SplineSet
886 -2 m 2,0,1
 735 -2 735 -2 613 26 c 128,-1,2
 491 54 491 54 397 104 c 128,-1,3
 303 154 303 154 235 224 c 128,-1,4
 167 294 167 294 123 378.5 c 128,-1,5
 79 463 79 463 58.5 559 c 128,-1,6
 38 655 38 655 38 758 c 0,7,8
 38 876 38 876 51.5 983.5 c 128,-1,9
 65 1091 65 1091 101.5 1184 c 128,-1,10
 138 1277 138 1277 203 1353 c 128,-1,11
 268 1429 268 1429 371.5 1482.5 c 128,-1,12
 475 1536 475 1536 622 1565.5 c 128,-1,13
 769 1595 769 1595 970 1595 c 2,14,-1
 2281 1595 l 2,15,16
 2354 1595 2354 1595 2407.5 1554.5 c 128,-1,17
 2461 1514 2461 1514 2496.5 1453.5 c 128,-1,18
 2532 1393 2532 1393 2549.5 1322.5 c 128,-1,19
 2567 1252 2567 1252 2567 1192 c 0,20,21
 2567 1152 2567 1152 2554.5 1120 c 128,-1,22
 2542 1088 2542 1088 2519.5 1066 c 128,-1,23
 2497 1044 2497 1044 2467 1032 c 128,-1,24
 2437 1020 2437 1020 2401 1020 c 0,25,26
 2370 1020 2370 1020 2340 1030.5 c 128,-1,27
 2310 1041 2310 1041 2283 1064.5 c 128,-1,28
 2256 1088 2256 1088 2233.5 1125.5 c 128,-1,29
 2211 1163 2211 1163 2195 1217 c 1,30,-1
 2156 1384 l 1,31,-1
 1822 1384 l 1,32,-1
 1822 924 l 1,33,-1
 1902 934 l 1,34,35
 1922 974 1922 974 1937.5 1008 c 128,-1,36
 1953 1042 1953 1042 1970 1066.5 c 128,-1,37
 1987 1091 1987 1091 2009 1104.5 c 128,-1,38
 2031 1118 2031 1118 2063 1118 c 0,39,40
 2118 1118 2118 1118 2157 1094.5 c 128,-1,41
 2196 1071 2196 1071 2221 1033 c 128,-1,42
 2246 995 2246 995 2258 945.5 c 128,-1,43
 2270 896 2270 896 2270 844 c 0,44,45
 2270 791 2270 791 2258 741 c 128,-1,46
 2246 691 2246 691 2221 652.5 c 128,-1,47
 2196 614 2196 614 2157 590.5 c 128,-1,48
 2118 567 2118 567 2063 567 c 0,49,50
 2031 567 2031 567 2009 580.5 c 128,-1,51
 1987 594 1987 594 1970 618.5 c 128,-1,52
 1953 643 1953 643 1937.5 677 c 128,-1,53
 1922 711 1922 711 1902 752 c 1,54,-1
 1822 762 l 1,55,-1
 1822 205 l 1,56,-1
 2164 221 l 1,57,-1
 2205 395 l 1,58,59
 2222 452 2222 452 2246 491.5 c 128,-1,60
 2270 531 2270 531 2298.5 555.5 c 128,-1,61
 2327 580 2327 580 2358.5 591 c 128,-1,62
 2390 602 2390 602 2422 602 c 0,63,64
 2459 602 2459 602 2491 589.5 c 128,-1,65
 2523 577 2523 577 2546.5 553 c 128,-1,66
 2570 529 2570 529 2583 495.5 c 128,-1,67
 2596 462 2596 462 2596 420 c 0,68,69
 2596 379 2596 379 2588 331.5 c 128,-1,70
 2580 284 2580 284 2563 237 c 128,-1,71
 2546 190 2546 190 2521 147 c 128,-1,72
 2496 104 2496 104 2462.5 70.5 c 128,-1,73
 2429 37 2429 37 2386.5 17.5 c 128,-1,74
 2344 -2 2344 -2 2293 -2 c 2,75,-1
 886 -2 l 2,0,1
1080 256 m 1,76,-1
 1080 1331 l 1,77,-1
 906 1331 l 2,78,79
 859 1331 859 1331 830 1313.5 c 128,-1,80
 801 1296 801 1296 785.5 1258.5 c 128,-1,81
 770 1221 770 1221 764.5 1163.5 c 128,-1,82
 759 1106 759 1106 759 1026 c 0,83,84
 759 953 759 953 760 867.5 c 128,-1,85
 761 782 761 782 766 696.5 c 128,-1,86
 771 611 771 611 782 531.5 c 128,-1,87
 793 452 793 452 813.5 390.5 c 128,-1,88
 834 329 834 329 865.5 292.5 c 128,-1,89
 897 256 897 256 943 256 c 2,90,-1
 1080 256 l 1,76,-1
EndSplineSet
EndChar

StartChar: Oslash
Encoding: 216 216 72
Width: 1839
Flags: W
HStem: -25 263<792.135 1025.42> 1354 266<799.613 986.468> 1756 20G<1447.5 1485.5>
VStem: 29 721<634.67 1135.93>
LayerCount: 2
Fore
SplineSet
294 -74 m 0,0,1
 294 -54 294 -54 299 -38 c 128,-1,2
 304 -22 304 -22 314 -6 c 2,3,-1
 1363 1712 l 2,4,5
 1378 1737 1378 1737 1404 1756.5 c 128,-1,6
 1430 1776 1430 1776 1465 1776 c 0,7,8
 1506 1776 1506 1776 1533 1763.5 c 128,-1,9
 1560 1751 1560 1751 1576.5 1733.5 c 128,-1,10
 1593 1716 1593 1716 1600 1696.5 c 128,-1,11
 1607 1677 1607 1677 1607 1663 c 0,12,13
 1607 1643 1607 1643 1601.5 1627 c 128,-1,14
 1596 1611 1596 1611 1586 1595 c 2,15,-1
 538 -123 l 2,16,17
 524 -146 524 -146 496.5 -166 c 128,-1,18
 469 -186 469 -186 431 -186 c 0,19,20
 407 -186 407 -186 382.5 -177.5 c 128,-1,21
 358 -169 358 -169 338.5 -154 c 128,-1,22
 319 -139 319 -139 306.5 -118.5 c 128,-1,23
 294 -98 294 -98 294 -74 c 0,0,1
877 -25 m 0,24,25
 725 -25 725 -25 603.5 4.5 c 128,-1,26
 482 34 482 34 388 87 c 128,-1,27
 294 140 294 140 226 213 c 128,-1,28
 158 286 158 286 114 373 c 128,-1,29
 70 460 70 460 49.5 557.5 c 128,-1,30
 29 655 29 655 29 758 c 0,31,32
 29 876 29 876 42.5 985.5 c 128,-1,33
 56 1095 56 1095 92.5 1191 c 128,-1,34
 129 1287 129 1287 194 1366 c 128,-1,35
 259 1445 259 1445 362.5 1501.5 c 128,-1,36
 466 1558 466 1558 613 1589 c 128,-1,37
 760 1620 760 1620 961 1620 c 0,38,39
 1123 1620 1123 1620 1249 1590.5 c 128,-1,40
 1375 1561 1375 1561 1469.5 1508 c 128,-1,41
 1564 1455 1564 1455 1628.5 1382.5 c 128,-1,42
 1693 1310 1693 1310 1733.5 1224.5 c 128,-1,43
 1774 1139 1774 1139 1791.5 1043 c 128,-1,44
 1809 947 1809 947 1809 848 c 0,45,46
 1809 736 1809 736 1795.5 627.5 c 128,-1,47
 1782 519 1782 519 1745.5 422 c 128,-1,48
 1709 325 1709 325 1643.5 243 c 128,-1,49
 1578 161 1578 161 1474.5 101.5 c 128,-1,50
 1371 42 1371 42 1224 8.5 c 128,-1,51
 1077 -25 1077 -25 877 -25 c 0,24,25
934 238 m 0,52,53
 979 238 979 238 1007.5 263 c 128,-1,54
 1036 288 1036 288 1052.5 335 c 128,-1,55
 1069 382 1069 382 1075.5 450 c 128,-1,56
 1082 518 1082 518 1082 604 c 2,57,-1
 1082 649 l 2,58,59
 1082 725 1082 725 1081 806.5 c 128,-1,60
 1080 888 1080 888 1075 966.5 c 128,-1,61
 1070 1045 1070 1045 1058.5 1115 c 128,-1,62
 1047 1185 1047 1185 1026.5 1238.5 c 128,-1,63
 1006 1292 1006 1292 974.5 1323 c 128,-1,64
 943 1354 943 1354 897 1354 c 0,65,66
 850 1354 850 1354 821 1332.5 c 128,-1,67
 792 1311 792 1311 776.5 1269.5 c 128,-1,68
 761 1228 761 1228 755.5 1167 c 128,-1,69
 750 1106 750 1106 750 1026 c 0,70,71
 750 953 750 953 751 866 c 128,-1,72
 752 779 752 779 757 691.5 c 128,-1,73
 762 604 762 604 773 522 c 128,-1,74
 784 440 784 440 804.5 377 c 128,-1,75
 825 314 825 314 856.5 276 c 128,-1,76
 888 238 888 238 934 238 c 0,52,53
EndSplineSet
EndChar

StartChar: AE
Encoding: 198 198 79
Width: 2517
Flags: W
HStem: 0 221<1736.57 2043> 0 205<1701 2007.43> 489 152<683 953> 567 551<1854.88 2065.33> 1384 209<1701 2035>
VStem: 970 448<424 1218>
DStem2: 290 424 564 420 0.436878 0.899521<18.8261 194.338 366.889 845.46 886.388 942.968>
LayerCount: 2
Fore
SplineSet
683 641 m 1,0,-1
 955 641 l 1,1,-1
 954 1223 l 1,2,-1
 683 641 l 1,0,-1
953 489 m 1,3,-1
 601 489 l 1,4,-1
 564 420 l 2,5,6
 543 382 543 382 539 358 c 1,7,8
 534 335 534 335 541.5 322.5 c 128,-1,9
 549 310 549 310 561.5 303.5 c 128,-1,10
 574 297 574 297 590 293 c 128,-1,11
 606 289 606 289 619 283.5 c 128,-1,12
 632 278 632 278 639.5 267 c 128,-1,13
 647 256 647 256 643 236 c 0,14,15
 634 188 634 188 606.5 145.5 c 128,-1,16
 579 103 579 103 535.5 70.5 c 128,-1,17
 492 38 492 38 433 19 c 128,-1,18
 374 0 374 0 301 0 c 0,19,20
 227 0 227 0 175 19 c 128,-1,21
 123 38 123 38 91.5 70.5 c 128,-1,22
 60 103 60 103 49 145.5 c 128,-1,23
 38 188 38 188 47 236 c 0,24,25
 52 260 52 260 65 270.5 c 128,-1,26
 78 281 78 281 97 287 c 128,-1,27
 116 293 116 293 140 298 c 128,-1,28
 164 303 164 303 189 316 c 128,-1,29
 214 329 214 329 240 353.5 c 128,-1,30
 266 378 266 378 290 424 c 2,31,-1
 681 1174 l 2,32,33
 692 1195 692 1195 698.5 1211 c 128,-1,34
 705 1227 705 1227 707 1239 c 0,35,36
 711 1260 711 1260 705 1271 c 128,-1,37
 699 1282 699 1282 688.5 1288.5 c 128,-1,38
 678 1295 678 1295 664.5 1298.5 c 128,-1,39
 651 1302 651 1302 639.5 1307 c 128,-1,40
 628 1312 628 1312 622 1321 c 128,-1,41
 616 1330 616 1330 619 1347 c 0,42,43
 620 1349 620 1349 620 1352 c 128,-1,44
 620 1355 620 1355 622 1358 c 0,45,46
 646 1427 646 1427 700 1472.5 c 128,-1,47
 754 1518 754 1518 833.5 1544.5 c 128,-1,48
 913 1571 913 1571 1016 1582 c 128,-1,49
 1119 1593 1119 1593 1241 1593 c 0,50,51
 1274 1593 1274 1593 1299.5 1582 c 128,-1,52
 1325 1571 1325 1571 1344 1553.5 c 128,-1,53
 1363 1536 1363 1536 1376 1513.5 c 128,-1,54
 1389 1491 1389 1491 1397 1468 c 0,55,56
 1416 1413 1416 1413 1419 1344 c 1,57,58
 1418 1335 1418 1335 1418 1314 c 2,59,-1
 1418 1174 l 1,60,-1
 1419 424 l 1,61,-1
 955 420 l 1,62,-1
 953 489 l 1,3,-1
2150 844 m 0,63,64
 2150 791 2150 791 2138 741 c 128,-1,65
 2126 691 2126 691 2101 652.5 c 128,-1,66
 2076 614 2076 614 2037 590.5 c 128,-1,67
 1998 567 1998 567 1943 567 c 0,68,69
 1911 567 1911 567 1889 580.5 c 128,-1,70
 1867 594 1867 594 1850 618.5 c 128,-1,71
 1833 643 1833 643 1817 677 c 128,-1,72
 1801 711 1801 711 1781 752 c 1,73,-1
 1701 762 l 1,74,-1
 1701 205 l 1,75,-1
 2043 221 l 1,76,-1
 2084 395 l 1,77,78
 2101 452 2101 452 2125 491.5 c 128,-1,79
 2149 531 2149 531 2177.5 555.5 c 128,-1,80
 2206 580 2206 580 2238 591 c 128,-1,81
 2270 602 2270 602 2302 602 c 0,82,83
 2339 602 2339 602 2371 589.5 c 128,-1,84
 2403 577 2403 577 2426.5 553 c 128,-1,85
 2450 529 2450 529 2463 495.5 c 128,-1,86
 2476 462 2476 462 2476 420 c 0,87,88
 2476 379 2476 379 2467.5 331.5 c 128,-1,89
 2459 284 2459 284 2442.5 237.5 c 128,-1,90
 2426 191 2426 191 2401 148 c 128,-1,91
 2376 105 2376 105 2342 72 c 128,-1,92
 2308 39 2308 39 2265.5 19.5 c 128,-1,93
 2223 0 2223 0 2172 0 c 2,94,-1
 1302 0 l 2,95,96
 1184 0 1184 0 1092.5 13.5 c 128,-1,97
 1001 27 1001 27 938.5 55.5 c 128,-1,98
 876 84 876 84 843.5 129 c 128,-1,99
 811 174 811 174 811 236 c 0,100,101
 811 260 811 260 823 270.5 c 128,-1,102
 835 281 835 281 852.5 286.5 c 128,-1,103
 870 292 870 292 890.5 297 c 128,-1,104
 911 302 911 302 928.5 314.5 c 128,-1,105
 946 327 946 327 958 351 c 128,-1,106
 970 375 970 375 970 420 c 2,107,-1
 970 1174 l 2,108,109
 970 1218 970 1218 958 1242.5 c 128,-1,110
 946 1267 946 1267 928.5 1279.5 c 128,-1,111
 911 1292 911 1292 890.5 1297 c 128,-1,112
 870 1302 870 1302 852.5 1307.5 c 128,-1,113
 835 1313 835 1313 823 1323.5 c 128,-1,114
 811 1334 811 1334 811 1358 c 0,115,116
 811 1420 811 1420 843.5 1464.5 c 128,-1,117
 876 1509 876 1509 938.5 1537.5 c 128,-1,118
 1001 1566 1001 1566 1092.5 1579.5 c 128,-1,119
 1184 1593 1184 1593 1302 1593 c 2,120,-1
 2160 1593 l 2,121,122
 2233 1593 2233 1593 2287 1553 c 128,-1,123
 2341 1513 2341 1513 2376.5 1452.5 c 128,-1,124
 2412 1392 2412 1392 2429.5 1322 c 128,-1,125
 2447 1252 2447 1252 2447 1192 c 0,126,127
 2447 1152 2447 1152 2434.5 1120 c 128,-1,128
 2422 1088 2422 1088 2399.5 1066 c 128,-1,129
 2377 1044 2377 1044 2346.5 1032 c 128,-1,130
 2316 1020 2316 1020 2281 1020 c 0,131,132
 2250 1020 2250 1020 2220 1030.5 c 128,-1,133
 2190 1041 2190 1041 2163 1064.5 c 128,-1,134
 2136 1088 2136 1088 2113 1125.5 c 128,-1,135
 2090 1163 2090 1163 2074 1217 c 1,136,-1
 2035 1384 l 1,137,-1
 1701 1384 l 1,138,-1
 1701 924 l 1,139,-1
 1781 934 l 1,140,141
 1801 974 1801 974 1817 1008 c 128,-1,142
 1833 1042 1833 1042 1850 1066.5 c 128,-1,143
 1867 1091 1867 1091 1889 1104.5 c 128,-1,144
 1911 1118 1911 1118 1943 1118 c 0,145,146
 1998 1118 1998 1118 2037 1094.5 c 128,-1,147
 2076 1071 2076 1071 2101 1033 c 128,-1,148
 2126 995 2126 995 2138 945.5 c 128,-1,149
 2150 896 2150 896 2150 844 c 0,63,64
EndSplineSet
EndChar

StartChar: oe
Encoding: 339 339 80
Width: 2223
Flags: W
HStem: -25 357<1539.5 1858.19> -25 256<723.31 874.51> 682 141<1527 1846> 1069 256<686.984 846.059 1582.65 1795.77>
VStem: 36 602<415.904 900.061> 1846 340<823 1016.38>
LayerCount: 2
Fore
SplineSet
753 -25 m 0,0,1
 634 -25 634 -25 534.5 3 c 128,-1,2
 435 31 435 31 355.5 79.5 c 128,-1,3
 276 128 276 128 216 194 c 128,-1,4
 156 260 156 260 116 336.5 c 128,-1,5
 76 413 76 413 56 496 c 128,-1,6
 36 579 36 579 36 662 c 0,7,8
 36 747 36 747 57.5 829.5 c 128,-1,9
 79 912 79 912 122.5 986 c 128,-1,10
 166 1060 166 1060 231 1122 c 128,-1,11
 296 1184 296 1184 383.5 1229 c 128,-1,12
 471 1274 471 1274 580.5 1299.5 c 128,-1,13
 690 1325 690 1325 822 1325 c 0,14,15
 874 1325 874 1325 918 1318.5 c 128,-1,16
 962 1312 962 1312 999.5 1301 c 128,-1,17
 1037 1290 1037 1290 1068 1276 c 128,-1,18
 1099 1262 1099 1262 1123 1248 c 0,19,20
 1179 1215 1179 1215 1218 1172 c 1,21,22
 1258 1215 1258 1215 1315 1248 c 0,23,24
 1364 1277 1364 1277 1436 1301 c 128,-1,25
 1508 1325 1508 1325 1605 1325 c 0,26,27
 1739 1325 1739 1325 1846.5 1285 c 128,-1,28
 1954 1245 1954 1245 2029.5 1175 c 128,-1,29
 2105 1105 2105 1105 2145.5 1010.5 c 128,-1,30
 2186 916 2186 916 2186 807 c 0,31,32
 2186 762 2186 762 2173.5 737 c 128,-1,33
 2161 712 2161 712 2138 700 c 128,-1,34
 2115 688 2115 688 2081 685 c 128,-1,35
 2047 682 2047 682 2004 682 c 2,36,-1
 1523 682 l 1,37,38
 1523 572 1523 572 1545.5 503.5 c 128,-1,39
 1568 435 1568 435 1608 397 c 128,-1,40
 1648 359 1648 359 1704 345.5 c 128,-1,41
 1760 332 1760 332 1828 332 c 0,42,43
 1864 332 1864 332 1902.5 339 c 128,-1,44
 1941 346 1941 346 1976.5 357 c 128,-1,45
 2012 368 2012 368 2042 380 c 128,-1,46
 2072 392 2072 392 2092 403 c 0,47,48
 2108 412 2108 412 2123 412 c 0,49,50
 2146 412 2146 412 2159 392.5 c 128,-1,51
 2172 373 2172 373 2172 349 c 0,52,53
 2172 341 2172 341 2171 334 c 128,-1,54
 2170 327 2170 327 2167 320 c 0,55,56
 2138 246 2138 246 2088 183 c 128,-1,57
 2038 120 2038 120 1966.5 73.5 c 128,-1,58
 1895 27 1895 27 1801 1 c 128,-1,59
 1707 -25 1707 -25 1590 -25 c 0,60,61
 1489 -25 1489 -25 1415 2 c 128,-1,62
 1341 29 1341 29 1293 62 c 0,63,64
 1237 100 1237 100 1198 149 c 1,65,66
 1159 100 1159 100 1097 62 c 0,67,68
 1044 29 1044 29 959 2 c 128,-1,69
 874 -25 874 -25 753 -25 c 0,0,1
798 231 m 0,70,71
 831 231 831 231 853.5 250.5 c 128,-1,72
 876 270 876 270 890 307 c 128,-1,73
 904 344 904 344 910 396.5 c 128,-1,74
 916 449 916 449 916 514 c 0,75,76
 916 571 916 571 915 634.5 c 128,-1,77
 914 698 914 698 910 759.5 c 128,-1,78
 906 821 906 821 897 877 c 128,-1,79
 888 933 888 933 871.5 976 c 128,-1,80
 855 1019 855 1019 830 1044 c 128,-1,81
 805 1069 805 1069 769 1069 c 0,82,83
 734 1069 734 1069 709.5 1049.5 c 128,-1,84
 685 1030 685 1030 669 995 c 128,-1,85
 653 960 653 960 645.5 911 c 128,-1,86
 638 862 638 862 638 803 c 0,87,88
 638 748 638 748 640 684 c 128,-1,89
 642 620 642 620 648 556.5 c 128,-1,90
 654 493 654 493 665.5 434 c 128,-1,91
 677 375 677 375 694.5 330 c 128,-1,92
 712 285 712 285 737.5 258 c 128,-1,93
 763 231 763 231 798 231 c 0,70,71
1679 1069 m 0,94,95
 1647 1069 1647 1069 1619 1054.5 c 128,-1,96
 1591 1040 1591 1040 1570.5 1010 c 128,-1,97
 1550 980 1550 980 1538.5 933.5 c 128,-1,98
 1527 887 1527 887 1527 823 c 1,99,-1
 1846 823 l 1,100,101
 1846 893 1846 893 1835 940.5 c 128,-1,102
 1824 988 1824 988 1803 1016.5 c 128,-1,103
 1782 1045 1782 1045 1750.5 1057 c 128,-1,104
 1719 1069 1719 1069 1679 1069 c 0,94,95
EndSplineSet
Substitution2: "'smcp' Lowercase to Small Capitals in Latin lookup 0 subtable" oe.sc
EndChar

StartChar: eth
Encoding: 240 240 86
Width: 1550
Flags: W
HStem: -49 266<686.724 861.068> 791 284<711.991 816.477> 1122 496<341 508>
VStem: 30 598<322.545 683.302> 935 586<369.152 788.688>
DStem2: 508 1290 591 1160 0.841804 0.539783<-90.208 50.7717 516.72 659.108>
LayerCount: 2
Fore
SplineSet
341 1618 m 0,0,1
 491 1618 491 1618 621.5 1592.5 c 128,-1,2
 752 1567 752 1567 865 1521 c 1,3,-1
 987 1599 l 2,4,5
 1012 1615 1012 1615 1032 1626 c 128,-1,6
 1052 1637 1052 1637 1069 1637 c 0,7,8
 1084 1637 1084 1637 1097.5 1628 c 128,-1,9
 1111 1619 1111 1619 1125 1597 c 0,10,11
 1143 1570 1143 1570 1143 1550 c 0,12,13
 1143 1525 1143 1525 1120.5 1506.5 c 128,-1,14
 1098 1488 1098 1488 1064 1466 c 2,15,-1
 1025 1441 l 1,16,17
 1147 1367 1147 1367 1239.5 1271.5 c 128,-1,18
 1332 1176 1332 1176 1394.5 1068.5 c 128,-1,19
 1457 961 1457 961 1489 846 c 128,-1,20
 1521 731 1521 731 1521 619 c 0,21,22
 1521 486 1521 486 1475 365 c 128,-1,23
 1429 244 1429 244 1335 152 c 128,-1,24
 1241 60 1241 60 1099 5.5 c 128,-1,25
 957 -49 957 -49 765 -49 c 0,26,27
 638 -49 638 -49 533.5 -25.5 c 128,-1,28
 429 -2 429 -2 347.5 39.5 c 128,-1,29
 266 81 266 81 206 137.5 c 128,-1,30
 146 194 146 194 107 259.5 c 128,-1,31
 68 325 68 325 49 397.5 c 128,-1,32
 30 470 30 470 30 543 c 0,33,34
 30 644 30 644 66.5 740 c 128,-1,35
 103 836 103 836 172 910.5 c 128,-1,36
 241 985 241 985 342 1030 c 128,-1,37
 443 1075 443 1075 572 1075 c 0,38,39
 650 1075 650 1075 731.5 1056 c 128,-1,40
 813 1037 813 1037 898 994 c 1,41,42
 872 1077 872 1077 822 1136 c 128,-1,43
 772 1195 772 1195 710 1237 c 1,44,-1
 591 1160 l 2,45,46
 567 1144 567 1144 546.5 1133 c 128,-1,47
 526 1122 526 1122 508 1122 c 0,48,49
 493 1122 493 1122 479.5 1131 c 128,-1,50
 466 1140 466 1140 452 1162 c 0,51,52
 436 1188 436 1188 436 1208 c 0,53,54
 436 1232 436 1232 456 1251 c 128,-1,55
 476 1270 476 1270 508 1290 c 2,56,-1
 551 1317 l 1,57,58
 511 1332 511 1332 473 1343.5 c 128,-1,59
 435 1355 435 1355 402.5 1363.5 c 128,-1,60
 370 1372 370 1372 344 1379 c 128,-1,61
 318 1386 318 1386 302 1392 c 0,62,63
 265 1406 265 1406 246.5 1438 c 128,-1,64
 228 1470 228 1470 228 1506 c 0,65,66
 228 1527 228 1527 235 1547 c 128,-1,67
 242 1567 242 1567 256.5 1582.5 c 128,-1,68
 271 1598 271 1598 292 1608 c 128,-1,69
 313 1618 313 1618 341 1618 c 0,0,1
796 791 m 0,70,71
 757 791 757 791 726 761.5 c 128,-1,72
 695 732 695 732 673.5 685.5 c 128,-1,73
 652 639 652 639 640 581 c 128,-1,74
 628 523 628 523 628 465 c 0,75,76
 628 416 628 416 636.5 371 c 128,-1,77
 645 326 645 326 664 292 c 128,-1,78
 683 258 683 258 712.5 237.5 c 128,-1,79
 742 217 742 217 783 217 c 0,80,81
 825 217 825 217 854 240 c 128,-1,82
 883 263 883 263 901 325.5 c 128,-1,83
 919 388 919 388 927 497.5 c 128,-1,84
 935 607 935 607 935 781 c 1,85,86
 933 783 933 783 918 786 c 0,87,88
 905 788 905 788 877 789.5 c 128,-1,89
 849 791 849 791 796 791 c 0,70,71
EndSplineSet
Substitution2: "'smcp' Lowercase to Small Capitals in Latin lookup 0 subtable" eth.sc
EndChar

StartChar: oslash
Encoding: 248 248 92
Width: 1536
Flags: W
HStem: -25 256<678.564 862.258> 1069 256<675.984 873.652>
VStem: 25 602<571.219 900.061> 905 605<422.204 678.242>
LayerCount: 2
Fore
SplineSet
206 -82 m 0,0,1
 206 -62 206 -62 211 -46 c 128,-1,2
 216 -30 216 -30 226 -14 c 2,3,-1
 1115 1442 l 2,4,5
 1130 1467 1130 1467 1156 1486 c 128,-1,6
 1182 1505 1182 1505 1217 1505 c 0,7,8
 1258 1505 1258 1505 1285 1492.5 c 128,-1,9
 1312 1480 1312 1480 1328.5 1462.5 c 128,-1,10
 1345 1445 1345 1445 1352 1426 c 128,-1,11
 1359 1407 1359 1407 1359 1393 c 0,12,13
 1359 1373 1359 1373 1353.5 1357 c 128,-1,14
 1348 1341 1348 1341 1338 1325 c 2,15,-1
 449 -131 l 2,16,17
 435 -154 435 -154 408 -174.5 c 128,-1,18
 381 -195 381 -195 343 -195 c 0,19,20
 318 -195 318 -195 293.5 -186.5 c 128,-1,21
 269 -178 269 -178 249.5 -163 c 128,-1,22
 230 -148 230 -148 218 -127 c 128,-1,23
 206 -106 206 -106 206 -82 c 0,0,1
742 -25 m 0,24,25
 623 -25 623 -25 523.5 3 c 128,-1,26
 424 31 424 31 344.5 79.5 c 128,-1,27
 265 128 265 128 205 194 c 128,-1,28
 145 260 145 260 105 336.5 c 128,-1,29
 65 413 65 413 45 496 c 128,-1,30
 25 579 25 579 25 662 c 0,31,32
 25 747 25 747 46.5 829.5 c 128,-1,33
 68 912 68 912 111.5 986 c 128,-1,34
 155 1060 155 1060 220 1122 c 128,-1,35
 285 1184 285 1184 372.5 1229 c 128,-1,36
 460 1274 460 1274 569.5 1299.5 c 128,-1,37
 679 1325 679 1325 811 1325 c 0,38,39
 927 1325 927 1325 1023.5 1299 c 128,-1,40
 1120 1273 1120 1273 1198 1227.5 c 128,-1,41
 1276 1182 1276 1182 1334.5 1120 c 128,-1,42
 1393 1058 1393 1058 1432 985 c 128,-1,43
 1471 912 1471 912 1490.5 831 c 128,-1,44
 1510 750 1510 750 1510 668 c 0,45,46
 1510 583 1510 583 1489 498 c 128,-1,47
 1468 413 1468 413 1425.5 336 c 128,-1,48
 1383 259 1383 259 1319 193 c 128,-1,49
 1255 127 1255 127 1169.5 78.5 c 128,-1,50
 1084 30 1084 30 977 2.5 c 128,-1,51
 870 -25 870 -25 742 -25 c 0,24,25
787 231 m 0,52,53
 820 231 820 231 842.5 250.5 c 128,-1,54
 865 270 865 270 879 307 c 128,-1,55
 893 344 893 344 899 396.5 c 128,-1,56
 905 449 905 449 905 514 c 0,57,58
 905 571 905 571 904 634.5 c 128,-1,59
 903 698 903 698 899 759.5 c 128,-1,60
 895 821 895 821 886 877 c 128,-1,61
 877 933 877 933 860.5 976 c 128,-1,62
 844 1019 844 1019 819 1044 c 128,-1,63
 794 1069 794 1069 758 1069 c 0,64,65
 723 1069 723 1069 698.5 1049.5 c 128,-1,66
 674 1030 674 1030 658 995 c 128,-1,67
 642 960 642 960 634.5 911 c 128,-1,68
 627 862 627 862 627 803 c 0,69,70
 627 748 627 748 629 684 c 128,-1,71
 631 620 631 620 637 556.5 c 128,-1,72
 643 493 643 493 654.5 434 c 128,-1,73
 666 375 666 375 683.5 330 c 128,-1,74
 701 285 701 285 726.5 258 c 128,-1,75
 752 231 752 231 787 231 c 0,52,53
EndSplineSet
Substitution2: "'smcp' Lowercase to Small Capitals in Latin lookup 0 subtable" oslash.sc
EndChar

StartChar: uni0450
Encoding: 1104 1104 93
Width: 1312
Flags: W
HStem: -20 352<616.5 970.702> 682 141<637 956> 1069 266<692.505 905.77>
VStem: 31 602<453.68 680.189> 956 340<823 1017.98>
LayerCount: 2
Fore
SplineSet
789 1069 m 0,0,1
 757 1069 757 1069 729 1054.5 c 128,-1,2
 701 1040 701 1040 680.5 1010 c 128,-1,3
 660 980 660 980 648.5 933.5 c 128,-1,4
 637 887 637 887 637 823 c 1,5,-1
 956 823 l 1,6,7
 956 893 956 893 945 940.5 c 128,-1,8
 934 988 934 988 913 1016.5 c 128,-1,9
 892 1045 892 1045 860.5 1057 c 128,-1,10
 829 1069 829 1069 789 1069 c 0,0,1
715 1335 m 0,11,12
 849 1335 849 1335 956.5 1293.5 c 128,-1,13
 1064 1252 1064 1252 1139.5 1180 c 128,-1,14
 1215 1108 1215 1108 1255.5 1012 c 128,-1,15
 1296 916 1296 916 1296 807 c 0,16,17
 1296 762 1296 762 1283.5 737 c 128,-1,18
 1271 712 1271 712 1248 700 c 128,-1,19
 1225 688 1225 688 1191 685 c 128,-1,20
 1157 682 1157 682 1114 682 c 2,21,-1
 633 682 l 1,22,23
 633 572 633 572 655.5 503.5 c 128,-1,24
 678 435 678 435 718 397 c 128,-1,25
 758 359 758 359 814 345.5 c 128,-1,26
 870 332 870 332 938 332 c 0,27,28
 974 332 974 332 1012.5 339 c 128,-1,29
 1051 346 1051 346 1086.5 357 c 128,-1,30
 1122 368 1122 368 1152 380 c 128,-1,31
 1182 392 1182 392 1202 403 c 0,32,33
 1218 412 1218 412 1233 412 c 0,34,35
 1256 412 1256 412 1269 392.5 c 128,-1,36
 1282 373 1282 373 1282 349 c 0,37,38
 1282 341 1282 341 1281 334 c 128,-1,39
 1280 327 1280 327 1277 320 c 0,40,41
 1248 246 1248 246 1198 183.5 c 128,-1,42
 1148 121 1148 121 1076.5 76 c 128,-1,43
 1005 31 1005 31 911 5.5 c 128,-1,44
 817 -20 817 -20 700 -20 c 0,45,46
 533 -20 533 -20 407.5 37.5 c 128,-1,47
 282 95 282 95 198.5 189.5 c 128,-1,48
 115 284 115 284 73 404.5 c 128,-1,49
 31 525 31 525 31 651 c 0,50,51
 31 736 31 736 50 820 c 128,-1,52
 69 904 69 904 107 980 c 128,-1,53
 145 1056 145 1056 202 1121 c 128,-1,54
 259 1186 259 1186 335 1233.5 c 128,-1,55
 411 1281 411 1281 506 1308 c 128,-1,56
 601 1335 601 1335 715 1335 c 0,11,12
890 1551 m 0,57,58
 890 1535 890 1535 882 1518 c 128,-1,59
 874 1501 874 1501 860.5 1486.5 c 128,-1,60
 847 1472 847 1472 829.5 1463 c 128,-1,61
 812 1454 812 1454 794 1454 c 0,62,63
 758 1454 758 1454 694.5 1487 c 128,-1,64
 631 1520 631 1520 529 1596 c 0,65,66
 490 1625 490 1625 444.5 1657.5 c 128,-1,67
 399 1690 399 1690 353.5 1726 c 128,-1,68
 308 1762 308 1762 265.5 1800.5 c 128,-1,69
 223 1839 223 1839 190 1880.5 c 128,-1,70
 157 1922 157 1922 137.5 1965.5 c 128,-1,71
 118 2009 118 2009 118 2055 c 0,72,73
 118 2096 118 2096 135 2137 c 128,-1,74
 152 2178 152 2178 183 2210.5 c 128,-1,75
 214 2243 214 2243 257.5 2263.5 c 128,-1,76
 301 2284 301 2284 355 2284 c 0,77,78
 423 2284 423 2284 476.5 2243 c 128,-1,79
 530 2202 530 2202 576.5 2137.5 c 128,-1,80
 623 2073 623 2073 666.5 1994 c 128,-1,81
 710 1915 710 1915 758 1839 c 0,82,83
 797 1778 797 1778 822.5 1733 c 128,-1,84
 848 1688 848 1688 863 1654.5 c 128,-1,85
 878 1621 878 1621 884 1596.5 c 128,-1,86
 890 1572 890 1572 890 1551 c 0,57,58
EndSplineSet
EndChar

StartChar: thorn
Encoding: 254 254 94
Width: 1730
Flags: W
HStem: -614 21G<431.5 539> -35 264<933.389 1232.5> 1069 256<898.5 1250.5> 1661 20G<431.5 543.5>
VStem: 184 613<-329.172 90 248.75 1052.92 1194 1400.17> 1085 631<345.059 962.741>
LayerCount: 2
Fore
SplineSet
485 -614 m 0,0,1
 378 -614 378 -614 295 -602 c 128,-1,2
 212 -590 212 -590 155 -563.5 c 128,-1,3
 98 -537 98 -537 68.5 -496.5 c 128,-1,4
 39 -456 39 -456 39 -399 c 0,5,6
 39 -377 39 -377 49.5 -367.5 c 128,-1,7
 60 -358 60 -358 76.5 -353 c 128,-1,8
 93 -348 93 -348 111.5 -344 c 128,-1,9
 130 -340 130 -340 146.5 -328.5 c 128,-1,10
 163 -317 163 -317 173.5 -295.5 c 128,-1,11
 184 -274 184 -274 184 -233 c 2,12,-1
 184 1300 l 2,13,14
 184 1341 184 1341 173.5 1362.5 c 128,-1,15
 163 1384 163 1384 146.5 1395.5 c 128,-1,16
 130 1407 130 1407 111.5 1411 c 128,-1,17
 93 1415 93 1415 76.5 1420 c 128,-1,18
 60 1425 60 1425 49.5 1434.5 c 128,-1,19
 39 1444 39 1444 39 1466 c 0,20,21
 39 1523 39 1523 68.5 1563.5 c 128,-1,22
 98 1604 98 1604 155 1630.5 c 128,-1,23
 212 1657 212 1657 295 1669 c 128,-1,24
 378 1681 378 1681 485 1681 c 0,25,26
 602 1681 602 1681 665.5 1667 c 128,-1,27
 729 1653 729 1653 758 1620 c 128,-1,28
 787 1587 787 1587 792 1533.5 c 128,-1,29
 797 1480 797 1480 797 1401 c 2,30,-1
 797 1194 l 1,31,32
 824 1218 824 1218 861.5 1241 c 128,-1,33
 899 1264 899 1264 948.5 1283 c 128,-1,34
 998 1302 998 1302 1060 1313.5 c 128,-1,35
 1122 1325 1122 1325 1200 1325 c 0,36,37
 1301 1325 1301 1325 1379 1296 c 128,-1,38
 1457 1267 1457 1267 1514.5 1217.5 c 128,-1,39
 1572 1168 1572 1168 1610.5 1101 c 128,-1,40
 1649 1034 1649 1034 1672.5 958 c 128,-1,41
 1696 882 1696 882 1706 801 c 128,-1,42
 1716 720 1716 720 1716 641 c 0,43,44
 1716 557 1716 557 1702.5 474.5 c 128,-1,45
 1689 392 1689 392 1661.5 316.5 c 128,-1,46
 1634 241 1634 241 1591.5 177 c 128,-1,47
 1549 113 1549 113 1490 65.5 c 128,-1,48
 1431 18 1431 18 1355 -8.5 c 128,-1,49
 1279 -35 1279 -35 1186 -35 c 0,50,51
 1112 -35 1112 -35 1051.5 -24 c 128,-1,52
 991 -13 991 -13 943 5 c 128,-1,53
 895 23 895 23 859 45.5 c 128,-1,54
 823 68 823 68 797 90 c 1,55,-1
 797 -229 l 2,56,57
 797 -269 797 -269 807.5 -291 c 128,-1,58
 818 -313 818 -313 834.5 -324.5 c 128,-1,59
 851 -336 851 -336 869.5 -340 c 128,-1,60
 888 -344 888 -344 904.5 -349 c 128,-1,61
 921 -354 921 -354 931.5 -363.5 c 128,-1,62
 942 -373 942 -373 942 -395 c 0,63,64
 942 -452 942 -452 911 -493.5 c 128,-1,65
 880 -535 880 -535 821 -561.5 c 128,-1,66
 762 -588 762 -588 677.5 -601 c 128,-1,67
 593 -614 593 -614 485 -614 c 0,0,1
917 1069 m 0,68,69
 880 1069 880 1069 850 1056.5 c 128,-1,70
 820 1044 820 1044 797 1028 c 1,71,-1
 797 272 l 1,72,73
 824 255 824 255 859 242 c 128,-1,74
 894 229 894 229 936 229 c 0,75,76
 992 229 992 229 1022 248.5 c 128,-1,77
 1052 268 1052 268 1066 315 c 128,-1,78
 1080 362 1080 362 1082.5 440.5 c 128,-1,79
 1085 519 1085 519 1085 637 c 0,80,81
 1085 761 1085 761 1076 844.5 c 128,-1,82
 1067 928 1067 928 1047 977.5 c 128,-1,83
 1027 1027 1027 1027 995 1048 c 128,-1,84
 963 1069 963 1069 917 1069 c 0,68,69
EndSplineSet
Substitution2: "'smcp' Lowercase to Small Capitals in Latin lookup 0 subtable" thorn.sc
EndChar

StartChar: ae
Encoding: 230 230 104
Width: 2119
Flags: W
HStem: -25 357<1402.5 1753.84> -25 230<515 799.643> 647 113<647.472 810.563> 682 141<1423 1743> 1069 256<1477.83 1691.95> 1137 188<602.268 753.178>
VStem: 37 544<230.335 517.581> 135 416<885.514 1082.61> 1743 339<823 1016.38>
LayerCount: 2
Fore
SplineSet
1501 1325 m 0,0,1
 1635 1325 1635 1325 1742.5 1285 c 128,-1,2
 1850 1245 1850 1245 1925.5 1175 c 128,-1,3
 2001 1105 2001 1105 2041.5 1010.5 c 128,-1,4
 2082 916 2082 916 2082 807 c 0,5,6
 2082 762 2082 762 2069.5 737 c 128,-1,7
 2057 712 2057 712 2034 700 c 128,-1,8
 2011 688 2011 688 1977 685 c 128,-1,9
 1943 682 1943 682 1900 682 c 2,10,-1
 1419 682 l 1,11,12
 1419 572 1419 572 1441.5 503.5 c 128,-1,13
 1464 435 1464 435 1504 397 c 128,-1,14
 1544 359 1544 359 1600 345.5 c 128,-1,15
 1656 332 1656 332 1724 332 c 0,16,17
 1770 332 1770 332 1818 344.5 c 128,-1,18
 1866 357 1866 357 1907 372 c 128,-1,19
 1948 387 1948 387 1978 399.5 c 128,-1,20
 2008 412 2008 412 2019 412 c 0,21,22
 2042 412 2042 412 2055 392.5 c 128,-1,23
 2068 373 2068 373 2068 348 c 0,24,25
 2068 340 2068 340 2067.5 333 c 128,-1,26
 2067 326 2067 326 2064 319 c 0,27,28
 2035 245 2035 245 1985 182.5 c 128,-1,29
 1935 120 1935 120 1863 73.5 c 128,-1,30
 1791 27 1791 27 1697.5 1 c 128,-1,31
 1604 -25 1604 -25 1487 -25 c 0,32,33
 1442 -25 1442 -25 1402.5 -18 c 128,-1,34
 1363 -11 1363 -11 1328.5 1 c 128,-1,35
 1294 13 1294 13 1265 28 c 128,-1,36
 1236 43 1236 43 1212 59 c 0,37,38
 1157 96 1157 96 1116 143 c 1,39,40
 1104 110 1104 110 1052.5 79.5 c 128,-1,41
 1001 49 1001 49 925 26 c 128,-1,42
 849 3 849 3 755.5 -11 c 128,-1,43
 662 -25 662 -25 565 -25 c 0,44,45
 465 -25 465 -25 370 -7.5 c 128,-1,46
 275 10 275 10 201 49.5 c 128,-1,47
 127 89 127 89 82 153.5 c 128,-1,48
 37 218 37 218 37 313 c 0,49,50
 37 404 37 404 67.5 485.5 c 128,-1,51
 98 567 98 567 171.5 628 c 128,-1,52
 245 689 245 689 368 724.5 c 128,-1,53
 491 760 491 760 676 760 c 2,54,-1
 813 760 l 1,55,56
 813 871 813 871 805.5 944 c 128,-1,57
 798 1017 798 1017 782 1060 c 128,-1,58
 766 1103 766 1103 742 1120 c 128,-1,59
 718 1137 718 1137 684 1137 c 0,60,61
 646 1137 646 1137 620.5 1114 c 128,-1,62
 595 1091 595 1091 579.5 1047.5 c 128,-1,63
 564 1004 564 1004 557.5 942.5 c 128,-1,64
 551 881 551 881 551 803 c 1,65,66
 508 803 508 803 460.5 804.5 c 128,-1,67
 413 806 413 806 366.5 812 c 128,-1,68
 320 818 320 818 278.5 830.5 c 128,-1,69
 237 843 237 843 205 864.5 c 128,-1,70
 173 886 173 886 154 919 c 128,-1,71
 135 952 135 952 135 999 c 0,72,73
 135 1065 135 1065 169.5 1124 c 128,-1,74
 204 1183 204 1183 275.5 1227.5 c 128,-1,75
 347 1272 347 1272 457 1298.5 c 128,-1,76
 567 1325 567 1325 719 1325 c 0,77,78
 828 1325 828 1325 904 1305 c 128,-1,79
 980 1285 980 1285 1027 1262 c 0,80,81
 1082 1235 1082 1235 1116 1200 c 1,82,83
 1167 1235 1167 1235 1228 1262 c 0,84,85
 1280 1285 1280 1285 1350 1305 c 128,-1,86
 1420 1325 1420 1325 1501 1325 c 0,0,1
714 205 m 0,87,88
 747 205 747 205 767 215.5 c 128,-1,89
 787 226 787 226 798.5 245.5 c 128,-1,90
 810 265 810 265 813.5 293.5 c 128,-1,91
 817 322 817 322 817 358 c 0,92,93
 817 389 817 389 816 437 c 128,-1,94
 815 485 815 485 814 531 c 0,95,96
 812 585 812 585 811 643 c 1,97,98
 797 645 797 645 784.5 646 c 128,-1,99
 772 647 772 647 759 647 c 0,100,101
 708 647 708 647 673.5 626.5 c 128,-1,102
 639 606 639 606 618.5 569.5 c 128,-1,103
 598 533 598 533 589.5 483.5 c 128,-1,104
 581 434 581 434 581 377 c 0,105,106
 581 342 581 342 585 310.5 c 128,-1,107
 589 279 589 279 603 255.5 c 128,-1,108
 617 232 617 232 643.5 218.5 c 128,-1,109
 670 205 670 205 714 205 c 0,87,88
1575 1069 m 0,110,111
 1543 1069 1543 1069 1515 1054.5 c 128,-1,112
 1487 1040 1487 1040 1466.5 1010 c 128,-1,113
 1446 980 1446 980 1434.5 933.5 c 128,-1,114
 1423 887 1423 887 1423 823 c 1,115,-1
 1743 823 l 1,116,117
 1743 893 1743 893 1732 940.5 c 128,-1,118
 1721 988 1721 988 1699.5 1016.5 c 128,-1,119
 1678 1045 1678 1045 1646.5 1057 c 128,-1,120
 1615 1069 1615 1069 1575 1069 c 0,110,111
EndSplineSet
Substitution2: "'smcp' Lowercase to Small Capitals in Latin lookup 0 subtable" ae.sc
EndChar

StartChar: guilsinglleft
Encoding: 8249 8249 105
Width: 1024
Flags: W
LayerCount: 2
Fore
SplineSet
15 639 m 256,0,1
 15 705 15 705 30.5 753 c 128,-1,2
 46 801 46 801 81 839.5 c 128,-1,3
 116 878 116 878 172.5 911 c 128,-1,4
 229 944 229 944 312 979.5 c 128,-1,5
 395 1015 395 1015 506 1056.5 c 128,-1,6
 617 1098 617 1098 760 1153 c 1,7,8
 785 1161 785 1161 804.5 1165 c 128,-1,9
 824 1169 824 1169 842 1169 c 0,10,11
 876 1169 876 1169 902.5 1157 c 128,-1,12
 929 1145 929 1145 946 1124.5 c 128,-1,13
 963 1104 963 1104 972 1078.5 c 128,-1,14
 981 1053 981 1053 981 1026 c 0,15,16
 981 991 981 991 962 961 c 128,-1,17
 943 931 943 931 904.5 900 c 128,-1,18
 866 869 866 869 807 834 c 128,-1,19
 748 799 748 799 668 754 c 2,20,-1
 463 639 l 1,21,-1
 668 524 l 2,22,23
 748 479 748 479 807 444 c 128,-1,24
 866 409 866 409 904.5 378 c 128,-1,25
 943 347 943 347 962 317 c 128,-1,26
 981 287 981 287 981 252 c 0,27,28
 981 224 981 224 972 198 c 128,-1,29
 963 172 963 172 946 151.5 c 128,-1,30
 929 131 929 131 902.5 118.5 c 128,-1,31
 876 106 876 106 842 106 c 0,32,33
 824 106 824 106 804.5 111 c 128,-1,34
 785 116 785 116 760 125 c 0,35,36
 617 180 617 180 506 221.5 c 128,-1,37
 395 263 395 263 312 298.5 c 128,-1,38
 229 334 229 334 172.5 367 c 128,-1,39
 116 400 116 400 81 438.5 c 128,-1,40
 46 477 46 477 30.5 525 c 128,-1,41
 15 573 15 573 15 639 c 256,0,1
EndSplineSet
EndChar

StartChar: multiply
Encoding: 215 215 110
Width: 1073
Flags: W
DStem2: 317 1171 94 946 0.707107 -0.707107<-113.82 311.127 629.325 1048.59> 94 508 538 502 0.707107 0.707107<-112.384 309.713 627.911 1050.74>
LayerCount: 2
Fore
SplineSet
98 285 m 0,0,1
 68 315 68 315 56 343.5 c 128,-1,2
 44 372 44 372 44 398 c 0,3,4
 44 432 44 432 59 460 c 128,-1,5
 74 488 74 488 94 508 c 2,6,-1
 313 727 l 1,7,-1
 94 946 l 2,8,9
 73 968 73 968 57 996.5 c 128,-1,10
 41 1025 41 1025 41 1059 c 0,11,12
 41 1085 41 1085 53.5 1113 c 128,-1,13
 66 1141 66 1141 95 1170 c 0,14,15
 125 1199 125 1199 153 1211 c 128,-1,16
 181 1223 181 1223 207 1223 c 0,17,18
 240 1223 240 1223 268 1207.5 c 128,-1,19
 296 1192 296 1192 317 1171 c 2,20,-1
 538 952 l 1,21,-1
 755 1169 l 2,22,23
 777 1190 777 1190 805.5 1206.5 c 128,-1,24
 834 1223 834 1223 868 1223 c 0,25,26
 894 1223 894 1223 922 1210.5 c 128,-1,27
 950 1198 950 1198 979 1168 c 256,28,29
 1008 1138 1008 1138 1020.5 1110 c 128,-1,30
 1033 1082 1033 1082 1033 1056 c 0,31,32
 1033 1023 1033 1023 1017 995 c 128,-1,33
 1001 967 1001 967 980 946 c 2,34,-1
 761 727 l 1,35,-1
 978 510 l 2,36,37
 998 490 998 490 1014 461.5 c 128,-1,38
 1030 433 1030 433 1030 398 c 0,39,40
 1030 372 1030 372 1018.5 345 c 128,-1,41
 1007 318 1007 318 978 289 c 0,42,43
 948 259 948 259 919.5 247 c 128,-1,44
 891 235 891 235 865 235 c 0,45,46
 831 235 831 235 803 250 c 128,-1,47
 775 265 775 265 755 285 c 2,48,-1
 538 502 l 1,49,-1
 319 285 l 2,50,51
 299 265 299 265 270.5 249 c 128,-1,52
 242 233 242 233 207 233 c 0,53,54
 181 233 181 233 154 244.5 c 128,-1,55
 127 256 127 256 98 285 c 0,0,1
EndSplineSet
EndChar

StartChar: igrave
Encoding: 236 236 118
Width: 1004
Flags: W
HStem: 0 21G<475 640.5> 1276 20G<475 583>
VStem: 228 612<281.451 1014.86>
LayerCount: 2
Fore
SplineSet
840 381 m 2,0,1
 840 341 840 341 851 319 c 128,-1,2
 862 297 862 297 878.5 285.5 c 128,-1,3
 895 274 895 274 914 270 c 128,-1,4
 933 266 933 266 949.5 261 c 128,-1,5
 966 256 966 256 977 246.5 c 128,-1,6
 988 237 988 237 988 215 c 0,7,8
 988 101 988 101 870 50.5 c 128,-1,9
 752 0 752 0 529 0 c 0,10,11
 421 0 421 0 338 12 c 128,-1,12
 255 24 255 24 198 50.5 c 128,-1,13
 141 77 141 77 111.5 117.5 c 128,-1,14
 82 158 82 158 82 215 c 0,15,16
 82 237 82 237 93 246.5 c 128,-1,17
 104 256 104 256 120 261 c 128,-1,18
 136 266 136 266 155 270 c 128,-1,19
 174 274 174 274 190 285.5 c 128,-1,20
 206 297 206 297 217 318.5 c 128,-1,21
 228 340 228 340 228 381 c 2,22,-1
 228 915 l 2,23,24
 228 955 228 955 217 977 c 128,-1,25
 206 999 206 999 190 1010.5 c 128,-1,26
 174 1022 174 1022 155 1026 c 128,-1,27
 136 1030 136 1030 120 1035 c 128,-1,28
 104 1040 104 1040 93 1049.5 c 128,-1,29
 82 1059 82 1059 82 1081 c 0,30,31
 82 1138 82 1138 111.5 1178.5 c 128,-1,32
 141 1219 141 1219 198 1245.5 c 128,-1,33
 255 1272 255 1272 338 1284 c 128,-1,34
 421 1296 421 1296 529 1296 c 256,35,36
 637 1296 637 1296 699 1285 c 128,-1,37
 761 1274 761 1274 792.5 1247.5 c 128,-1,38
 824 1221 824 1221 832 1176 c 128,-1,39
 840 1131 840 1131 840 1063 c 2,40,-1
 840 381 l 2,0,1
778 1533 m 0,41,42
 778 1517 778 1517 770 1500 c 128,-1,43
 762 1483 762 1483 748.5 1468.5 c 128,-1,44
 735 1454 735 1454 717.5 1445 c 128,-1,45
 700 1436 700 1436 682 1436 c 0,46,47
 646 1436 646 1436 582.5 1469 c 128,-1,48
 519 1502 519 1502 417 1578 c 0,49,50
 378 1607 378 1607 332.5 1639.5 c 128,-1,51
 287 1672 287 1672 241.5 1708 c 128,-1,52
 196 1744 196 1744 153.5 1782.5 c 128,-1,53
 111 1821 111 1821 78 1862.5 c 128,-1,54
 45 1904 45 1904 25.5 1947.5 c 128,-1,55
 6 1991 6 1991 6 2037 c 0,56,57
 6 2078 6 2078 23 2119 c 128,-1,58
 40 2160 40 2160 71 2192.5 c 128,-1,59
 102 2225 102 2225 145.5 2245.5 c 128,-1,60
 189 2266 189 2266 243 2266 c 0,61,62
 311 2266 311 2266 364.5 2225 c 128,-1,63
 418 2184 418 2184 464.5 2119.5 c 128,-1,64
 511 2055 511 2055 554.5 1976 c 128,-1,65
 598 1897 598 1897 646 1821 c 0,66,67
 685 1760 685 1760 710.5 1715 c 128,-1,68
 736 1670 736 1670 751 1636.5 c 128,-1,69
 766 1603 766 1603 772 1578.5 c 128,-1,70
 778 1554 778 1554 778 1533 c 0,41,42
EndSplineSet
Substitution2: "'smcp' Lowercase to Small Capitals in Latin lookup 0 subtable" igrave.sc
EndChar

StartChar: iacute
Encoding: 237 237 119
Width: 1197
Flags: W
HStem: 0 21G<665 830.5> 1276 20G<665 773>
VStem: 418 612<281.451 1014.86>
LayerCount: 2
Fore
SplineSet
1030 381 m 2,0,1
 1030 341 1030 341 1041 319 c 128,-1,2
 1052 297 1052 297 1068.5 285.5 c 128,-1,3
 1085 274 1085 274 1104 270 c 128,-1,4
 1123 266 1123 266 1139.5 261 c 128,-1,5
 1156 256 1156 256 1167 246.5 c 128,-1,6
 1178 237 1178 237 1178 215 c 0,7,8
 1178 101 1178 101 1060 50.5 c 128,-1,9
 942 0 942 0 719 0 c 0,10,11
 611 0 611 0 528 12 c 128,-1,12
 445 24 445 24 388 50.5 c 128,-1,13
 331 77 331 77 301.5 117.5 c 128,-1,14
 272 158 272 158 272 215 c 0,15,16
 272 237 272 237 283 246.5 c 128,-1,17
 294 256 294 256 310 261 c 128,-1,18
 326 266 326 266 345 270 c 128,-1,19
 364 274 364 274 380 285.5 c 128,-1,20
 396 297 396 297 407 318.5 c 128,-1,21
 418 340 418 340 418 381 c 2,22,-1
 418 915 l 2,23,24
 418 955 418 955 407 977 c 128,-1,25
 396 999 396 999 380 1010.5 c 128,-1,26
 364 1022 364 1022 345 1026 c 128,-1,27
 326 1030 326 1030 310 1035 c 128,-1,28
 294 1040 294 1040 283 1049.5 c 128,-1,29
 272 1059 272 1059 272 1081 c 0,30,31
 272 1138 272 1138 301.5 1178.5 c 128,-1,32
 331 1219 331 1219 388 1245.5 c 128,-1,33
 445 1272 445 1272 528 1284 c 128,-1,34
 611 1296 611 1296 719 1296 c 256,35,36
 827 1296 827 1296 889 1285 c 128,-1,37
 951 1274 951 1274 982.5 1247.5 c 128,-1,38
 1014 1221 1014 1221 1022 1176 c 128,-1,39
 1030 1131 1030 1131 1030 1063 c 2,40,-1
 1030 381 l 2,0,1
290 1502 m 0,41,42
 290 1523 290 1523 296 1547.5 c 128,-1,43
 302 1572 302 1572 317 1605.5 c 128,-1,44
 332 1639 332 1639 357 1684 c 128,-1,45
 382 1729 382 1729 421 1790 c 0,46,47
 469 1866 469 1866 513 1945 c 128,-1,48
 557 2024 557 2024 603.5 2088.5 c 128,-1,49
 650 2153 650 2153 703 2194 c 128,-1,50
 756 2235 756 2235 824 2235 c 0,51,52
 878 2235 878 2235 921.5 2214.5 c 128,-1,53
 965 2194 965 2194 996.5 2161.5 c 128,-1,54
 1028 2129 1028 2129 1045 2088 c 128,-1,55
 1062 2047 1062 2047 1062 2006 c 0,56,57
 1062 1960 1062 1960 1042.5 1916.5 c 128,-1,58
 1023 1873 1023 1873 990 1831.5 c 128,-1,59
 957 1790 957 1790 914.5 1751.5 c 128,-1,60
 872 1713 872 1713 826 1677 c 128,-1,61
 780 1641 780 1641 734.5 1608.5 c 128,-1,62
 689 1576 689 1576 650 1547 c 0,63,64
 549 1471 549 1471 485 1438 c 128,-1,65
 421 1405 421 1405 386 1405 c 0,66,67
 368 1405 368 1405 350.5 1414 c 128,-1,68
 333 1423 333 1423 319.5 1437.5 c 128,-1,69
 306 1452 306 1452 298 1469 c 128,-1,70
 290 1486 290 1486 290 1502 c 0,41,42
EndSplineSet
Substitution2: "'smcp' Lowercase to Small Capitals in Latin lookup 0 subtable" iacute.sc
EndChar

